# 3ds Max Wavefront OBJ Exporter v0.97b - (c)2007 guruware
# File Created: 01.03.2017 13:00:53

#
# object Box056
#

v  -6.7616 -5.6037 0.7876
v  -6.7616 -5.6037 -0.7876
v  -3.2420 -5.6037 -0.7876
v  3.3336 -5.6037 -0.7876
v  6.7616 -5.6037 -0.7876
v  6.7616 -5.6037 0.7876
v  -6.7616 9.4545 0.7876
v  6.7616 9.4545 0.7876
v  6.7616 9.4545 -0.7876
v  3.3336 9.4545 -0.7876
v  -3.2420 9.4545 -0.7876
v  -6.7616 9.4545 -0.7876
v  3.0048 3.7077 -2.9174
v  3.3336 3.7077 -2.9174
v  3.3336 3.2872 -2.9174
v  -2.9171 3.7077 -2.9174
v  -3.2420 3.7077 -2.9174
v  -3.2420 3.2872 -2.9174
v  -3.2420 8.7783 -0.7876
v  -3.2420 3.7077 -0.7876
v  -3.2420 3.2872 -0.7876
v  3.3336 3.2872 -0.7876
v  3.3336 3.7077 -0.7876
v  3.3336 8.7209 -0.7876
v  -3.2420 8.7783 -0.4521
v  3.3336 8.7209 -0.4521
v  3.3336 3.7077 -0.4521
v  3.0048 3.7077 -0.4521
v  -2.9171 3.7077 -0.4521
v  -3.2420 3.7077 -0.4521
v  3.0048 3.7077 -0.7876
v  3.0048 3.7077 -2.5276
v  -2.9171 3.7077 -2.5276
v  -2.9171 3.7077 -0.7876
v  3.3336 5.4965 -0.7876
v  3.3336 5.4965 -2.9174
v  3.0048 5.4965 -2.9174
v  3.0048 5.4965 -2.5276
v  3.0048 5.4965 -0.7876
v  -3.2420 5.4965 -2.9174
v  -3.2420 5.4965 -0.7876
v  -2.9171 5.4965 -0.7876
v  -2.9171 5.4965 -2.5276
v  -2.9171 5.4965 -2.9174
# 44 vertices

vn 0.0000 -1.0000 -0.0000
vn 0.0000 1.0000 -0.0000
vn 0.0000 0.0000 1.0000
vn 1.0000 0.0000 -0.0000
vn 0.0000 0.0000 -1.0000
vn -1.0000 0.0000 -0.0000
vn -0.0000 0.0000 -1.0000
vn -1.0000 -0.0000 -0.0000
vn 0.0000 1.0000 0.0000
vn -0.0000 1.0000 0.0000
vn -0.0087 -1.0000 -0.0000
vn -0.0000 1.0000 -0.0000
# 12 vertex normals

vt 1.0000 0.0000 0.0000
vt 1.0000 1.0000 0.0000
vt 0.6658 1.0000 0.0000
vt 0.3274 1.0000 0.0000
vt 0.0000 1.0000 0.0000
vt 0.0000 0.0000 0.0000
vt 0.6726 1.0000 0.0000
vt 0.3342 1.0000 0.0000
vt 0.4382 0.6726 0.0000
vt 0.3274 0.6726 0.0000
vt 0.3274 0.3342 0.0000
vt 0.5527 0.6726 0.0000
vt 0.6658 0.6726 0.0000
vt 0.6658 0.3342 0.0000
vt 0.6658 0.8379 0.0000
vt 0.6658 0.0000 0.0000
vt 0.3274 0.0000 0.0000
vt 0.3274 0.8346 0.0000
# 18 texture coords

g Box056
s 2
f -44/-18/-12 -43/-17/-12 -42/-16/-12 -41/-15/-12 
f -44/-18/-12 -41/-15/-12 -40/-14/-12 -39/-13/-12 
s 4
f -38/-13/-11 -37/-18/-11 -36/-17/-11 -35/-12/-11 
f -38/-13/-11 -35/-12/-11 -34/-11/-11 -33/-14/-11 
s 8
f -37/-17/-10 -38/-14/-10 -44/-13/-10 -39/-18/-10 
s 16
f -36/-17/-9 -37/-14/-9 -39/-13/-9 -40/-18/-9 
s 32
f -32/-10/-8 -31/-9/-8 -30/-8/-8 -29/-7/-8 
f -28/-6/-8 -29/-7/-8 -30/-8/-8 -27/-5/-8 
s 64
f -38/-17/-7 -33/-14/-7 -43/-13/-7 -44/-18/-7 
s 32
f -43/-18/-8 -33/-17/-8 -34/-16/-8 -26/-4/-8 
f -43/-18/-8 -26/-4/-8 -25/-6/-8 -24/-5/-8 
f -42/-3/-8 -43/-18/-8 -24/-5/-8 
f -36/-14/-6 -40/-13/-6 -41/-2/-6 -23/-8/-6 
f -36/-14/-6 -23/-8/-6 -22/-9/-6 -21/-1/-6 
f -35/-15/-6 -36/-14/-6 -21/-1/-6 
f -20/-4/-8 -19/-1/-8 -18/-9/-8 -17/-10/-8 
f -20/-4/-8 -17/-10/-8 -16/-7/-8 -15/-6/-8 
f -41/-2/-6 -42/-3/-8 -24/-5/-8 -23/-8/-6 
s off
f -24/-5/-5 -25/-6/-5 -28/-6/-5 -27/-5/-5 
f -14/-10/-11 -13/-10/-11 -12/-7/-11 -11/-7/-11 
f -22/-9/-9 -23/-8/-9 -30/-8/-9 -31/-9/-9 
f -23/-8/-12 -24/-5/-12 -27/-5/-12 -30/-8/-12 
f -10/-9/-4 -9/-9/-4 -8/-10/-4 -7/-10/-4 
f -6/-10/-4 -10/-9/-4 -7/-10/-4 
f -5/-6/-3 -4/-6/-3 -3/-7/-3 -2/-7/-3 
f -1/-7/-3 -5/-6/-3 -2/-7/-3 
f -8/-10/-11 -1/-7/-11 -2/-7/-11 -7/-10/-11 
f -25/-6/-10 -11/-7/-10 -3/-7/-10 -4/-6/-10 
f -11/-7/-9 -12/-7/-9 -2/-7/-9 -3/-7/-9 
f -12/-7/-10 -13/-10/-10 -7/-10/-10 -2/-7/-10 
f -13/-10/-7 -14/-10/-7 -6/-10/-7 -7/-10/-7 
f -14/-10/-10 -22/-9/-10 -10/-9/-10 -6/-10/-10 
f -22/-9/-9 -31/-9/-9 -9/-9/-9 -10/-9/-9 
f -31/-9/-8 -32/-10/-8 -8/-10/-8 -9/-9/-8 
f -32/-10/-8 -29/-7/-8 -1/-7/-8 -8/-10/-8 
f -29/-7/-8 -28/-6/-8 -5/-6/-8 -1/-7/-8 
f -28/-6/-7 -25/-6/-7 -4/-6/-7 -5/-6/-7 
s 32
f -34/-16/-8 -35/-15/-6 -21/-1/-6 -26/-4/-8 
s off
f -25/-6/-9 -26/-4/-9 -20/-4/-9 -15/-6/-9 
f -26/-4/-2 -21/-1/-2 -19/-1/-2 -20/-4/-2 
f -21/-1/-7 -22/-9/-7 -18/-9/-7 -19/-1/-7 
f -22/-9/-11 -14/-10/-11 -17/-10/-11 -18/-9/-11 
f -14/-10/-11 -11/-7/-11 -16/-7/-11 -17/-10/-11 
f -11/-7/-1 -25/-6/-1 -15/-6/-1 -16/-7/-1 
# 40 polygons - 4 triangles

