# 3ds Max Wavefront OBJ Exporter v0.97b - (c)2007 guruware
# File Created: 21.02.2017 14:08:42

mtllib Box067.mtl

#
# object Box067
#

v  3082.5610 -23.4812 -4541.1699
v  3465.9419 -23.4812 -4450.3799
v  3429.6436 -23.4812 -4297.1035
v  3046.2627 -23.4812 -4387.8945
v  3082.5610 1438.7200 -4541.1699
v  3046.2627 1438.7200 -4387.8945
v  3429.6436 1438.7200 -4297.1035
v  3465.9419 1438.7200 -4450.3799
# 8 vertices

vn 0.0000 -1.0000 -0.0000
vn 0.0000 1.0000 -0.0000
vn 0.9731 0.0000 0.2304
vn 0.2304 0.0000 -0.9731
vn -0.9731 0.0000 -0.2304
vn -0.2304 0.0000 0.9731
# 6 vertex normals

vt 0.0000 1.0000 0.0000
vt 0.0000 0.0000 0.0000
vt 1.0000 0.0000 0.0000
vt 1.0000 1.0000 0.0000
# 4 texture coords

g Box067
usemtl wire_145028177
s 2
f 1/1/1 2/2/1 3/3/1 4/4/1 
s 4
f 5/4/2 6/1/2 7/2/2 8/3/2 
s 8
f 8/4/3 7/1/3 3/2/3 2/3/3 
s 16
f 5/4/4 8/1/4 2/2/4 1/3/4 
s 32
f 6/4/5 5/1/5 1/2/5 4/3/5 
s 64
f 7/4/6 6/1/6 4/2/6 3/3/6 
# 6 polygons

