# 3ds Max Wavefront OBJ Exporter v0.97b - (c)2007 guruware
# File Created: 21.02.2017 14:08:41

mtllib Box063.mtl

#
# object Box063
#

v  4903.3438 -23.4817 -3565.0317
v  5100.3359 -23.4817 -3223.8311
v  4963.9243 -23.4817 -3145.0732
v  4766.9316 -23.4817 -3486.2739
v  4903.3438 1438.7196 -3565.0317
v  4766.9316 1438.7196 -3486.2739
v  4963.9243 1438.7196 -3145.0732
v  5100.3359 1438.7196 -3223.8311
# 8 vertices

vn 0.0000 -1.0000 -0.0000
vn 0.0000 1.0000 -0.0000
vn 0.5000 0.0000 0.8660
vn 0.8660 0.0000 -0.5000
vn -0.5000 0.0000 -0.8660
vn -0.8660 0.0000 0.5000
# 6 vertex normals

vt 0.0000 1.0000 0.0000
vt 0.0000 0.0000 0.0000
vt 1.0000 0.0000 0.0000
vt 1.0000 1.0000 0.0000
# 4 texture coords

g Box063
usemtl wire_145028177
s 2
f 1/1/1 2/2/1 3/3/1 4/4/1 
s 4
f 5/4/2 6/1/2 7/2/2 8/3/2 
s 8
f 8/4/3 7/1/3 3/2/3 2/3/3 
s 16
f 5/4/4 8/1/4 2/2/4 1/3/4 
s 32
f 6/4/5 5/1/5 1/2/5 4/3/5 
s 64
f 7/4/6 6/1/6 4/2/6 3/3/6 
# 6 polygons

