# 3ds Max Wavefront OBJ Exporter v0.97b - (c)2007 guruware
# File Created: 21.02.2017 14:08:41

mtllib Box064.mtl

#
# object Box064
#

v  4599.7222 -23.4812 -3876.2427
v  4878.3115 -23.4812 -3597.6533
v  4766.9316 -23.4812 -3486.2729
v  4488.3428 -23.4812 -3764.8623
v  4599.7222 1438.7200 -3876.2427
v  4488.3428 1438.7200 -3764.8623
v  4766.9316 1438.7200 -3486.2729
v  4878.3115 1438.7200 -3597.6533
# 8 vertices

vn 0.0000 -1.0000 -0.0000
vn 0.0000 1.0000 -0.0000
vn 0.7071 0.0000 0.7071
vn 0.7071 0.0000 -0.7071
vn -0.7071 0.0000 -0.7071
vn -0.7071 0.0000 0.7071
# 6 vertex normals

vt 0.0000 1.0000 0.0000
vt 0.0000 0.0000 0.0000
vt 1.0000 0.0000 0.0000
vt 1.0000 1.0000 0.0000
# 4 texture coords

g Box064
usemtl wire_145028177
s 2
f 1/1/1 2/2/1 3/3/1 4/4/1 
s 4
f 5/4/2 6/1/2 7/2/2 8/3/2 
s 8
f 8/4/3 7/1/3 3/2/3 2/3/3 
s 16
f 5/4/4 8/1/4 2/2/4 1/3/4 
s 32
f 6/4/5 5/1/5 1/2/5 4/3/5 
s 64
f 7/4/6 6/1/6 4/2/6 3/3/6 
# 6 polygons

