# 3ds Max Wavefront OBJ Exporter v0.97b - (c)2007 guruware
# File Created: 22.02.2017 23:59:11

#
# object Box047
#

v  6.6080 0.7684 15.3673
v  6.6080 0.7684 -15.3673
v  -6.6079 0.7684 -15.3673
v  -6.6079 0.7684 15.3673
v  -6.6079 -0.7684 -15.3673
v  6.6080 -0.7684 -15.3673
v  6.6080 -0.7684 15.3673
v  -6.6079 -0.7684 15.3673
# 8 vertices

vn 0.0000 1.0000 -0.0000
vn 0.0000 -1.0000 -0.0000
vn 0.0000 0.0000 1.0000
vn 1.0000 0.0000 -0.0000
vn 0.0000 0.0000 -1.0000
vn -1.0000 0.0000 -0.0000
# 6 vertex normals

vt 1.0000 0.0000 0.0000
vt 1.0000 1.0000 0.0000
vt 0.0000 1.0000 0.0000
vt 0.0000 0.0000 0.0000
# 4 texture coords

g Box047
s 2
f -8/-4/-6 -7/-3/-6 -6/-2/-6 -5/-1/-6 
s 4
f -4/-3/-5 -3/-2/-5 -2/-1/-5 -1/-4/-5 
s 8
f -1/-2/-4 -2/-3/-4 -8/-4/-4 -5/-1/-4 
s 16
f -2/-2/-3 -3/-3/-3 -7/-4/-3 -8/-1/-3 
s 32
f -3/-2/-2 -4/-3/-2 -6/-4/-2 -7/-1/-2 
s 64
f -4/-2/-1 -1/-3/-1 -5/-4/-1 -6/-1/-1 
# 6 polygons

