# 3ds Max Wavefront OBJ Exporter v0.97b - (c)2007 guruware
# File Created: 21.02.2017 14:08:37

mtllib Box036.mtl

#
# object Box036
#

v  -2600.5942 -177.1554 6799.4141
v  -2600.5942 -177.1554 7844.3916
v  -6042.8760 -177.1554 7844.3916
v  -6042.8760 -177.1554 6799.4141
v  -2600.5942 -23.4821 6799.4141
v  -6042.8760 -23.4821 6799.4141
v  -6042.8760 -23.4821 7844.3916
v  -2600.5942 -23.4821 7844.3916
# 8 vertices

vn 0.0000 -1.0000 -0.0000
vn 0.0000 1.0000 -0.0000
vn 0.0000 0.0000 1.0000
vn 1.0000 0.0000 -0.0000
vn 0.0000 0.0000 -1.0000
vn -1.0000 0.0000 -0.0000
# 6 vertex normals

vt 0.0000 1.0000 0.0000
vt 0.0000 0.0000 0.0000
vt 1.0000 0.0000 0.0000
vt 1.0000 1.0000 0.0000
# 4 texture coords

g Box036
usemtl wire_228184153
s 2
f 1/1/1 2/2/1 3/3/1 4/4/1 
s 4
f 5/4/2 6/1/2 7/2/2 8/3/2 
s 8
f 8/4/3 7/1/3 3/2/3 2/3/3 
s 16
f 5/4/4 8/1/4 2/2/4 1/3/4 
s 32
f 6/4/5 5/1/5 1/2/5 4/3/5 
s 64
f 7/4/6 6/1/6 4/2/6 3/3/6 
# 6 polygons

