# 3ds Max Wavefront OBJ Exporter v0.97b - (c)2007 guruware
# File Created: 01.03.2017 13:15:15

#
# object Box100
#

v  -0.5811 10.7999 11.2116
v  0.5811 10.7999 11.2116
v  0.5811 10.7999 -11.2116
v  -0.5811 10.7999 7.7007
v  -0.5811 10.7999 -7.5157
v  -0.5811 10.7999 -11.2116
v  -0.5811 -7.2984 11.2116
v  0.5811 -7.4621 11.2116
v  0.5811 -7.4621 -11.2116
v  -0.5811 -7.2984 -11.2116
v  0.2160 -7.2984 6.3116
v  0.2160 3.0165 6.3116
v  0.2160 3.0165 -5.7627
v  0.2160 -7.2984 -5.7627
v  -0.5811 4.6181 7.7007
v  -0.5811 -7.2984 7.7007
v  -0.5811 -7.2984 -7.5157
v  -0.5811 4.6181 -7.5157
v  -0.5811 4.6181 -6.4137
v  -0.5811 4.6181 6.6433
v  -2.0703 -7.5641 7.7007
v  -2.0703 3.5388 7.7007
v  -2.0703 4.1384 7.5832
v  -2.0703 4.4982 7.2307
v  -2.0703 4.6181 6.6433
v  -2.0703 3.3978 6.6433
v  -2.0703 -7.5641 6.6433
v  -2.0703 4.6181 -6.4137
v  -2.0703 4.4946 -7.0259
v  -2.0703 4.1239 -7.3932
v  -2.0703 3.5061 -7.5157
v  -2.0703 3.4668 -6.4137
v  -2.0703 -7.2984 -6.4137
v  -2.0703 -7.2984 -7.5157
v  -0.5811 -7.2984 6.3116
v  -0.5811 3.5388 7.7007
v  -0.5811 3.5061 -7.5157
v  -0.5811 -7.2984 -5.7627
v  -0.5811 3.0165 -5.7627
v  -0.5811 3.0165 6.3116
v  -0.5811 4.1384 7.5832
v  -0.5811 4.4982 7.2307
v  -0.5811 4.4946 -7.0259
v  -0.5811 4.1239 -7.3932
# 44 vertices

vn 0.0000 1.0000 -0.0000
vn 0.0000 0.0000 1.0000
vn 0.0000 0.0000 -1.0000
vn -1.0000 0.0000 -0.0000
vn -1.0000 0.0000 0.0000
vn 0.1756 -0.9845 -0.0000
vn -0.0000 0.0966 0.9953
vn -0.2310 0.9615 0.1491
vn -0.2310 0.9719 0.0462
vn -0.2310 0.9719 -0.0457
vn -0.2310 0.9617 -0.1475
vn 0.0000 0.0977 -0.9952
vn 0.0000 -1.0000 -0.0000
vn -0.2046 0.0000 0.9788
vn -0.2208 0.0000 0.9753
vn -0.4005 0.0000 0.9163
vn -0.1508 -0.9886 -0.0015
vn -0.1442 -0.9896 -0.0014
vn -0.2687 -0.9632 -0.0026
vn -0.1173 0.0000 -0.9931
vn -0.1150 0.0000 -0.9934
vn -0.2174 0.0000 -0.9761
vn -0.0000 0.1923 0.9813
vn -0.0000 0.6998 0.7143
vn 0.0000 0.9798 0.2000
vn 0.0000 0.9802 -0.1978
vn 0.0000 0.7039 -0.7103
vn 0.0000 0.1944 -0.9809
# 28 vertex normals

vt 0.0000 0.0000 0.0000
vt 1.0000 0.0000 0.0000
vt 1.0000 1.0000 0.0000
vt 0.0000 0.3333 0.0000
vt 0.0000 0.6667 0.0000
vt 0.0000 1.0000 0.0000
vt 0.5556 0.0000 0.0000
vt 0.5556 0.2500 0.0000
vt 0.4444 0.2500 0.0000
vt 0.4444 0.0000 0.0000
vt 0.6667 1.0000 0.0000
vt 0.6667 0.5000 0.0000
vt 0.6667 0.0000 0.0000
vt 0.3333 0.0000 0.0000
vt 0.3333 0.5000 0.0000
vt 0.3333 1.0000 0.0000
vt 0.4444 0.5000 0.0000
vt 0.5556 0.5000 0.0000
vt 0.6667 0.4557 0.0000
vt 0.6543 0.4803 0.0000
vt 0.6173 0.4951 0.0000
vt 0.3827 0.4948 0.0000
vt 0.3457 0.4793 0.0000
vt 0.3333 0.4533 0.0000
vt 0.6667 0.4547 0.0000
vt 0.6296 0.4698 0.0000
vt 0.5926 0.4849 0.0000
vt 0.4074 0.4844 0.0000
vt 0.3704 0.4689 0.0000
# 29 texture coords

g Box100
s 1
f -44/-29/-28 -43/-28/-28 -42/-27/-28 -41/-26/-28 
f -40/-25/-28 -41/-26/-28 -42/-27/-28 -39/-24/-28 
s 2
f -43/-27/-27 -44/-24/-27 -38/-29/-27 -37/-28/-27 
f -39/-27/-26 -42/-24/-26 -36/-29/-26 -35/-28/-26 
s 1
f -34/-23/-25 -33/-22/-25 -32/-21/-25 -31/-20/-25 
s 4
f -38/-28/-24 -44/-27/-24 -41/-19/-24 -30/-18/-24 
f -29/-17/-24 -38/-28/-24 -30/-18/-24 
f -39/-24/-25 -35/-29/-25 -28/-16/-25 -27/-15/-25 
f -40/-14/-25 -39/-24/-25 -27/-15/-25 
f -41/-19/-24 -40/-14/-25 -27/-15/-25 -26/-13/-25 
f -41/-19/-24 -26/-13/-25 -25/-12/-25 -30/-18/-24 
s 1
f -24/-17/-25 -23/-11/-25 -22/-10/-25 -21/-9/-25 
f -24/-17/-25 -21/-9/-25 -20/-12/-25 -20/-12/-25 
f -24/-17/-25 -20/-12/-25 -19/-22/-25 -18/-23/-25 
f -17/-13/-25 -17/-13/-25 -16/-8/-25 -15/-7/-25 
f -17/-13/-25 -15/-7/-25 -14/-6/-25 -13/-21/-25 
f -12/-20/-25 -13/-21/-25 -14/-6/-25 -11/-16/-25 
f -20/-12/-25 -17/-13/-25 -13/-21/-25 -19/-22/-25 
s 2
f -10/-23/-23 -29/-17/-23 -24/-17/-23 -18/-23/-23 
s 4
f -29/-17/-27 -9/-5/-22 -23/-11/-22 -24/-17/-27 
s 2
f -25/-12/-21 -25/-12/-20 -20/-12/-20 -20/-12/-21 
f -25/-12/-20 -26/-13/-19 -17/-13/-19 -20/-12/-20 
f -26/-13/-19 -26/-13/-18 -17/-13/-18 -17/-13/-19 
f -8/-6/-17 -28/-16/-26 -11/-16/-26 -14/-6/-17 
s 4
f -28/-16/-16 -7/-20/-16 -12/-20/-16 -11/-16/-16 
s 2
f -7/-20/-15 -6/-21/-14 -13/-21/-13 -12/-20/-13 
s 4
f -6/-21/-12 -5/-22/-11 -19/-22/-10 -13/-21/-10 
s 8
f -5/-22/-9 -10/-23/-8 -18/-23/-7 -19/-22/-7 
f -10/-23/-8 -5/-22/-9 -33/-22/-26 -34/-23/-26 
s 4
f -5/-22/-11 -6/-21/-12 -32/-21/-16 -33/-22/-16 
s 2
f -6/-21/-14 -7/-20/-15 -31/-20/-27 -32/-21/-27 
s 4
f -22/-10/-6 -23/-11/-22 -9/-5/-22 -4/-4/-6 
s 8
f -21/-9/-5 -22/-10/-5 -4/-4/-5 -3/-3/-5 
s 2
f -20/-12/-21 -21/-9/-4 -3/-3/-4 -25/-12/-21 
f -16/-8/-3 -17/-13/-18 -26/-13/-18 -2/-2/-3 
s 4
f -15/-7/-2 -16/-8/-2 -2/-2/-2 -1/-1/-2 
s 2
f -14/-6/-17 -15/-7/-1 -1/-1/-1 -8/-6/-17 
s off
f -30/-18/-25 -4/-4/-25 -9/-5/-25 
f -30/-18/-25 -3/-3/-25 -4/-4/-25 
f -3/-3/-25 -30/-18/-25 -25/-12/-25 
f -26/-13/-25 -27/-15/-25 -2/-2/-25 
f -2/-2/-25 -27/-15/-25 -1/-1/-25 
f -27/-15/-25 -8/-6/-25 -1/-1/-25 
# 35 polygons - 8 triangles

