# 3ds Max Wavefront OBJ Exporter v0.97b - (c)2007 guruware
# File Created: 01.03.2017 12:49:53

#
# object conector00
#

v  -1.6002 0.0000 7.3120
v  1.6002 0.0000 7.3120
v  1.6002 0.0000 -7.3120
v  -1.6002 0.0000 -7.3120
v  -1.6002 -5.9542 7.3120
v  -1.6002 -5.9542 -7.3120
v  1.6002 -5.9542 -7.3120
v  1.6002 -5.9542 7.3120
# 8 vertices

vn 0.0000 1.0000 -0.0000
vn 0.0000 -1.0000 -0.0000
vn 0.0000 0.0000 1.0000
vn 1.0000 0.0000 -0.0000
vn 0.0000 0.0000 -1.0000
vn -1.0000 0.0000 -0.0000
# 6 vertex normals

vt 1.0000 0.0000 0.0000
vt 0.0000 0.0000 0.0000
vt 0.0000 1.0000 0.0000
vt 1.0000 1.0000 0.0000
# 4 texture coords

g conector00
s 2
f -8/-4/-6 -7/-3/-6 -6/-2/-6 -5/-1/-6 
s 4
f -4/-3/-5 -3/-2/-5 -2/-1/-5 -1/-4/-5 
s 8
f -8/-3/-4 -4/-2/-4 -1/-1/-4 -7/-4/-4 
s 16
f -7/-3/-3 -1/-2/-3 -2/-1/-3 -6/-4/-3 
s 32
f -6/-3/-2 -2/-2/-2 -3/-1/-2 -5/-4/-2 
s 64
f -5/-3/-1 -3/-2/-1 -4/-1/-1 -8/-4/-1 
# 6 polygons

