# 3ds Max Wavefront OBJ Exporter v0.97b - (c)2007 guruware
# File Created: 13.03.2017 17:04:40

mtllib mid9.mtl

#
# object mid9
#

v  -10.4394 -3.2916 0.0000
v  10.4394 3.2916 0.0000
v  -10.4394 3.2916 0.0000
v  10.4394 -3.2916 0.0000
# 4 vertices

vn 0.0000 0.0000 1.0000
# 1 vertex normals

vt 0.7458 0.4164 0.0000
vt 0.8082 0.2182 0.0000
vt 0.8082 0.4164 0.0000
vt 0.7458 0.2182 0.0000
# 4 texture coords

g mid9
usemtl blinn1SG
s off
f 1/1/1 2/2/1 3/3/1 
f 1/1/1 4/4/1 2/2/1 
# 0 polygons - 2 triangles

