# 3ds Max Wavefront OBJ Exporter v0.97b - (c)2007 guruware
# File Created: 24.02.2017 14:59:45

#
# object Object001
#

v  0.8394 -5.1590 -0.3468
v  0.8394 -2.4033 -0.3468
v  0.8394 -2.4033 0.2437
v  0.8394 -5.1590 0.2437
v  0.2996 -1.3050 0.3702
v  0.2996 -5.2418 0.3702
v  0.2996 -5.2418 -0.4734
v  0.2996 -1.3050 -0.4734
v  -0.0288 2.7255 1.0119
v  -0.0288 -4.7731 1.0107
v  -0.0206 -5.2399 -1.0226
v  -0.0288 5.2375 -1.0174
v  0.7854 -2.4033 0.1846
v  0.7854 -2.4921 0.1846
v  0.3535 -2.4921 0.1846
v  0.3535 -2.4033 0.1846
v  -0.0312 -5.2367 1.0049
v  0.2996 -2.4033 -0.3468
v  0.2996 -5.1590 -0.3468
v  -0.0220 0.3822 -0.4734
v  -0.0220 -5.2418 -0.4734
v  0.3711 -1.4706 -0.2864
v  0.3240 -1.4706 -0.2864
v  0.3240 -2.2265 -0.2864
v  0.3711 -2.2265 -0.2864
v  0.2996 -2.3210 0.2420
v  0.3711 -2.3210 0.2420
v  0.3711 -1.3762 0.2420
v  0.2996 -1.3762 0.2420
v  0.3535 -2.4033 -0.2878
v  0.3535 -2.4921 -0.2878
v  0.7854 -2.4921 -0.2878
v  0.7854 -2.4033 -0.2878
v  0.2996 -5.1590 0.2437
v  0.2996 -2.4033 0.2437
v  -0.0220 -5.2418 0.3702
v  -0.0220 0.3822 0.3702
v  -0.4975 -5.2418 0.5501
v  -0.8394 -5.2418 0.3676
v  -0.8394 -5.2418 -0.3732
v  -0.4975 -5.2418 -0.5556
v  -0.4975 5.2418 0.5501
v  -0.8394 4.9504 0.3676
v  -0.4975 5.2418 -0.5556
v  -0.8394 4.9504 -0.3732
v  0.3240 -1.4706 0.1833
v  0.3240 -2.2265 0.1833
v  -0.4975 2.7255 1.0119
v  -0.4975 -4.7731 1.0115
v  0.3711 -1.3762 -0.3451
v  0.2996 -1.3762 -0.3451
v  0.2996 -2.3210 -0.3451
v  0.3711 -2.3210 -0.3451
v  -0.4975 -5.2418 -1.0174
v  -0.4975 5.2418 -1.0174
v  0.3711 -1.4706 0.1833
v  0.3711 -2.2265 0.1833
v  -0.4975 -5.2418 1.0208
v  -0.4975 5.2418 0.9897
v  -0.0288 5.2375 1.0226
# 60 vertices

vn 1.0000 0.0000 0.0000
vn 1.0000 0.0000 -0.0000
vn 1.0000 0.0005 0.0023
vn 0.0000 0.0000 -1.0000
vn 1.0000 -0.0053 0.0053
vn 0.0000 0.0000 1.0000
vn 0.0000 -1.0000 -0.0000
vn -0.4708 0.0000 0.8822
vn -0.6486 0.7611 -0.0000
vn 0.0008 -0.0001 1.0000
vn 0.0000 1.0000 -0.0000
vn -0.0055 0.0002 -1.0000
vn 0.9823 0.1872 0.0000
vn -1.0000 0.0000 -0.0000
vn -0.4708 -0.0000 -0.8823
vn 0.0091 1.0000 -0.0000
vn -1.0000 -0.0000 -0.0000
vn 1.0000 -0.0000 -0.0000
# 18 vertex normals

vt 0.2832 0.7773 0.0000
vt 0.2832 0.8867 0.0000
vt 0.2598 0.8867 0.0000
vt 0.2598 0.7773 0.0000
vt 0.9980 0.8164 0.0000
vt 0.9980 0.9824 0.0000
vt 0.9629 0.9824 0.0000
vt 0.9629 0.8164 0.0000
vt 0.0547 0.2031 0.0000
vt 0.1474 0.0114 0.0000
vt 0.0039 0.0078 0.0000
vt 0.0039 0.2266 0.0000
vt 0.0742 0.0254 0.0000
vt 0.0840 0.0352 0.0000
vt 0.0840 0.0703 0.0000
vt 0.0742 0.0801 0.0000
vt 0.3130 0.0078 0.0000
vt 0.3047 0.8867 0.0000
vt 0.3047 0.7773 0.0000
vt 0.9727 0.4121 0.0000
vt 0.9961 0.2871 0.0000
vt 0.9961 0.0000 0.0000
vt 0.9727 0.0000 0.0000
vt 0.1250 0.1758 0.0000
vt 0.1191 0.1699 0.0000
vt 0.1191 0.1250 0.0000
vt 0.1250 0.1211 0.0000
vt 0.0625 0.1016 0.0000
vt 0.0703 0.1094 0.0000
vt 0.0703 0.1836 0.0000
vt 0.0625 0.1895 0.0000
vt 0.1328 0.0801 0.0000
vt 0.1230 0.0703 0.0000
vt 0.1230 0.0352 0.0000
vt 0.1328 0.0254 0.0000
vt 0.2383 0.7773 0.0000
vt 0.2383 0.8867 0.0000
vt 0.9980 0.7305 0.0000
vt 0.9746 0.7305 0.0000
vt 0.9746 0.4395 0.0000
vt 0.9980 0.3145 0.0000
vt 0.1602 0.3027 0.0000
vt 0.1445 0.3301 0.0000
vt 0.0820 0.3301 0.0000
vt 0.0684 0.3027 0.0000
vt 0.4570 0.9219 0.0000
vt 0.4570 0.9395 0.0000
vt 0.2285 0.9395 0.0000
vt 0.2285 0.9219 0.0000
vt 0.0645 0.2910 0.0000
vt 0.0801 0.2539 0.0000
vt 0.1406 0.2539 0.0000
vt 0.1563 0.2910 0.0000
vt 0.0879 0.1699 0.0000
vt 0.0879 0.1250 0.0000
vt 0.9980 0.9961 0.0000
vt 0.9629 0.9961 0.0000
vt 0.0430 0.8086 0.0000
vt 0.1582 0.8086 0.0000
vt 0.1582 0.9336 0.0000
vt 0.0430 0.9336 0.0000
vt 0.4965 0.9975 0.0000
vt 0.3459 0.9975 0.0000
vt 0.3580 0.9819 0.0000
vt 0.4850 0.9819 0.0000
vt 0.1348 0.1836 0.0000
vt 0.1426 0.1895 0.0000
vt 0.1426 0.1016 0.0000
vt 0.1348 0.1094 0.0000
vt 0.0057 0.7683 0.0000
vt 0.0057 0.9622 0.0000
vt 0.0151 0.9482 0.0000
vt 0.0151 0.7795 0.0000
vt 0.0820 0.1758 0.0000
vt 0.0820 0.1211 0.0000
vt 0.9980 0.7441 0.0000
vt 0.9629 0.7441 0.0000
vt 0.0020 0.4707 0.0000
vt 0.0020 0.2324 0.0000
vt 0.0675 0.2461 0.0000
vt 0.0672 0.4355 0.0000
vt 0.0925 0.2324 0.0000
vt 0.4570 0.9570 0.0000
vt 0.2285 0.9570 0.0000
vt 0.0664 0.0879 0.0000
vt 0.1406 0.0879 0.0000
vt 0.1406 0.0176 0.0000
vt 0.0664 0.0176 0.0000
vt 0.2285 0.9766 0.0000
vt 0.4570 0.9766 0.0000
vt 0.0494 0.9167 0.0000
vt 0.0460 0.4707 0.0000
# 92 texture coords

g Object001
s off
f -60/-92/-18 -59/-91/-18 -58/-90/-18 -57/-89/-18 
f -56/-88/-17 -55/-87/-17 -54/-86/-17 -53/-85/-17 
f -52/-84/-16 -51/-83/-16 -50/-82/-16 -49/-81/-16 
f -48/-80/-15 -47/-79/-15 -46/-78/-15 -45/-77/-15 
f -51/-83/-14 -44/-76/-14 -50/-82/-14 
f -43/-75/-15 -59/-91/-15 -60/-92/-15 -42/-74/-15 
f -41/-73/-15 -53/-72/-15 -54/-71/-15 -40/-70/-15 
f -39/-69/-13 -38/-68/-13 -37/-67/-13 -36/-66/-13 
f -35/-65/-13 -34/-64/-13 -33/-63/-13 -32/-62/-13 
f -31/-61/-13 -30/-60/-13 -29/-59/-13 -28/-58/-13 
f -27/-57/-13 -57/-89/-13 -58/-90/-13 -26/-56/-13 
f -25/-55/-13 -55/-54/-13 -56/-53/-13 -24/-52/-13 
f -23/-51/-12 -22/-50/-12 -21/-49/-12 -20/-48/-12 
f -19/-47/-11 -18/-46/-11 -22/-45/-11 -23/-44/-11 
f -17/-43/-10 -16/-42/-10 -18/-41/-10 -19/-40/-10 
f -15/-39/-18 -14/-38/-18 -37/-67/-18 -38/-68/-18 
f -55/-87/-12 -25/-37/-12 -40/-36/-12 -54/-86/-12 
f -42/-35/-12 -60/-34/-12 -57/-33/-12 -27/-32/-12 
f -13/-31/-9 -12/-30/-9 -51/-29/-9 -52/-28/-9 
f -46/-78/-8 -47/-79/-8 -29/-59/-8 -30/-60/-8 
f -32/-62/-8 -33/-63/-8 -11/-27/-8 -10/-26/-8 
f -9/-25/-12 -8/-24/-12 -34/-64/-12 -35/-65/-12 
f -7/-23/-7 -6/-22/-7 -49/-21/-7 -50/-20/-7 
f -11/-27/-17 -39/-69/-17 -36/-66/-17 -8/-24/-17 
f -33/-63/-18 -5/-19/-18 -39/-69/-18 -11/-27/-18 
f -34/-64/-17 -4/-18/-17 -5/-19/-17 -33/-63/-17 
f -5/-19/-12 -15/-39/-12 -38/-68/-12 -39/-69/-12 
f -14/-38/-8 -4/-18/-8 -36/-66/-8 -37/-67/-8 
f -24/-17/-6 -56/-88/-6 -53/-85/-6 -41/-16/-6 
f -6/-15/-5 -7/-14/-5 -12/-13/-5 -13/-12/-5 
f -7/-14/-5 -3/-11/-5 -12/-13/-5 
f -16/-10/-5 -21/-9/-5 -22/-45/-5 -18/-46/-5 
f -47/-79/-5 -48/-80/-5 -28/-58/-5 -29/-59/-5 
f -45/-77/-18 -46/-78/-18 -30/-60/-18 -31/-61/-18 
f -26/-8/-8 -45/-77/-8 -31/-61/-8 -43/-7/-8 
f -43/-7/-8 -31/-61/-8 -28/-58/-8 -59/-6/-8 
f -59/-6/-8 -28/-58/-8 -48/-80/-8 -58/-5/-8 
f -58/-5/-8 -48/-80/-8 -45/-77/-8 -26/-8/-8 
f -8/-24/-18 -36/-66/-18 -4/-18/-18 -34/-64/-18 
f -10/-26/-15 -11/-27/-15 -8/-24/-15 -9/-25/-15 
f -4/-18/-15 -14/-38/-15 -15/-39/-15 -5/-19/-15 
f -20/-4/-4 -21/-9/-4 -16/-10/-4 -17/-3/-4 
f -49/-81/-3 -6/-22/-3 -2/-2/-3 -1/-81/-3 
f -2/-1/-2 -6/-15/-2 -13/-12/-2 
f -52/-84/-1 -49/-81/-1 -1/-81/-1 
# 41 polygons - 4 triangles

