# This file uses centimeters as units for non-parametric coordinates.

mtllib suelo.mtl
g cajasJuliyo2:default1
v 0.624622 -0.104178 3.623009
v -1.121178 -0.104178 -3.070991
v 0.624622 -0.104178 -3.070991
v -1.121178 -0.104178 3.623009
v 0.624622 1.432622 3.623009
v -1.121178 1.432622 -3.070991
v -1.121178 1.432622 3.623009
v 0.624622 1.432622 -3.070991
vt 0.000500 0.000500
vt 0.138600 0.398800
vt 0.000500 0.398800
vt 0.138600 0.000500
vt 0.138600 0.400200
vt 0.000500 0.798400
vt 0.000500 0.400200
vt 0.138600 0.798400
vt 0.629200 0.000500
vt 0.507600 0.398800
vt 0.507600 0.000500
vt 0.629200 0.398800
vt 0.000500 0.938000
vt 0.122100 0.799800
vt 0.122100 0.938000
vt 0.000500 0.799800
vt 0.507600 0.798400
vt 0.629200 0.400200
vt 0.629200 0.798400
vt 0.507600 0.400200
vt 0.629200 0.799800
vt 0.507600 0.938000
vt 0.507600 0.799800
vt 0.629200 0.938000
vn 0.666667 -0.666667 0.333333
vn -0.666667 -0.666667 -0.333333
vn 0.408248 -0.408248 -0.816497
vn 0.666667 -0.666667 0.333333
vn -0.408248 -0.408248 0.816497
vn -0.666667 -0.666667 -0.333333
vn 0.333333 0.666667 0.666667
vn -0.333333 0.666667 -0.666667
vn -0.816497 0.408248 0.408248
vn 0.333333 0.666667 0.666667
vn 0.816497 0.408248 -0.408248
vn -0.333333 0.666667 -0.666667
vn -0.816497 0.408248 0.408248
vn -0.666667 -0.666667 -0.333333
vn -0.408248 -0.408248 0.816497
vn -0.816497 0.408248 0.408248
vn -0.333333 0.666667 -0.666667
vn -0.666667 -0.666667 -0.333333
vn 0.333333 0.666667 0.666667
vn -0.408248 -0.408248 0.816497
vn 0.666667 -0.666667 0.333333
vn 0.333333 0.666667 0.666667
vn -0.816497 0.408248 0.408248
vn -0.408248 -0.408248 0.816497
vn 0.816497 0.408248 -0.408248
vn 0.666667 -0.666667 0.333333
vn 0.408248 -0.408248 -0.816497
vn 0.816497 0.408248 -0.408248
vn 0.333333 0.666667 0.666667
vn 0.666667 -0.666667 0.333333
vn -0.333333 0.666667 -0.666667
vn 0.408248 -0.408248 -0.816497
vn -0.666667 -0.666667 -0.333333
vn -0.333333 0.666667 -0.666667
vn 0.816497 0.408248 -0.408248
vn 0.408248 -0.408248 -0.816497
s off
g cajasJuliyo2:Box_3 cajasJuliyo2:polySurface4 cajasJuliyo2:polySurface1
usemtl blinn1SG
f 1/1/1 2/2/2 3/3/3
f 1/1/4 4/4/5 2/2/6
f 5/5/7 6/6/8 7/7/9
f 5/5/10 8/8/11 6/6/12
f 7/9/13 2/10/14 4/11/15
f 7/9/16 6/12/17 2/10/18
f 5/13/19 4/14/20 1/15/21
f 5/13/22 7/16/23 4/14/24
f 8/17/25 1/18/26 3/19/27
f 8/17/28 5/20/29 1/18/30
f 6/21/31 3/22/32 2/23/33
f 6/21/34 8/24/35 3/22/36
