# 3ds Max Wavefront OBJ Exporter v0.97b - (c)2007 guruware
# File Created: 10.03.2017 21:16:53

mtllib cubo.mtl

#
# object default
#

v  1.0000 -1.0000 1.0000
v  -1.0000 -1.0000 1.0000
v  -1.0000 -1.0000 -1.0000
v  1.0000 -1.0000 -1.0000
v  -1.0000 1.0000 -1.0000
v  -1.0000 1.0000 1.0000
v  1.0000 1.0000 1.0000
v  1.0000 1.0000 -1.0000
# 8 vertices

vn 0.0000 -1.0000 -0.0000
vn 0.0000 1.0000 -0.0000
vn 1.0000 0.0000 -0.0000
vn 0.0000 0.0000 1.0000
vn -1.0000 0.0000 -0.0000
vn 0.0000 0.0000 -1.0000
# 6 vertex normals

vt 0.6664 0.6656 0.0000
vt 0.3340 0.6656 0.0000
vt 0.3340 0.3332 0.0000
vt 0.6664 0.3332 0.0000
vt 0.3328 0.0005 0.0000
vt 0.3328 0.3328 0.0000
vt 0.0005 0.3328 0.0000
vt 0.0005 0.0005 0.0000
vt 0.0005 0.6664 0.0000
vt 0.0005 0.3340 0.0000
vt 0.3328 0.3340 0.0000
vt 0.3328 0.6664 0.0000
vt 0.6664 0.3328 0.0000
vt 0.3340 0.3328 0.0000
vt 0.3340 0.0005 0.0000
vt 0.6664 0.0005 0.0000
vt 0.9991 0.3328 0.0000
vt 0.6668 0.3328 0.0000
vt 0.6668 0.0005 0.0000
vt 0.9991 0.0005 0.0000
vt 0.0005 0.6672 0.0000
vt 0.3328 0.6672 0.0000
vt 0.3328 0.9995 0.0000
vt 0.0005 0.9995 0.0000
# 24 texture coords

g default
usemtl Material__26
s off
f 1/1/1 2/2/1 3/3/1 4/4/1 
f 5/5/2 6/6/2 7/7/2 8/8/2 
f 8/9/3 7/10/3 1/11/3 4/12/3 
f 7/13/4 6/14/4 2/15/4 1/16/4 
f 6/17/5 5/18/5 3/19/5 2/20/5 
f 4/21/6 3/22/6 5/23/6 8/24/6 
# 6 polygons

