# 3ds Max Wavefront OBJ Exporter v0.97b - (c)2007 guruware
# File Created: 20.02.2017 22:17:43

mtllib testHull.mtl

#
# object Box006
#

v  -128.0000 0.0000 175.4042
v  -128.0000 0.0000 -175.4042
v  128.0000 0.0000 -175.4042
v  128.0000 0.0000 175.4042
v  -128.0000 40.0000 175.4042
v  128.0000 40.0000 175.4042
v  128.0000 40.0000 -175.4042
v  -128.0000 40.0000 -175.4042
v  -125.4400 117.3139 618.4918
v  -128.0000 -0.0000 175.4042
v  128.0000 -0.0000 175.4042
v  128.0000 117.3139 618.4918
v  -125.4400 155.9509 608.1390
v  128.0000 155.9509 608.1390
v  -125.4400 40.0000 175.4042
# 15 vertices

vn 0.0000 -1.0000 -0.0000
vn 0.0000 1.0000 -0.0000
vn 1.0000 0.0000 -0.0000
vn 0.0000 0.0000 -1.0000
vn -1.0000 0.0000 -0.0000
vn 0.0000 -0.9667 0.2559
vn 0.0000 0.9659 -0.2588
vn 0.0000 0.2588 0.9659
vn -0.9981 0.0597 -0.0156
vn -1.0000 0.0014 0.0054
vn -1.0000 0.0048 0.0042
vn -0.9978 0.0639 -0.0171
# 12 vertex normals

vt 1.0000 0.0000 0.0000
vt 1.0000 1.0000 0.0000
vt 0.0000 1.0000 0.0000
vt 0.0000 0.0000 0.0000
# 4 texture coords

g Box006
usemtl wire_088177027
s 2
f 1/1/1 2/2/1 3/3/1 4/4/1 
s 4
f 5/4/2 6/1/2 7/2/2 8/3/2 
s 16
f 4/4/3 3/1/3 7/2/3 6/3/3 
s 32
f 3/4/4 2/1/4 8/2/4 7/3/4 
s 64
f 2/4/5 1/1/5 5/2/5 8/3/5 
s 2
f 9/1/6 10/2/6 11/3/6 12/4/6 
s 4
f 13/4/7 14/1/7 6/2/7 15/3/7 
s 8
f 9/4/8 12/1/8 14/2/8 13/3/8 
s 16
f 12/4/3 11/1/3 6/2/3 14/3/3 
s 64
f 10/4/9 9/1/10 13/2/11 15/3/12 
# 10 polygons

