# 3ds Max Wavefront OBJ Exporter v0.97b - (c)2007 guruware
# File Created: 19.01.2017 13:05:39

mtllib billboard.mtl

#
# object Box001
#

v  1.3509 0.7801 -0.0168
v  1.3509 -0.7801 -0.0168
v  -1.3513 -0.7801 -0.0156
v  -1.3513 0.7801 -0.0156
v  1.3513 0.7801 0.0156
v  -1.3509 0.7801 0.0168
v  -1.3509 -0.7801 0.0168
v  1.3513 -0.7801 0.0156
# 8 vertices

vn -0.0005 0.0000 -1.0000
vn 0.0005 -0.0000 1.0000
vn 0.0000 1.0000 0.0000
vn -0.9999 0.0000 0.0137
vn -0.0000 -1.0000 -0.0000
vn 0.9999 -0.0000 -0.0137
# 6 vertex normals

vt 0.5000 0.3161 0.0000
vt 0.5000 0.0650 0.0000
vt 0.9350 0.0650 0.0000
vt 0.9350 0.3161 0.0000
vt 0.4370 0.3161 0.0000
vt 0.0020 0.3161 0.0000
vt 0.0020 0.0650 0.0000
vt 0.4370 0.0650 0.0000
vt 0.9350 0.3791 0.0000
vt 0.5000 0.3791 0.0000
vt 0.9980 0.0650 0.0000
vt 0.9980 0.3161 0.0000
vt 0.5000 0.0020 0.0000
vt 0.9350 0.0020 0.0000
# 14 texture coords

g Box001
usemtl Material__26
s 2
f 1/1/1 2/2/1 3/3/1 
f 3/3/1 4/4/1 1/1/1 
s 4
f 5/5/2 6/6/2 7/7/2 
f 7/7/2 8/8/2 5/5/2 
s 8
f 1/1/3 4/4/3 6/9/3 
f 6/9/3 5/10/3 1/1/3 
s 16
f 4/4/4 3/3/4 7/11/4 
f 7/11/4 6/12/4 4/4/4 
s 32
f 3/3/5 2/2/5 8/13/5 
f 8/13/5 7/14/5 3/3/5 
s 64
f 2/2/6 1/1/6 5/5/6 
f 5/5/6 8/8/6 2/2/6 
# 12 faces

