# 3ds Max Wavefront OBJ Exporter v0.97b - (c)2007 guruware
# File Created: 11.03.2017 01:37:30

mtllib mid17.mtl

#
# object mid17
#

v  -0.0647 3.2916 3.6113
v  20.6811 3.2916 -3.6113
v  -0.0647 3.2916 -3.6113
v  20.6811 3.2916 3.6113
v  20.6811 -3.2916 -3.6113
v  -0.0647 -3.2916 -3.6113
v  -20.6811 3.2916 3.6113
v  0.1976 3.2916 -3.6113
v  -20.6811 3.2916 -3.6113
v  0.1976 3.2916 3.6113
v  0.1976 -3.2916 -3.6113
v  -20.6811 -3.2916 -3.6113
# 12 vertices

vn 0.0000 1.0000 -0.0000
vn 0.0000 0.0000 -1.0000
# 2 vertex normals

vt 0.5287 0.4151 0.0000
vt 0.5973 0.2182 0.0000
vt 0.5973 0.4151 0.0000
vt 0.5287 0.2182 0.0000
vt 0.5229 0.2625 0.0000
vt 0.4604 0.4593 0.0000
vt 0.4604 0.2625 0.0000
vt 0.5229 0.4593 0.0000
vt 0.6714 0.4164 0.0000
vt 0.7399 0.2182 0.0000
vt 0.7399 0.4164 0.0000
vt 0.6714 0.2182 0.0000
vt 0.6656 0.2182 0.0000
vt 0.6031 0.4164 0.0000
vt 0.6031 0.2182 0.0000
vt 0.6656 0.4164 0.0000
# 16 texture coords

g mid17
usemtl blinn1SG
s off
f 1/1/1 2/2/1 3/3/1 
f 1/1/1 4/4/1 2/2/1 
f 5/5/2 3/6/2 2/7/2 
f 5/5/2 6/8/2 3/6/2 
f 7/9/1 8/10/1 9/11/1 
f 7/9/1 10/12/1 8/10/1 
f 11/13/2 9/14/2 8/15/2 
f 11/13/2 12/16/2 9/14/2 
# 0 polygons - 8 triangles

