# 3ds Max Wavefront OBJ Exporter v0.97b - (c)2007 guruware
# File Created: 11.03.2017 01:37:30

mtllib mid12.mtl

#
# object mid12
#

v  -21.6906 -8.3379 -1.1143
v  -21.6906 8.4179 3.8481
v  -21.6906 8.4179 -1.1143
v  -21.6906 -8.3379 3.8481
v  -19.6906 8.4179 -1.1143
v  -19.6906 8.4179 3.8481
v  -21.6718 8.3379 -1.0731
v  -15.4771 8.3379 -3.0731
v  -21.6718 8.3379 -3.0731
v  -14.1147 8.3379 -3.0731
v  -3.0879 8.3379 -3.0731
v  -1.7235 8.3379 -3.0731
v  9.3013 8.3379 -3.0731
v  10.7731 8.3379 -3.0731
v  21.6906 8.3379 -3.0731
v  21.6906 8.3379 -1.0731
v  -15.4771 -8.4179 -3.0731
v  -21.6718 -8.4179 -3.0731
v  -15.4771 -8.4179 -3.8481
v  -15.4771 3.9247 -3.8481
v  -15.4771 8.3379 -3.2969
v  -3.0879 -8.4179 -3.0731
v  -14.1147 -8.4179 -3.0731
v  -1.7235 3.9247 -3.8481
v  -1.7235 -8.4179 -3.0731
v  -1.7235 -8.4179 -3.8481
v  -1.7235 8.3379 -3.2969
v  9.3013 -8.4179 -3.0731
v  9.3013 -8.4179 -3.8481
v  9.3013 3.9247 -3.8481
v  9.3013 8.3379 -3.2969
v  21.6906 -8.4179 -3.0731
v  10.7731 -8.4179 -3.0731
v  10.7731 3.9247 -3.8481
v  10.7731 -8.4179 -3.8481
v  10.7731 8.3379 -3.2969
v  -14.1147 3.9247 -3.8481
v  -14.1147 -8.4179 -3.8481
v  -14.1147 8.3379 -3.2969
v  -3.0879 -8.4179 -3.8481
v  -3.0879 3.9247 -3.8481
v  -3.0879 8.3379 -3.2969
v  -21.6718 -8.4179 -1.0731
# 43 vertices

vn -1.0000 0.0000 -0.0000
vn 0.0000 1.0000 -0.0000
vn 0.0000 0.0000 -1.0000
vn 1.0000 0.0000 -0.0000
vn 0.0000 0.0621 -0.9981
vn 0.0000 0.1239 -0.9923
# 6 vertex normals

vt 0.8998 0.5931 0.0000
vt 0.9469 0.7521 0.0000
vt 0.8998 0.7521 0.0000
vt 0.9469 0.5931 0.0000
vt 0.4699 0.8497 0.0000
vt 0.4889 0.8968 0.0000
vt 0.4699 0.8968 0.0000
vt 0.4889 0.8497 0.0000
vt 0.0019 0.4135 0.0000
vt 0.0209 0.3547 0.0000
vt 0.0209 0.4135 0.0000
vt 0.0209 0.3418 0.0000
vt 0.0209 0.2371 0.0000
vt 0.0209 0.2242 0.0000
vt 0.0209 0.1196 0.0000
vt 0.0209 0.1056 0.0000
vt 0.0209 0.0020 0.0000
vt 0.0019 0.0020 0.0000
vt 0.5157 0.6839 0.0000
vt 0.4569 0.5249 0.0000
vt 0.5157 0.5249 0.0000
vt 0.4569 0.6839 0.0000
vt 0.3848 0.6839 0.0000
vt 0.3774 0.5249 0.0000
vt 0.3848 0.5249 0.0000
vt 0.3774 0.6421 0.0000
vt 0.3827 0.6839 0.0000
vt 0.6466 0.5792 0.0000
vt 0.5420 0.4202 0.0000
vt 0.6466 0.4202 0.0000
vt 0.5420 0.5792 0.0000
vt 0.3700 0.6421 0.0000
vt 0.3626 0.5249 0.0000
vt 0.3700 0.5249 0.0000
vt 0.3626 0.6839 0.0000
vt 0.3648 0.6839 0.0000
vt 0.7842 0.4303 0.0000
vt 0.8889 0.5893 0.0000
vt 0.7842 0.5893 0.0000
vt 0.8889 0.4303 0.0000
vt 0.4144 0.6839 0.0000
vt 0.4070 0.5249 0.0000
vt 0.4144 0.5249 0.0000
vt 0.4070 0.6421 0.0000
vt 0.4123 0.6839 0.0000
vt 0.6529 0.4202 0.0000
vt 0.7566 0.5792 0.0000
vt 0.6529 0.5792 0.0000
vt 0.7566 0.4202 0.0000
vt 0.4292 0.6421 0.0000
vt 0.4218 0.5249 0.0000
vt 0.4292 0.5249 0.0000
vt 0.4218 0.6839 0.0000
vt 0.4239 0.6839 0.0000
vt 0.3996 0.6421 0.0000
vt 0.3922 0.5249 0.0000
vt 0.3996 0.5249 0.0000
vt 0.3922 0.6839 0.0000
vt 0.3944 0.6839 0.0000
vt 0.3552 0.6839 0.0000
vt 0.3479 0.5249 0.0000
vt 0.3552 0.5249 0.0000
vt 0.3479 0.6421 0.0000
vt 0.3531 0.6839 0.0000
vt 0.8952 0.4303 0.0000
vt 0.9142 0.5893 0.0000
vt 0.8952 0.5893 0.0000
vt 0.9142 0.4303 0.0000
vt 0.5586 0.8627 0.0000
vt 0.5608 0.8497 0.0000
vt 0.5608 0.8627 0.0000
vt 0.5586 0.8497 0.0000
vt 0.5346 0.6221 0.0000
vt 0.5217 0.5050 0.0000
vt 0.5346 0.5050 0.0000
vt 0.5217 0.6221 0.0000
vt 0.5346 0.4631 0.0000
vt 0.5217 0.4631 0.0000
vt 0.5346 0.8627 0.0000
vt 0.5367 0.8497 0.0000
vt 0.5367 0.8627 0.0000
vt 0.5346 0.8497 0.0000
vt 0.4496 0.6839 0.0000
vt 0.4366 0.5668 0.0000
vt 0.4496 0.5668 0.0000
vt 0.4366 0.6839 0.0000
vt 0.4496 0.5249 0.0000
vt 0.4366 0.5249 0.0000
vt 0.5106 0.8637 0.0000
vt 0.5127 0.8497 0.0000
vt 0.5127 0.8637 0.0000
vt 0.5106 0.8497 0.0000
vt 0.7639 0.4202 0.0000
vt 0.7779 0.4620 0.0000
vt 0.7639 0.4620 0.0000
vt 0.7779 0.4202 0.0000
vt 0.7639 0.5792 0.0000
vt 0.7779 0.5792 0.0000
# 98 texture coords

g mid12
usemtl blinn1SG
s off
f 1/1/1 2/2/1 3/3/1 
f 1/1/1 4/4/1 2/2/1 
f 2/5/2 5/6/2 3/7/2 
f 2/5/2 6/8/2 5/6/2 
f 7/9/2 8/10/2 9/11/2 
f 8/10/2 7/9/2 10/12/2 
f 10/12/2 7/9/2 11/13/2 
f 11/13/2 7/9/2 12/14/2 
f 12/14/2 7/9/2 13/15/2 
f 13/15/2 7/9/2 14/16/2 
f 14/16/2 7/9/2 15/17/2 
f 15/17/2 7/9/2 16/18/2 
f 17/19/3 9/20/3 8/21/3 
f 17/19/3 18/22/3 9/20/3 
f 8/23/1 19/24/1 17/25/1 
f 19/24/1 8/23/1 20/26/1 
f 20/26/1 8/23/1 21/27/1 
f 22/28/3 10/29/3 11/30/3 
f 22/28/3 23/31/3 10/29/3 
f 24/32/4 25/33/4 26/34/4 
f 25/33/4 24/32/4 12/35/4 
f 12/35/4 24/32/4 27/36/4 
f 12/37/3 28/38/3 25/39/3 
f 12/37/3 13/40/3 28/38/3 
f 13/41/1 29/42/1 28/43/1 
f 29/42/1 13/41/1 30/44/1 
f 30/44/1 13/41/1 31/45/1 
f 14/46/3 32/47/3 33/48/3 
f 14/46/3 15/49/3 32/47/3 
f 34/50/4 33/51/4 35/52/4 
f 33/51/4 34/50/4 14/53/4 
f 14/53/4 34/50/4 36/54/4 
f 37/55/4 23/56/4 38/57/4 
f 23/56/4 37/55/4 10/58/4 
f 10/58/4 37/55/4 39/59/4 
f 11/60/1 40/61/1 22/62/1 
f 40/61/1 11/60/1 41/63/1 
f 41/63/1 11/60/1 42/64/1 
f 18/65/1 7/66/1 9/67/1 
f 18/65/1 43/68/1 7/66/1 
f 8/69/2 39/70/2 21/71/2 
f 8/69/2 10/72/2 39/70/2 
f 38/73/3 20/74/5 37/75/5 
f 38/73/3 19/76/3 20/74/5 
f 20/74/5 39/77/6 37/75/5 
f 20/74/5 21/78/6 39/77/6 
f 11/79/2 27/80/2 42/81/2 
f 11/79/2 12/82/2 27/80/2 
f 26/83/3 41/84/5 24/85/5 
f 26/83/3 40/86/3 41/84/5 
f 41/84/5 27/87/6 24/85/5 
f 41/84/5 42/88/6 27/87/6 
f 13/89/2 36/90/2 31/91/2 
f 13/89/2 14/92/2 36/90/2 
f 31/93/6 34/94/5 30/95/5 
f 31/93/6 36/96/6 34/94/5 
f 34/94/5 29/97/3 30/95/5 
f 34/94/5 35/98/3 29/97/3 
# 0 polygons - 58 triangles

