# 3ds Max Wavefront OBJ Exporter v0.97b - (c)2007 guruware
# File Created: 11.03.2017 01:37:30

mtllib mid8.mtl

#
# object mid8
#

v  -1.6002 2.9771 7.3120
v  1.6002 -2.9771 7.3120
v  1.6002 2.9771 7.3120
v  -1.6002 -2.9771 7.3120
v  1.6002 2.9771 -7.3120
v  -1.6002 2.9771 -7.3120
v  -1.6002 -2.9771 -7.3120
# 7 vertices

vn 0.0000 0.0000 1.0000
vn 0.0000 1.0000 -0.0000
vn -1.0000 0.0000 -0.0000
# 3 vertex normals

vt 0.3497 0.9236 0.0000
vt 0.3801 0.8671 0.0000
vt 0.3801 0.9236 0.0000
vt 0.3497 0.8671 0.0000
vt 0.3352 0.7245 0.0000
vt 0.3655 0.8633 0.0000
vt 0.3352 0.8633 0.0000
vt 0.3655 0.7245 0.0000
vt 0.3293 0.8773 0.0000
vt 0.2728 0.7386 0.0000
vt 0.3293 0.7386 0.0000
vt 0.2728 0.8773 0.0000
# 12 texture coords

g mid8
usemtl blinn1SG
s off
f 1/1/1 2/2/1 3/3/1 
f 1/1/1 4/4/1 2/2/1 
f 1/5/2 5/6/2 6/7/2 
f 1/5/2 3/8/2 5/6/2 
f 6/9/3 4/10/3 1/11/3 
f 6/9/3 7/12/3 4/10/3 
# 0 polygons - 6 triangles

