# 3ds Max Wavefront OBJ Exporter v0.97b - (c)2007 guruware
# File Created: 12.01.2017 00:51:05

mtllib cartel.mtl

#
# object Cartelon
#

v  7.9762 33.6581 -1.3179
v  7.9762 33.6581 -2.3767
v  6.7132 33.6581 -2.3767
v  6.7132 33.6581 -1.3179
v  7.9762 -0.1330 11.1471
v  7.9762 -0.1330 10.0882
v  6.7132 -0.1330 10.0882
v  6.7132 -0.1330 11.1471
v  -8.1499 33.6581 -1.3176
v  -8.1499 33.6581 -2.3765
v  -9.4129 33.6581 -2.3765
v  -9.4129 33.6581 -1.3176
v  -8.1499 -0.1330 11.1471
v  -8.1499 -0.1330 10.0882
v  -9.4129 -0.1330 10.0882
v  -9.4129 -0.1330 11.1471
v  -9.2600 33.6581 -1.5377
v  -9.2600 33.6581 -0.4788
v  -7.9970 33.6581 -0.4788
v  -7.9970 33.6581 -1.5377
v  -9.2600 -0.1330 -14.0026
v  -9.2600 -0.1330 -12.9438
v  -7.9970 -0.1330 -12.9438
v  -7.9970 -0.1330 -14.0026
v  6.8661 33.6581 -1.5380
v  6.8661 33.6581 -0.4791
v  8.1290 33.6581 -0.4791
v  8.1290 33.6581 -1.5380
v  6.8661 -0.1330 -14.0026
v  6.8661 -0.1330 -12.9438
v  8.1290 -0.1330 -12.9438
v  8.1290 -0.1330 -14.0027
v  9.6196 4.3260 -12.0351
v  9.6196 34.0447 -1.3554
v  -11.0089 34.0447 -1.3554
v  -11.0089 4.3260 -12.0351
v  9.6196 4.6970 -12.9235
v  -11.0089 4.6970 -12.9235
v  -11.0089 34.4157 -2.2437
v  9.6196 34.4157 -2.2437
v  -10.9034 4.3260 9.1796
v  -10.9034 34.0447 -1.5002
v  9.7251 34.0447 -1.5002
v  9.7251 4.3260 9.1796
v  -10.9034 4.6970 10.0679
v  9.7251 4.6970 10.0679
v  9.7251 34.4157 -0.6118
v  -10.9034 34.4156 -0.6118
# 48 vertices

vn 0.0000 1.0000 -0.0000
vn 1.0000 -0.0000 -0.0000
vn 0.0000 -0.3461 -0.9382
vn -1.0000 0.0000 -0.0000
vn -1.0000 -0.0000 -0.0000
vn 0.0000 0.3461 0.9382
vn 0.0000 1.0000 0.0000
vn 1.0000 0.0000 0.0000
vn -0.0000 -0.3461 -0.9382
vn -1.0000 0.0000 0.0000
vn -0.0000 1.0000 -0.0000
vn 0.0000 -0.3461 0.9382
vn 1.0000 -0.0000 0.0000
vn 0.0000 0.3461 -0.9382
vn -0.0000 0.3461 -0.9382
vn 0.0000 -0.3382 0.9411
vn -0.0000 0.3382 -0.9411
vn -0.0000 -0.9228 -0.3853
vn -0.0000 0.9228 0.3853
vn 0.0000 0.9228 0.3854
vn 0.0000 -0.3382 -0.9411
vn -0.0000 0.3382 0.9411
vn -0.0000 -0.9228 0.3853
vn -0.0000 0.9228 -0.3853
# 24 vertex normals

vt 0.0568 0.4978 0.0000
vt 0.0568 0.4823 0.0000
vt 0.0827 0.4823 0.0000
vt 0.0827 0.4978 0.0000
vt 0.0568 0.9980 0.0000
vt 0.0423 0.9923 0.0000
vt 0.0423 0.4921 0.0000
vt 0.0165 0.9923 0.0000
vt 0.0165 0.4921 0.0000
vt 0.0020 0.9980 0.0000
vt 0.0020 0.4978 0.0000
vt 0.0827 0.9980 0.0000
vt 0.1629 0.9825 0.0000
vt 0.1629 0.9980 0.0000
vt 0.1370 0.9980 0.0000
vt 0.1370 0.9825 0.0000
vt 0.1629 0.4823 0.0000
vt 0.1773 0.4880 0.0000
vt 0.1773 0.9881 0.0000
vt 0.0967 0.4880 0.0000
vt 0.1225 0.4880 0.0000
vt 0.1225 0.9881 0.0000
vt 0.0967 0.9881 0.0000
vt 0.1370 0.4823 0.0000
vt 0.8612 0.0159 0.0000
vt 0.8612 0.4543 0.0000
vt 0.4386 0.4543 0.0000
vt 0.4386 0.0159 0.0000
vt 0.0020 0.0160 0.0000
vt 0.4246 0.0160 0.0000
vt 0.4246 0.4544 0.0000
vt 0.0020 0.4544 0.0000
vt 0.0020 0.0020 0.0000
vt 0.4246 0.0020 0.0000
vt 0.8612 0.4683 0.0000
vt 0.4386 0.4683 0.0000
vt 0.8752 0.0160 0.0000
vt 0.8752 0.4544 0.0000
# 38 texture coords

g Cartelon
usemtl Material__301
s 4
f 1/1/1 2/2/1 3/3/1 
f 3/3/1 4/4/1 1/1/1 
s 8
f 5/5/2 6/6/2 2/7/2 
f 2/7/2 1/1/2 5/5/2 
s 16
f 6/6/3 7/8/3 3/9/3 
f 3/9/3 2/7/3 6/6/3 
s 32
f 7/8/4 8/10/4 4/11/5 
f 4/11/5 3/9/5 7/8/4 
s 64
f 8/12/6 5/5/6 1/1/6 
f 1/1/6 4/4/6 8/12/6 
s 4
f 9/1/7 10/2/7 11/3/7 
f 11/3/7 12/4/7 9/1/7 
s 8
f 13/5/2 14/6/2 10/7/8 
f 10/7/8 9/1/8 13/5/2 
s 16
f 14/6/9 15/8/9 11/9/9 
f 11/9/9 10/7/9 14/6/9 
s 32
f 15/8/10 16/10/10 12/11/5 
f 12/11/5 11/9/5 15/8/10 
s 64
f 16/12/6 13/5/6 9/1/6 
f 9/1/6 12/4/6 16/12/6 
s 4
f 17/13/11 18/14/11 19/15/11 
f 19/15/11 20/16/1 17/13/11 
s 8
f 21/17/4 22/18/4 18/19/4 
f 18/19/4 17/13/4 21/17/4 
s 16
f 22/20/12 23/21/12 19/22/12 
f 19/22/12 18/23/12 22/20/12 
s 32
f 23/21/13 24/24/13 20/16/13 
f 20/16/13 19/22/13 23/21/13 
s 64
f 24/24/14 21/17/14 17/13/14 
f 17/13/14 20/16/14 24/24/14 
s 4
f 25/13/11 26/14/11 27/15/11 
f 27/15/11 28/16/11 25/13/11 
s 8
f 29/17/4 30/18/4 26/19/4 
f 26/19/4 25/13/4 29/17/4 
s 16
f 30/20/12 31/21/12 27/22/12 
f 27/22/12 26/23/12 30/20/12 
s 32
f 31/21/13 32/24/2 28/16/13 
f 28/16/13 27/22/13 31/21/13 
s 64
f 32/24/15 29/17/15 25/13/15 
f 25/13/15 28/16/15 32/24/15 
s 2
f 33/25/16 34/26/16 35/27/16 
f 35/27/16 36/28/16 33/25/16 
s 4
f 37/29/17 38/30/17 39/31/17 
f 39/31/17 40/32/17 37/29/17 
s 8
f 33/33/18 36/34/18 38/30/18 
f 38/30/18 37/29/18 33/33/18 
s 16
f 36/28/10 35/27/10 39/31/10 
f 39/31/10 38/30/10 36/28/10 
s 32
f 35/27/19 34/26/20 40/35/20 
f 40/35/20 39/36/19 35/27/19 
s 64
f 34/26/2 33/25/2 37/37/2 
f 37/37/2 40/38/2 34/26/2 
s 2
f 41/25/21 42/26/21 43/27/21 
f 43/27/21 44/28/21 41/25/21 
s 4
f 45/29/22 46/30/22 47/31/22 
f 47/31/22 48/32/22 45/29/22 
s 8
f 41/33/23 44/34/23 46/30/23 
f 46/30/23 45/29/23 41/33/23 
s 16
f 44/28/13 43/27/13 47/31/13 
f 47/31/13 46/30/13 44/28/13 
s 32
f 43/27/24 42/26/24 48/35/24 
f 48/35/24 47/36/24 43/27/24 
s 64
f 42/26/4 41/25/4 45/37/4 
f 45/37/4 48/38/4 42/26/4 
# 64 faces

