# 3ds Max Wavefront OBJ Exporter v0.97b - (c)2007 guruware
# File Created: 12.03.2017 12:29:35

mtllib a1.mtl

#
# object a1
#

v  15.6665 -6.4180 0.5672
v  15.6665 6.4180 -1.4328
v  15.6664 6.4180 0.5672
v  -8.2766 6.4180 0.5672
v  -8.2766 6.4180 0.8601
v  -8.2766 3.2018 1.4328
v  -8.2766 -6.4180 1.4328
v  -8.2766 -6.4180 0.5672
v  8.2813 -6.4180 0.5957
v  8.2813 6.3473 0.5664
v  8.2813 3.2018 1.4328
v  8.2813 -6.4180 1.4328
v  9.4000 -6.4180 1.4328
v  9.4000 3.2018 1.4328
v  9.4000 6.4180 0.8601
v  9.4000 6.4180 0.5672
v  9.4000 -6.4180 0.5672
v  -9.3999 6.4180 0.8601
v  -9.3999 6.4180 0.5672
v  -9.3999 -6.4180 0.5672
v  -9.3999 -6.4180 1.4328
v  -9.3999 3.2018 1.4328
v  -15.6665 6.4180 0.5672
v  -15.6665 -6.4180 0.5672
v  8.2813 6.4180 0.8601
v  15.6665 -6.4180 -1.4328
# 26 vertices

vn 1.0000 0.0000 -0.0000
vn -0.0008 0.0011 1.0000
vn 0.0000 0.0000 1.0000
vn -1.0000 0.0000 -0.0000
vn 0.0000 -0.0000 1.0000
vn 0.0000 0.1753 0.9845
# 6 vertex normals

vt 0.5635 0.6611 0.0000
vt 0.5901 0.8321 0.0000
vt 0.5635 0.8321 0.0000
vt 0.3139 0.8581 0.0000
vt 0.3100 0.8581 0.0000
vt 0.3023 0.8153 0.0000
vt 0.3023 0.6871 0.0000
vt 0.3139 0.6871 0.0000
vt 0.2805 0.6664 0.0000
vt 0.1095 0.6664 0.0000
vt 0.1095 0.4458 0.0000
vt 0.2795 0.4458 0.0000
vt 0.4310 0.8153 0.0000
vt 0.4310 0.6871 0.0000
vt 0.4459 0.6871 0.0000
vt 0.4459 0.8153 0.0000
vt 0.2905 0.8581 0.0000
vt 0.2828 0.8153 0.0000
vt 0.2828 0.6871 0.0000
vt 0.2944 0.8581 0.0000
vt 0.2944 0.6871 0.0000
vt 0.3257 0.8581 0.0000
vt 0.3218 0.8581 0.0000
vt 0.3218 0.6871 0.0000
vt 0.3333 0.6871 0.0000
vt 0.3333 0.8153 0.0000
vt 0.4248 0.6871 0.0000
vt 0.4248 0.8581 0.0000
vt 0.3413 0.8581 0.0000
vt 0.3413 0.6871 0.0000
vt 0.4524 0.8581 0.0000
vt 0.4524 0.6871 0.0000
vt 0.5359 0.6871 0.0000
vt 0.5359 0.8581 0.0000
vt 0.5570 0.6611 0.0000
vt 0.5570 0.7893 0.0000
vt 0.5420 0.7893 0.0000
vt 0.5420 0.6611 0.0000
vt 0.5570 0.8321 0.0000
vt 0.5420 0.8321 0.0000
vt 0.5970 0.6611 0.0000
vt 0.6082 0.6611 0.0000
vt 0.6082 0.7893 0.0000
vt 0.5966 0.8312 0.0000
vt 0.6005 0.8321 0.0000
vt 0.4459 0.8581 0.0000
vt 0.4310 0.8581 0.0000
vt 0.5901 0.6611 0.0000
# 48 texture coords

g a1
usemtl blinn1SG
s off
f 1/1/1 2/2/1 3/3/1 
f 4/4/1 5/5/1 6/6/1 7/7/1 
f 4/4/1 7/7/1 8/8/1 
f 4/9/2 8/10/2 9/11/2 10/12/2 
f 11/13/3 12/14/3 13/15/3 14/16/3 
f 15/17/1 14/18/1 13/19/1 16/20/1 
f 13/19/1 17/21/1 16/20/1 
f 18/22/4 19/23/4 20/24/4 21/25/4 
f 18/22/4 21/25/4 22/26/4 
f 1/27/5 3/28/5 16/29/5 17/30/5 
f 23/31/5 24/32/5 20/33/5 19/34/5 
f 7/35/3 6/36/3 22/37/3 21/38/3 
f 22/37/6 6/36/6 5/39/6 18/40/6 
f 9/41/4 12/42/4 11/43/4 10/44/4 
f 11/43/4 25/45/4 10/44/4 
f 14/16/6 15/46/6 25/47/6 11/13/6 
f 1/1/1 26/48/1 2/2/1 
# 11 polygons - 6 triangles

