# 3ds Max Wavefront OBJ Exporter v0.97b - (c)2007 guruware
# File Created: 19.05.2017 19:46:45

mtllib bulletCapsula2.mtl

#
# object Capsule001
#

v  0.0000 0.0000 29.5165
v  0.1629 0.0000 29.4684
v  0.1318 0.0957 29.4684
v  0.0503 0.1549 29.4684
v  -0.0503 0.1549 29.4684
v  -0.1318 0.0957 29.4684
v  -0.1629 0.0000 29.4684
v  -0.1318 -0.0957 29.4684
v  -0.0503 -0.1549 29.4684
v  0.0503 -0.1549 29.4684
v  0.1318 -0.0957 29.4684
v  0.3098 0.0000 29.3290
v  0.2506 0.1821 29.3290
v  0.0957 0.2946 29.3290
v  -0.0957 0.2946 29.3290
v  -0.2506 0.1821 29.3290
v  -0.3098 0.0000 29.3290
v  -0.2506 -0.1821 29.3290
v  -0.0957 -0.2946 29.3290
v  0.0957 -0.2946 29.3290
v  0.2506 -0.1821 29.3290
v  0.4264 0.0000 29.1118
v  0.3449 0.2506 29.1118
v  0.1318 0.4055 29.1118
v  -0.1318 0.4055 29.1118
v  -0.3449 0.2506 29.1118
v  -0.4264 0.0000 29.1118
v  -0.3449 -0.2506 29.1118
v  -0.1318 -0.4055 29.1118
v  0.1318 -0.4055 29.1118
v  0.3449 -0.2506 29.1118
v  0.5012 0.0000 28.8381
v  0.4055 0.2946 28.8381
v  0.1549 0.4767 28.8381
v  -0.1549 0.4767 28.8381
v  -0.4055 0.2946 28.8381
v  -0.5012 0.0000 28.8381
v  -0.4055 -0.2946 28.8381
v  -0.1549 -0.4767 28.8381
v  0.1549 -0.4767 28.8381
v  0.4055 -0.2946 28.8381
v  0.5270 0.0000 28.5347
v  0.4264 0.3098 28.5347
v  0.1629 0.5012 28.5347
v  -0.1629 0.5012 28.5347
v  -0.4264 0.3098 28.5347
v  -0.5270 0.0000 28.5347
v  -0.4264 -0.3098 28.5347
v  -0.1629 -0.5012 28.5347
v  0.1629 -0.5012 28.5347
v  0.4264 -0.3098 28.5347
v  0.5270 0.0000 0.9817
v  0.4264 0.3098 0.9817
v  0.1629 0.5012 0.9817
v  -0.1629 0.5012 0.9817
v  -0.4264 0.3098 0.9817
v  -0.5270 0.0000 0.9817
v  -0.4264 -0.3098 0.9817
v  -0.1629 -0.5012 0.9817
v  0.1629 -0.5012 0.9817
v  0.4264 -0.3098 0.9817
v  0.5012 0.0000 0.6784
v  0.4055 0.2946 0.6784
v  0.1549 0.4767 0.6784
v  -0.1549 0.4767 0.6784
v  -0.4055 0.2946 0.6784
v  -0.5012 0.0000 0.6784
v  -0.4055 -0.2946 0.6784
v  -0.1549 -0.4767 0.6784
v  0.1549 -0.4767 0.6784
v  0.4055 -0.2946 0.6784
v  0.4264 0.0000 0.4047
v  0.3449 0.2506 0.4047
v  0.1318 0.4055 0.4047
v  -0.1318 0.4055 0.4047
v  -0.3449 0.2506 0.4047
v  -0.4264 0.0000 0.4047
v  -0.3449 -0.2506 0.4047
v  -0.1318 -0.4055 0.4047
v  0.1318 -0.4055 0.4047
v  0.3449 -0.2506 0.4047
v  0.3098 0.0000 0.1875
v  0.2506 0.1821 0.1875
v  0.0957 0.2946 0.1875
v  -0.0957 0.2946 0.1875
v  -0.2506 0.1821 0.1875
v  -0.3098 0.0000 0.1875
v  -0.2506 -0.1821 0.1875
v  -0.0957 -0.2946 0.1875
v  0.0957 -0.2946 0.1875
v  0.2506 -0.1821 0.1875
v  0.1629 0.0000 0.0481
v  0.1318 0.0957 0.0481
v  0.0503 0.1549 0.0481
v  -0.0503 0.1549 0.0481
v  -0.1318 0.0957 0.0481
v  -0.1629 0.0000 0.0481
v  -0.1318 -0.0957 0.0481
v  -0.0503 -0.1549 0.0481
v  0.0503 -0.1549 0.0481
v  0.1318 -0.0957 0.0481
v  0.0000 0.0000 -0.0000
# 102 vertices

vn 0.0000 0.0000 1.0000
vn 0.3367 0.0000 0.9416
vn 0.2724 0.1979 0.9416
vn 0.1041 0.3202 0.9416
vn -0.1041 0.3202 0.9416
vn -0.2724 0.1979 0.9416
vn -0.3367 0.0000 0.9416
vn -0.2724 -0.1979 0.9416
vn -0.1041 -0.3202 0.9416
vn 0.1041 -0.3202 0.9416
vn 0.2724 -0.1979 0.9416
vn 0.6074 0.0000 0.7944
vn 0.4914 0.3570 0.7944
vn 0.1877 0.5777 0.7944
vn -0.1877 0.5777 0.7944
vn -0.4914 0.3570 0.7944
vn -0.6074 0.0000 0.7944
vn -0.4914 -0.3570 0.7944
vn -0.1877 -0.5777 0.7944
vn 0.1877 -0.5777 0.7944
vn 0.4914 -0.3570 0.7944
vn 0.8192 0.0000 0.5735
vn 0.6627 0.4815 0.5735
vn 0.2531 0.7791 0.5735
vn -0.2531 0.7791 0.5735
vn -0.6627 0.4815 0.5735
vn -0.8192 0.0000 0.5735
vn -0.6627 -0.4815 0.5735
vn -0.2531 -0.7791 0.5735
vn 0.2531 -0.7791 0.5735
vn 0.6627 -0.4815 0.5735
vn 0.9538 0.0000 0.3003
vn 0.7717 0.5607 0.3003
vn 0.2948 0.9072 0.3003
vn -0.2948 0.9072 0.3003
vn -0.7717 0.5607 0.3003
vn -0.9538 0.0000 0.3003
vn -0.7717 -0.5607 0.3003
vn -0.2948 -0.9072 0.3003
vn 0.2948 -0.9072 0.3003
vn 0.7717 -0.5607 0.3003
vn 0.9970 0.0000 0.0773
vn 0.8066 0.5860 0.0773
vn 0.3081 0.9482 0.0773
vn -0.3081 0.9482 0.0773
vn -0.8066 0.5860 0.0773
vn -0.9970 0.0000 0.0773
vn -0.8066 -0.5860 0.0773
vn -0.3081 -0.9482 0.0773
vn 0.3081 -0.9482 0.0773
vn 0.8066 -0.5860 0.0773
vn 0.9970 -0.0000 -0.0773
vn 0.8066 0.5860 -0.0773
vn 0.3081 0.9482 -0.0773
vn -0.3081 0.9482 -0.0773
vn -0.8066 0.5860 -0.0773
vn -0.9970 -0.0000 -0.0773
vn -0.8066 -0.5860 -0.0773
vn -0.3081 -0.9482 -0.0773
vn 0.3081 -0.9482 -0.0773
vn 0.8066 -0.5860 -0.0773
vn 0.9538 -0.0000 -0.3003
vn 0.7717 0.5607 -0.3003
vn 0.2948 0.9072 -0.3003
vn -0.2948 0.9072 -0.3003
vn -0.7717 0.5607 -0.3003
vn -0.9538 -0.0000 -0.3003
vn -0.7717 -0.5607 -0.3003
vn -0.2948 -0.9072 -0.3003
vn 0.2948 -0.9072 -0.3003
vn 0.7717 -0.5607 -0.3003
vn 0.8192 -0.0000 -0.5735
vn 0.6627 0.4815 -0.5735
vn 0.2531 0.7791 -0.5735
vn -0.2531 0.7791 -0.5735
vn -0.6627 0.4815 -0.5735
vn -0.8192 -0.0000 -0.5735
vn -0.6627 -0.4815 -0.5735
vn -0.2531 -0.7791 -0.5735
vn 0.2531 -0.7791 -0.5735
vn 0.6627 -0.4815 -0.5735
vn 0.6074 -0.0000 -0.7944
vn 0.4914 0.3570 -0.7944
vn 0.1877 0.5777 -0.7944
vn -0.1877 0.5777 -0.7944
vn -0.4914 0.3570 -0.7944
vn -0.6074 -0.0000 -0.7944
vn -0.4914 -0.3570 -0.7944
vn -0.1877 -0.5777 -0.7944
vn 0.1877 -0.5777 -0.7944
vn 0.4914 -0.3570 -0.7944
vn 0.3367 -0.0000 -0.9416
vn 0.2724 0.1979 -0.9416
vn 0.1041 0.3202 -0.9416
vn -0.1041 0.3202 -0.9416
vn -0.2724 0.1979 -0.9416
vn -0.3367 -0.0000 -0.9416
vn -0.2724 -0.1979 -0.9416
vn -0.1041 -0.3202 -0.9416
vn 0.1041 -0.3202 -0.9416
vn 0.2724 -0.1979 -0.9416
vn 0.0000 -0.0000 -1.0000
# 102 vertex normals

vt 0.2100 0.0203 0.0000
vt 0.2100 0.0307 0.0000
vt 0.2039 0.0287 0.0000
vt 0.2001 0.0235 0.0000
vt 0.2001 0.0171 0.0000
vt 0.2039 0.0119 0.0000
vt 0.2100 0.0099 0.0000
vt 0.2161 0.0119 0.0000
vt 0.2199 0.0171 0.0000
vt 0.2199 0.0235 0.0000
vt 0.2161 0.0287 0.0000
vt 0.2100 0.0401 0.0000
vt 0.1984 0.0363 0.0000
vt 0.1912 0.0264 0.0000
vt 0.1912 0.0142 0.0000
vt 0.1984 0.0043 0.0000
vt 0.2100 0.0005 0.0000
vt 0.2216 0.0043 0.0000
vt 0.2288 0.0142 0.0000
vt 0.2288 0.0264 0.0000
vt 0.2216 0.0363 0.0000
vt 0.2064 0.0941 0.0000
vt 0.2064 0.1109 0.0000
vt 0.1961 0.1086 0.0000
vt 0.1961 0.0964 0.0000
vt 0.1996 0.1246 0.0000
vt 0.1912 0.1185 0.0000
vt 0.0913 0.0079 0.0000
vt 0.0744 0.0079 0.0000
vt 0.0767 0.0005 0.0000
vt 0.0890 0.0005 0.0000
vt 0.2445 0.0005 0.0000
vt 0.2445 0.0173 0.0000
vt 0.2342 0.0150 0.0000
vt 0.2342 0.0028 0.0000
vt 0.2377 0.0309 0.0000
vt 0.2292 0.0249 0.0000
vt 0.2445 0.0405 0.0000
vt 0.2445 0.0573 0.0000
vt 0.2342 0.0550 0.0000
vt 0.2342 0.0428 0.0000
vt 0.2377 0.0709 0.0000
vt 0.2292 0.0649 0.0000
vt 0.0361 0.0079 0.0000
vt 0.0193 0.0079 0.0000
vt 0.0216 0.0005 0.0000
vt 0.0338 0.0005 0.0000
vt 0.2552 0.0005 0.0000
vt 0.2552 0.0173 0.0000
vt 0.2449 0.0150 0.0000
vt 0.2449 0.0028 0.0000
vt 0.1996 0.0805 0.0000
vt 0.1912 0.0865 0.0000
vt 0.1707 0.0099 0.0000
vt 0.1519 0.0099 0.0000
vt 0.1547 0.0005 0.0000
vt 0.1707 0.0005 0.0000
vt 0.1087 0.0173 0.0000
vt 0.0927 0.0173 0.0000
vt 0.1049 0.0079 0.0000
vt 0.0730 0.0173 0.0000
vt 0.0569 0.0173 0.0000
vt 0.0608 0.0079 0.0000
vt 0.1493 0.0099 0.0000
vt 0.1305 0.0099 0.0000
vt 0.1305 0.0005 0.0000
vt 0.1465 0.0005 0.0000
vt 0.1117 0.0099 0.0000
vt 0.1145 0.0005 0.0000
vt 0.0536 0.0173 0.0000
vt 0.0376 0.0173 0.0000
vt 0.0498 0.0079 0.0000
vt 0.0178 0.0173 0.0000
vt 0.0018 0.0173 0.0000
vt 0.0057 0.0079 0.0000
vt 0.1895 0.0099 0.0000
vt 0.1867 0.0005 0.0000
vt 0.1707 0.0203 0.0000
vt 0.1510 0.0203 0.0000
vt 0.1101 0.0277 0.0000
vt 0.0932 0.0277 0.0000
vt 0.0724 0.0277 0.0000
vt 0.0556 0.0277 0.0000
vt 0.1503 0.0203 0.0000
vt 0.1305 0.0203 0.0000
vt 0.1107 0.0203 0.0000
vt 0.0550 0.0277 0.0000
vt 0.0381 0.0277 0.0000
vt 0.0173 0.0277 0.0000
vt 0.0005 0.0277 0.0000
vt 0.1905 0.0203 0.0000
vt 0.1707 0.9648 0.0000
vt 0.1510 0.9648 0.0000
vt 0.1101 0.9723 0.0000
vt 0.0932 0.9723 0.0000
vt 0.0724 0.9723 0.0000
vt 0.0556 0.9723 0.0000
vt 0.1503 0.9648 0.0000
vt 0.1305 0.9648 0.0000
vt 0.1107 0.9648 0.0000
vt 0.0550 0.9723 0.0000
vt 0.0381 0.9723 0.0000
vt 0.0173 0.9723 0.0000
vt 0.0005 0.9723 0.0000
vt 0.1905 0.9648 0.0000
vt 0.1707 0.9752 0.0000
vt 0.1519 0.9752 0.0000
vt 0.1087 0.9827 0.0000
vt 0.0927 0.9827 0.0000
vt 0.0730 0.9827 0.0000
vt 0.0569 0.9827 0.0000
vt 0.1493 0.9752 0.0000
vt 0.1305 0.9752 0.0000
vt 0.1117 0.9752 0.0000
vt 0.0536 0.9827 0.0000
vt 0.0376 0.9827 0.0000
vt 0.0178 0.9827 0.0000
vt 0.0018 0.9827 0.0000
vt 0.1895 0.9752 0.0000
vt 0.1707 0.9846 0.0000
vt 0.1547 0.9846 0.0000
vt 0.1049 0.9921 0.0000
vt 0.0913 0.9921 0.0000
vt 0.0744 0.9921 0.0000
vt 0.0608 0.9921 0.0000
vt 0.1465 0.9846 0.0000
vt 0.1305 0.9846 0.0000
vt 0.1145 0.9846 0.0000
vt 0.0498 0.9921 0.0000
vt 0.0361 0.9921 0.0000
vt 0.0193 0.9921 0.0000
vt 0.0057 0.9921 0.0000
vt 0.1867 0.9846 0.0000
vt 0.2015 0.1409 0.0000
vt 0.2015 0.1531 0.0000
vt 0.1912 0.1554 0.0000
vt 0.1912 0.1386 0.0000
vt 0.2064 0.1630 0.0000
vt 0.1980 0.1691 0.0000
vt 0.0890 0.9995 0.0000
vt 0.0767 0.9995 0.0000
vt 0.2199 0.0849 0.0000
vt 0.2174 0.0969 0.0000
vt 0.2068 0.0970 0.0000
vt 0.2103 0.0805 0.0000
vt 0.2202 0.1076 0.0000
vt 0.2107 0.1117 0.0000
vt 0.2042 0.1739 0.0000
vt 0.2017 0.1858 0.0000
vt 0.1912 0.1860 0.0000
vt 0.1947 0.1695 0.0000
vt 0.2045 0.1965 0.0000
vt 0.1950 0.2007 0.0000
vt 0.0338 0.9995 0.0000
vt 0.0216 0.9995 0.0000
vt 0.2552 0.0428 0.0000
vt 0.2552 0.0550 0.0000
vt 0.2449 0.0573 0.0000
vt 0.2449 0.0405 0.0000
vt 0.2064 0.1310 0.0000
vt 0.1980 0.1250 0.0000
vt 0.2100 0.0707 0.0000
vt 0.2161 0.0687 0.0000
vt 0.2216 0.0763 0.0000
vt 0.2100 0.0801 0.0000
vt 0.2199 0.0635 0.0000
vt 0.2288 0.0664 0.0000
vt 0.2199 0.0571 0.0000
vt 0.2288 0.0542 0.0000
vt 0.2161 0.0519 0.0000
vt 0.2216 0.0443 0.0000
vt 0.2100 0.0499 0.0000
vt 0.2100 0.0405 0.0000
vt 0.2039 0.0519 0.0000
vt 0.1984 0.0443 0.0000
vt 0.2001 0.0571 0.0000
vt 0.1912 0.0542 0.0000
vt 0.2001 0.0635 0.0000
vt 0.1912 0.0664 0.0000
vt 0.2039 0.0687 0.0000
vt 0.1984 0.0763 0.0000
vt 0.2100 0.0603 0.0000
# 182 texture coords

g Capsule001
usemtl 21___Default
s 4
f 1/1/1 2/2/2 3/3/3 
f 1/1/1 3/3/3 4/4/4 
f 1/1/1 4/4/4 5/5/5 
f 1/1/1 5/5/5 6/6/6 
f 1/1/1 6/6/6 7/7/7 
f 1/1/1 7/7/7 8/8/8 
f 1/1/1 8/8/8 9/9/9 
f 1/1/1 9/9/9 10/10/10 
f 1/1/1 10/10/10 11/11/11 
f 1/1/1 11/11/11 2/2/2 
f 12/12/12 13/13/13 3/3/3 2/2/2 
f 13/13/13 14/14/14 4/4/4 3/3/3 
f 14/14/14 15/15/15 5/5/5 4/4/4 
f 15/15/15 16/16/16 6/6/6 5/5/5 
f 16/16/16 17/17/17 7/7/7 6/6/6 
f 17/17/17 18/18/18 8/8/8 7/7/7 
f 18/18/18 19/19/19 9/9/9 8/8/8 
f 19/19/19 20/20/20 10/10/10 9/9/9 
f 20/20/20 21/21/21 11/11/11 10/10/10 
f 21/21/21 12/12/12 2/2/2 11/11/11 
f 22/22/22 23/23/23 13/24/13 12/25/12 
f 23/23/23 24/26/24 14/27/14 13/24/13 
f 24/28/24 25/29/25 15/30/15 14/31/14 
f 25/32/25 26/33/26 16/34/16 15/35/15 
f 26/33/26 27/36/27 17/37/17 16/34/16 
f 27/38/27 28/39/28 18/40/18 17/41/17 
f 28/39/28 29/42/29 19/43/19 18/40/18 
f 29/44/29 30/45/30 20/46/20 19/47/19 
f 30/48/30 31/49/31 21/50/21 20/51/20 
f 31/52/31 22/22/22 12/25/12 21/53/21 
f 32/54/32 33/55/33 23/56/23 22/57/22 
f 33/58/33 34/59/34 24/28/24 23/60/23 
f 34/59/34 35/61/35 25/29/25 24/28/24 
f 35/61/35 36/62/36 26/63/26 25/29/25 
f 36/64/36 37/65/37 27/66/27 26/67/26 
f 37/65/37 38/68/38 28/69/28 27/66/27 
f 38/70/38 39/71/39 29/44/29 28/72/28 
f 39/71/39 40/73/40 30/45/30 29/44/29 
f 40/73/40 41/74/41 31/75/31 30/45/30 
f 41/76/41 32/54/32 22/57/22 31/77/31 
f 42/78/42 43/79/43 33/55/33 32/54/32 
f 43/80/43 44/81/44 34/59/34 33/58/33 
f 44/81/44 45/82/45 35/61/35 34/59/34 
f 45/82/45 46/83/46 36/62/36 35/61/35 
f 46/84/46 47/85/47 37/65/37 36/64/36 
f 47/85/47 48/86/48 38/68/38 37/65/37 
f 48/87/48 49/88/49 39/71/39 38/70/38 
f 49/88/49 50/89/50 40/73/40 39/71/39 
f 50/89/50 51/90/51 41/74/41 40/73/40 
f 51/91/51 42/78/42 32/54/32 41/76/41 
f 52/92/52 53/93/53 43/79/43 42/78/42 
f 53/94/53 54/95/54 44/81/44 43/80/43 
f 54/95/54 55/96/55 45/82/45 44/81/44 
f 55/96/55 56/97/56 46/83/46 45/82/45 
f 56/98/56 57/99/57 47/85/47 46/84/46 
f 57/99/57 58/100/58 48/86/48 47/85/47 
f 58/101/58 59/102/59 49/88/49 48/87/48 
f 59/102/59 60/103/60 50/89/50 49/88/49 
f 60/103/60 61/104/61 51/90/51 50/89/50 
f 61/105/61 52/92/52 42/78/42 51/91/51 
f 62/106/62 63/107/63 53/93/53 52/92/52 
f 63/108/63 64/109/64 54/95/54 53/94/53 
f 64/109/64 65/110/65 55/96/55 54/95/54 
f 65/110/65 66/111/66 56/97/56 55/96/55 
f 66/112/66 67/113/67 57/99/57 56/98/56 
f 67/113/67 68/114/68 58/100/58 57/99/57 
f 68/115/68 69/116/69 59/102/59 58/101/58 
f 69/116/69 70/117/70 60/103/60 59/102/59 
f 70/117/70 71/118/71 61/104/61 60/103/60 
f 71/119/71 62/106/62 52/92/52 61/105/61 
f 72/120/72 73/121/73 63/107/63 62/106/62 
f 73/122/73 74/123/74 64/109/64 63/108/63 
f 74/123/74 75/124/75 65/110/65 64/109/64 
f 75/124/75 76/125/76 66/111/66 65/110/65 
f 76/126/76 77/127/77 67/113/67 66/112/66 
f 77/127/77 78/128/78 68/114/68 67/113/67 
f 78/129/78 79/130/79 69/116/69 68/115/68 
f 79/130/79 80/131/80 70/117/70 69/116/69 
f 80/131/80 81/132/81 71/118/71 70/117/70 
f 81/133/81 72/120/72 62/106/62 71/119/71 
f 82/134/82 83/135/83 73/136/73 72/137/72 
f 83/135/83 84/138/84 74/139/74 73/136/73 
f 84/140/84 85/141/85 75/124/75 74/123/74 
f 85/142/85 86/143/86 76/144/76 75/145/75 
f 86/143/86 87/146/87 77/147/77 76/144/76 
f 87/148/87 88/149/88 78/150/78 77/151/77 
f 88/149/88 89/152/89 79/153/79 78/150/78 
f 89/154/89 90/155/90 80/131/80 79/130/79 
f 90/156/90 91/157/91 81/158/81 80/159/80 
f 91/160/91 82/134/82 72/137/72 81/161/81 
f 92/162/92 93/163/93 83/164/83 82/165/82 
f 93/163/93 94/166/94 84/167/84 83/164/83 
f 94/166/94 95/168/95 85/169/85 84/167/84 
f 95/168/95 96/170/96 86/171/86 85/169/85 
f 96/170/96 97/172/97 87/173/87 86/171/86 
f 97/172/97 98/174/98 88/175/88 87/173/87 
f 98/174/98 99/176/99 89/177/89 88/175/88 
f 99/176/99 100/178/100 90/179/90 89/177/89 
f 100/178/100 101/180/101 91/181/91 90/179/90 
f 101/180/101 92/162/92 82/165/82 91/181/91 
f 92/162/92 102/182/102 93/163/93 
f 93/163/93 102/182/102 94/166/94 
f 94/166/94 102/182/102 95/168/95 
f 95/168/95 102/182/102 96/170/96 
f 96/170/96 102/182/102 97/172/97 
f 97/172/97 102/182/102 98/174/98 
f 98/174/98 102/182/102 99/176/99 
f 99/176/99 102/182/102 100/178/100 
f 100/178/100 102/182/102 101/180/101 
f 101/180/101 102/182/102 92/162/92 
# 90 polygons - 20 triangles

