# 3ds Max Wavefront OBJ Exporter v0.97b - (c)2007 guruware
# File Created: 12.03.2017 12:44:25

mtllib a5.mtl

#
# object a5
#

v  3.0735 -6.4920 -0.6147
v  -3.0735 6.4920 -0.6147
v  3.0735 6.4920 -0.6147
v  -3.0735 6.4920 0.6147
v  3.0735 -6.4920 0.6147
v  3.0735 6.4920 0.6147
v  -3.0735 -6.4920 -0.6147
v  -3.0735 -6.4920 0.6147
# 8 vertices

vn 0.0000 0.0000 -1.0000
vn 0.0000 1.0000 -0.0000
vn 1.0000 0.0000 -0.0000
vn -1.0000 0.0000 -0.0000
# 4 vertex normals

vt 0.2517 0.8433 0.0000
vt 0.1698 0.6704 0.0000
vt 0.2517 0.6704 0.0000
vt 0.4762 0.9440 0.0000
vt 0.4926 0.8621 0.0000
vt 0.4926 0.9440 0.0000
vt 0.1464 0.6704 0.0000
vt 0.1628 0.8433 0.0000
vt 0.1464 0.8433 0.0000
vt 0.2594 0.6704 0.0000
vt 0.2758 0.8433 0.0000
vt 0.2594 0.8433 0.0000
vt 0.1698 0.8433 0.0000
vt 0.4762 0.8621 0.0000
vt 0.1628 0.6704 0.0000
vt 0.2758 0.6704 0.0000
# 16 texture coords

g a5
usemtl blinn1SG
s off
f 1/1/1 2/2/1 3/3/1 
f 4/4/2 3/5/2 2/6/2 
f 5/7/3 3/8/3 6/9/3 
f 7/10/4 4/11/4 2/12/4 
f 1/1/1 7/13/1 2/2/1 
f 4/4/2 6/14/2 3/5/2 
f 5/7/3 1/15/3 3/8/3 
f 7/10/4 8/16/4 4/11/4 
# 0 polygons - 8 triangles

