# 3ds Max Wavefront OBJ Exporter v0.97b - (c)2007 guruware
# File Created: 10.03.2017 19:45:40

mtllib a8.mtl

#
# object a8
#

v  -2.8394 -1.7815 -14.2746
v  -9.9104 -1.7815 -21.3457
v  4.2317 -1.7815 -21.3457
v  4.2317 -0.2448 -21.3457
v  -2.8394 -0.2448 -14.2746
v  -9.9104 -0.2448 -21.3457
# 6 vertices

vn 0.0000 -1.0000 -0.0000
vn 0.7071 0.0000 0.7071
vn -0.7071 0.0000 0.7071
vn 0.0000 1.0000 -0.0000
vn 0.0000 0.0000 -1.0000
# 5 vertex normals

vt 1.0000 0.0000 0.0000
vt 1.0000 1.0000 0.0000
vt 0.0000 0.0000 0.0000
vt 0.0000 1.0000 0.0000
# 4 texture coords

g a8
usemtl wire_224086086
s 2
f -6/-4/-5 -5/-3/-5 -4/-2/-5 
s 8
f -3/-3/-4 -2/-1/-4 -6/-2/-4 -4/-4/-4 
s 64
f -1/-1/-3 -5/-2/-3 -6/-4/-3 -2/-3/-3 
s 4
f -1/-1/-2 -2/-2/-2 -3/-4/-2 
s off
f -1/-1/-1 -3/-4/-1 -4/-4/-1 -5/-3/-1 
# 3 polygons - 2 triangles

