# 3ds Max Wavefront OBJ Exporter v0.97b - (c)2007 guruware
# File Created: 21.03.2017 11:41:17

mtllib Barrera.mtl

#
# object Barrera
#

v  -0.4903 0.7559 0.1436
v  -0.4903 0.7559 -0.1436
v  -0.9806 0.7559 -0.1436
v  -0.9806 0.7559 0.1436
v  -0.4903 -0.0225 -0.1436
v  -0.4903 -0.4452 -0.4131
v  -0.9806 -0.4452 -0.4131
v  -0.9806 -0.0225 -0.1436
v  -1.4709 -0.0225 0.1436
v  -1.4709 -0.0225 -0.1436
v  -1.4709 -0.4452 -0.4131
v  -1.4709 -0.4452 0.4131
v  -1.4709 -0.7559 -0.4131
v  -1.4709 -0.7559 0.4131
v  -0.9806 -0.0225 0.1436
v  -0.9806 -0.4452 0.4131
v  -0.4903 -0.4452 0.4131
v  -0.4903 -0.0225 0.1436
v  -0.9806 -0.7559 -0.4131
v  -0.9806 -0.7559 0.4131
v  0.0000 0.7559 0.1436
v  0.0000 0.7559 -0.1436
v  0.0000 -0.0225 -0.1436
v  0.0000 -0.4452 -0.4131
v  0.0000 0.3667 -0.1436
v  0.0000 0.5613 -0.1436
v  -1.4709 0.7559 -0.1436
v  0.0000 -0.4452 0.4131
v  0.0000 -0.0225 0.1436
v  0.0000 0.5613 0.1436
v  0.0000 0.3667 0.1436
v  0.0000 -0.7559 -0.4131
v  -0.4903 -0.7559 -0.4131
v  -0.4903 -0.7559 0.0985
v  -0.4903 -0.6415 0.2062
v  -0.4903 -0.5336 0.4131
v  0.4903 -0.0225 -0.1436
v  0.9806 -0.0225 -0.1436
v  0.9806 -0.4452 -0.4131
v  0.4903 -0.4452 -0.4131
v  1.4709 -0.0225 0.1436
v  1.4709 -0.4452 0.4131
v  1.4709 -0.4452 -0.4131
v  1.4709 -0.0225 -0.1436
v  0.3719 0.3667 -0.1436
v  0.4616 0.6145 -0.1436
v  0.5284 0.7559 -0.1436
v  0.9806 0.7559 -0.1436
v  1.4709 0.7559 0.1436
v  1.4709 0.7559 -0.1436
v  1.4709 -0.7559 -0.4131
v  1.4709 -0.7559 0.4131
v  0.9806 -0.0225 0.1436
v  0.4903 -0.0225 0.1436
v  0.4903 -0.4452 0.4131
v  0.9806 -0.4452 0.4131
v  0.4903 -0.7559 -0.4131
v  0.4903 -0.7559 0.4131
v  0.0000 -0.7559 0.4131
v  0.9806 -0.7559 0.4131
v  0.9806 -0.7559 -0.4131
v  0.9806 0.7559 0.1436
v  0.2989 0.3016 0.1436
v  0.3872 0.3016 0.1436
v  -1.3639 0.6079 0.1436
v  -1.4709 0.5364 0.1436
v  -1.1448 0.7559 0.1436
v  -1.1690 0.6518 0.1436
v  -1.4709 0.6715 -0.0146
v  -1.4709 0.7559 -0.0611
v  -1.4709 0.5665 0.0185
v  -1.2872 0.7559 0.0297
v  -1.1668 0.7559 0.0852
v  -0.2613 -0.6210 0.4131
v  -0.2134 -0.7559 0.4131
v  -0.3330 -0.7559 -0.0013
v  -0.1859 -0.7559 0.1477
v  0.3141 0.3667 -0.1436
v  0.2071 0.7559 -0.1436
v  0.1113 0.6580 0.1436
v  0.2937 0.5170 -0.1436
v  0.2319 0.4818 0.1436
v  0.5507 0.6384 0.0387
v  0.6058 0.7559 0.0349
v  0.5051 0.4816 0.1436
v  0.5022 0.5818 -0.0072
v  0.5118 0.5929 -0.0020
v  0.7381 0.7559 0.0551
v  0.7878 0.7559 0.1436
v  0.7531 0.4969 0.1436
# 90 vertices

vn 0.0000 1.0000 -0.0000
vn 0.0000 0.4728 -0.8812
vn 0.0000 0.6205 -0.7842
vn -1.0000 0.0000 -0.0000
vn 0.0000 0.0000 -1.0000
vn 0.0000 0.4728 0.8812
vn 0.0000 0.6205 0.7842
vn 0.0000 0.0000 1.0000
vn 0.0000 -1.0000 -0.0000
vn 0.3993 0.9168 -0.0000
vn 0.0454 0.9968 0.0655
vn 1.0000 0.0000 -0.0000
vn -0.6558 0.5989 0.4596
vn -0.6308 0.7719 0.0786
vn -0.7845 0.6023 0.1479
vn -0.6661 0.4454 0.5982
vn -0.9744 0.1854 0.1268
vn -0.4574 0.8201 0.3438
vn -0.2146 0.7813 0.5860
vn 0.6009 -0.7290 0.3279
vn -0.4340 -0.8886 0.1484
vn -0.9597 -0.2791 -0.0344
vn -0.4177 -0.8964 0.1485
vn -0.0477 -0.9754 0.2151
vn 0.0000 0.9898 0.1428
vn 0.6490 0.7605 0.0226
vn -0.9209 0.3645 0.1384
vn 0.0000 0.9954 0.0954
vn -0.8728 0.4684 0.1375
vn 0.9557 0.2909 0.0455
vn 0.9550 0.2838 0.0860
vn -0.9239 0.3575 0.1367
vn -0.9578 0.2839 0.0449
vn 0.9907 0.1101 0.0796
vn 0.8597 0.4821 0.1688
vn 0.0001 0.0000 1.0000
vn -0.3943 0.2198 0.8923
vn -0.5551 0.5068 0.6596
vn -0.9760 0.1071 0.1897
vn -0.8126 0.5828 -0.0066
vn -0.9061 0.4057 0.1201
vn -0.0642 0.8480 0.5262
# 42 vertex normals

vt 0.1330 0.9212 0.0000
vt 0.0005 0.9212 0.0000
vt 0.0005 0.8428 0.0000
vt 0.1330 0.8428 0.0000
vt 0.5735 0.6282 0.0000
vt 0.4492 0.6282 0.0000
vt 0.4492 0.5498 0.0000
vt 0.5735 0.5498 0.0000
vt 0.1524 0.2573 0.0000
vt 0.1524 0.1248 0.0000
vt 0.2348 0.0005 0.0000
vt 0.2348 0.3815 0.0000
vt 0.2964 0.7848 0.0000
vt 0.4483 0.7848 0.0000
vt 0.4483 0.8632 0.0000
vt 0.2964 0.8632 0.0000
vt 0.2955 0.0005 0.0000
vt 0.2955 0.3815 0.0000
vt 0.4492 0.0788 0.0000
vt 0.5984 0.0788 0.0000
vt 0.5984 0.1572 0.0000
vt 0.4492 0.1572 0.0000
vt 0.2964 0.0788 0.0000
vt 0.4483 0.0788 0.0000
vt 0.4483 0.1572 0.0000
vt 0.2964 0.1572 0.0000
vt 0.8357 0.0005 0.0000
vt 0.8357 0.3815 0.0000
vt 0.7574 0.3815 0.0000
vt 0.7574 0.0005 0.0000
vt 0.1330 0.9995 0.0000
vt 0.0005 0.9995 0.0000
vt 0.5735 0.7065 0.0000
vt 0.4492 0.7065 0.0000
vt 0.4492 0.4715 0.0000
vt 0.5735 0.4715 0.0000
vt 0.1507 0.2599 0.0000
vt 0.1507 0.3206 0.0000
vt 0.0724 0.3206 0.0000
vt 0.0724 0.2599 0.0000
vt 0.3723 0.7065 0.0000
vt 0.4483 0.7065 0.0000
vt 0.3344 0.7065 0.0000
vt 0.2964 0.7065 0.0000
vt 0.4483 0.9415 0.0000
vt 0.2964 0.9415 0.0000
vt 0.4492 0.0005 0.0000
vt 0.5984 0.0005 0.0000
vt 0.5984 0.2355 0.0000
vt 0.4492 0.2355 0.0000
vt 0.3344 0.2355 0.0000
vt 0.2964 0.2355 0.0000
vt 0.3723 0.2355 0.0000
vt 0.4483 0.2355 0.0000
vt 0.8810 0.8433 0.0000
vt 0.8204 0.8433 0.0000
vt 0.8204 0.7650 0.0000
vt 0.8810 0.7650 0.0000
vt 0.5993 0.8438 0.0000
vt 0.6599 0.8438 0.0000
vt 0.6599 0.9221 0.0000
vt 0.5993 0.9221 0.0000
vt 0.9776 0.3815 0.0000
vt 0.9169 0.3815 0.0000
vt 0.9169 0.0005 0.0000
vt 0.9776 0.0005 0.0000
vt 0.8204 0.3830 0.0000
vt 0.8810 0.3830 0.0000
vt 0.8810 0.6189 0.0000
vt 0.8587 0.6686 0.0000
vt 0.8204 0.7640 0.0000
vt 0.8377 0.7640 0.0000
vt 0.6791 0.7640 0.0000
vt 0.6791 0.3830 0.0000
vt 0.7574 0.3830 0.0000
vt 0.7574 0.7640 0.0000
vt 0.5735 0.7848 0.0000
vt 0.5735 0.8632 0.0000
vt 0.4492 0.8632 0.0000
vt 0.4492 0.7848 0.0000
vt 0.1524 0.5068 0.0000
vt 0.2348 0.3825 0.0000
vt 0.2348 0.7635 0.0000
vt 0.1524 0.6393 0.0000
vt 0.4483 0.5498 0.0000
vt 0.4483 0.6282 0.0000
vt 0.3723 0.6471 0.0000
vt 0.3240 0.6327 0.0000
vt 0.2964 0.6221 0.0000
vt 0.2964 0.5498 0.0000
vt 0.0005 0.5068 0.0000
vt 0.0005 0.6393 0.0000
vt 0.2955 0.7635 0.0000
vt 0.2955 0.3825 0.0000
vt 0.4492 0.3922 0.0000
vt 0.4492 0.3139 0.0000
vt 0.5984 0.3139 0.0000
vt 0.5984 0.3922 0.0000
vt 0.6776 0.3815 0.0000
vt 0.5993 0.3815 0.0000
vt 0.5993 0.0005 0.0000
vt 0.6776 0.0005 0.0000
vt 0.5993 0.3830 0.0000
vt 0.6776 0.3830 0.0000
vt 0.6776 0.7640 0.0000
vt 0.5993 0.7640 0.0000
vt 0.1340 0.9151 0.0000
vt 0.1340 0.8367 0.0000
vt 0.2665 0.8367 0.0000
vt 0.2665 0.9151 0.0000
vt 0.4492 0.9415 0.0000
vt 0.5735 0.9415 0.0000
vt 0.7397 0.8438 0.0000
vt 0.7397 0.9221 0.0000
vt 0.6791 0.9221 0.0000
vt 0.6791 0.8438 0.0000
vt 0.0724 0.0005 0.0000
vt 0.1507 0.0005 0.0000
vt 0.1507 0.0611 0.0000
vt 0.0724 0.0611 0.0000
vt 0.4483 0.4715 0.0000
vt 0.2964 0.4715 0.0000
vt 0.4492 0.4705 0.0000
vt 0.5984 0.4705 0.0000
vt 0.2964 0.4705 0.0000
vt 0.2964 0.3922 0.0000
vt 0.4483 0.3922 0.0000
vt 0.4483 0.4705 0.0000
vt 0.3850 0.2833 0.0000
vt 0.3850 0.2974 0.0000
vt 0.4483 0.3139 0.0000
vt 0.8195 0.7650 0.0000
vt 0.8195 0.8433 0.0000
vt 0.7588 0.8433 0.0000
vt 0.7588 0.7650 0.0000
vt 0.5993 0.7654 0.0000
vt 0.6599 0.7654 0.0000
vt 0.8195 0.3830 0.0000
vt 0.8195 0.7640 0.0000
vt 0.7588 0.7640 0.0000
vt 0.7588 0.3830 0.0000
vt 0.8820 0.7640 0.0000
vt 0.8820 0.3830 0.0000
vt 0.9426 0.3830 0.0000
vt 0.9426 0.7640 0.0000
vt 0.9155 0.3815 0.0000
vt 0.8372 0.3815 0.0000
vt 0.8372 0.0005 0.0000
vt 0.9155 0.0005 0.0000
vt 0.3253 0.0176 0.0000
vt 0.3392 0.0005 0.0000
vt 0.4483 0.0005 0.0000
vt 0.2964 0.0526 0.0000
vt 0.3167 0.0487 0.0000
vt 0.0170 0.1843 0.0000
vt 0.0005 0.1628 0.0000
vt 0.0005 0.1248 0.0000
vt 0.0433 0.2573 0.0000
vt 0.0375 0.1996 0.0000
vt 0.0719 0.0005 0.0000
vt 0.0543 0.0211 0.0000
vt 0.0207 0.0005 0.0000
vt 0.1060 0.8131 0.0000
vt 0.1330 0.8166 0.0000
vt 0.0805 0.7938 0.0000
vt 0.0386 0.7645 0.0000
vt 0.0005 0.7645 0.0000
vt 0.0294 0.2573 0.0000
vt 0.0005 0.2047 0.0000
vt 0.0418 0.0427 0.0000
vt 0.0278 0.4986 0.0000
vt 0.0075 0.4986 0.0000
vt 0.0075 0.4716 0.0000
vt 0.1330 0.7816 0.0000
vt 0.1330 0.8127 0.0000
vt 0.6791 0.7654 0.0000
vt 0.6963 0.7654 0.0000
vt 0.7134 0.8020 0.0000
vt 0.7397 0.8097 0.0000
vt 0.7309 0.1916 0.0000
vt 0.7560 0.1456 0.0000
vt 0.7560 0.3815 0.0000
vt 0.7117 0.0005 0.0000
vt 0.7073 0.1229 0.0000
vt 0.7560 0.0959 0.0000
vt 0.7194 0.0005 0.0000
vt 0.1507 0.4979 0.0000
vt 0.0283 0.4979 0.0000
vt 0.0283 0.4716 0.0000
vt 0.7560 0.0005 0.0000
vt 0.3723 0.6563 0.0000
vt 0.0182 0.3541 0.0000
vt 0.0182 0.3210 0.0000
vt 0.1507 0.3388 0.0000
vt 0.3430 0.6596 0.0000
vt 0.3499 0.2726 0.0000
vt 0.3155 0.2533 0.0000
vt 0.2964 0.6734 0.0000
vt 0.1507 0.6477 0.0000
vt 0.0655 0.6665 0.0000
vt 0.0676 0.6419 0.0000
vt 0.0182 0.3570 0.0000
vt 0.1507 0.3546 0.0000
vt 0.1507 0.3687 0.0000
vt 0.0182 0.3663 0.0000
vt 0.0165 0.7364 0.0000
vt 0.0165 0.6968 0.0000
vt 0.0867 0.6799 0.0000
vt 0.1502 0.6773 0.0000
vt 0.0843 0.6773 0.0000
vt 0.0182 0.4584 0.0000
vt 0.1507 0.4360 0.0000
vt 0.1507 0.4711 0.0000
vt 0.0182 0.4291 0.0000
vt 0.0182 0.3825 0.0000
vt 0.1488 0.7275 0.0000
vt 0.1507 0.4016 0.0000
vt 0.1340 0.7645 0.0000
vt 0.2163 0.7769 0.0000
vt 0.2256 0.7980 0.0000
vt 0.2665 0.8059 0.0000
vt 0.2964 0.3614 0.0000
vt 0.3469 0.3558 0.0000
vt 0.3499 0.3162 0.0000
vt 0.0498 0.6652 0.0000
vt 0.0272 0.6556 0.0000
vt 0.0645 0.6500 0.0000
vt 0.1507 0.0985 0.0000
vt 0.0863 0.0983 0.0000
vt 0.1399 0.0616 0.0000
vt 0.0310 0.3105 0.0000
vt 0.0310 0.2599 0.0000
vt 0.0719 0.2599 0.0000
vt 0.0785 0.0616 0.0000
vt 0.0858 0.1100 0.0000
vt 0.0462 0.1100 0.0000
vt 0.0182 0.7369 0.0000
vt 0.1507 0.7369 0.0000
vt 0.1507 0.7560 0.0000
# 239 texture coords

g Barrera
usemtl Material__1
s 4
f 1/1/1 2/2/1 3/3/1 
f 3/3/1 4/4/1 1/1/1 
s 32
f 5/5/2 6/6/3 7/7/3 
f 7/7/3 8/8/2 5/5/2 
s 64
f 9/9/4 10/10/4 11/11/4 
f 11/11/4 12/12/4 9/9/4 
s 32
f 2/13/5 5/14/2 8/15/2 
f 8/15/2 3/16/5 2/13/5 
s 64
f 13/17/4 14/18/4 12/12/4 
f 12/12/4 11/11/4 13/17/4 
s 8
f 15/19/6 16/20/7 17/21/7 
f 17/21/7 18/22/6 15/19/6 
f 4/23/8 15/24/6 18/25/6 
f 18/25/6 1/26/8 4/23/8 
s 2
f 14/27/9 13/28/9 19/29/9 
f 19/29/9 20/30/9 14/27/9 
s 4
f 21/31/10 22/32/11 2/2/1 
f 2/2/1 1/1/1 21/31/10 
s 32
f 23/33/2 24/34/2 6/6/3 
f 6/6/3 5/5/2 23/33/2 
f 11/35/2 10/36/2 8/8/2 
f 8/8/2 7/7/3 11/35/2 
s 8
f 12/37/6 14/38/8 20/39/8 
f 20/39/8 16/40/7 12/37/6 
s 32
f 25/41/5 23/42/2 5/14/2 
f 26/43/5 25/41/5 5/14/2 
f 22/44/5 26/43/5 5/14/2 
f 2/13/5 22/44/5 5/14/2 
f 10/45/2 27/46/5 3/16/5 
f 3/16/5 8/15/2 10/45/2 
s 8
f 9/47/6 12/48/6 16/20/7 
f 16/20/7 15/19/6 9/47/6 
f 28/49/6 29/50/6 18/22/6 
f 18/22/6 17/21/7 28/49/6 
f 30/51/8 21/52/8 1/26/8 
f 31/53/8 30/51/8 1/26/8 
f 29/54/6 31/53/8 1/26/8 
f 18/25/6 29/54/6 1/26/8 
s 32
f 13/55/5 11/56/2 7/57/3 
f 7/57/3 19/58/5 13/55/5 
f 24/59/2 32/60/5 33/61/5 
f 33/61/5 6/62/3 24/59/2 
s off
f 19/63/12 7/64/12 16/65/12 
f 16/65/12 20/66/12 19/63/12 
f 6/67/4 33/68/4 34/69/4 
f 6/67/4 34/69/4 35/70/4 
f 17/71/4 6/67/4 35/70/4 
f 17/71/4 35/70/4 36/72/4 
f 6/73/9 17/74/9 16/75/9 
f 16/75/9 7/76/9 6/73/9 
s 32
f 37/77/2 38/78/2 39/79/3 
f 39/79/3 40/80/3 37/77/2 
s 64
f 41/81/12 42/82/12 43/83/12 
f 43/83/12 44/84/12 41/81/12 
s 32
f 38/85/2 37/86/2 45/87/5 
f 38/85/2 45/87/5 46/88/5 
f 38/85/2 46/88/5 47/89/5 
f 48/90/5 38/85/2 47/89/5 
s 64
f 49/91/12 41/81/12 44/84/12 
f 44/84/12 50/92/12 49/91/12 
f 51/93/12 43/83/12 42/82/12 
f 42/82/12 52/94/12 51/93/12 
s 8
f 53/95/6 54/96/6 55/97/7 
f 55/97/7 56/98/7 53/95/6 
s 2
f 32/99/9 57/100/9 58/101/9 
f 58/101/9 59/102/9 32/99/9 
f 52/103/9 60/104/9 61/105/9 
f 61/105/9 51/106/9 52/103/9 
s 4
f 50/107/1 48/108/1 62/109/1 
f 62/109/1 49/110/1 50/107/1 
s 32
f 23/33/2 37/77/2 40/80/3 
f 40/80/3 24/34/2 23/33/2 
f 43/111/2 39/79/3 38/78/2 
f 38/78/2 44/112/2 43/111/2 
s 8
f 59/113/8 58/114/8 55/115/7 
f 55/115/7 28/116/6 59/113/8 
f 42/117/6 56/118/7 60/119/8 
f 60/119/8 52/120/8 42/117/6 
s 32
f 44/121/2 38/85/2 48/90/5 
f 48/90/5 50/122/5 44/121/2 
s 8
f 41/123/6 53/95/6 56/98/7 
f 56/98/7 42/124/6 41/123/6 
f 28/49/6 55/97/7 54/96/6 
f 54/96/6 29/50/6 28/49/6 
f 49/125/8 62/126/8 53/127/6 
f 53/127/6 41/128/6 49/125/8 
f 63/129/8 31/53/8 29/54/6 
f 64/130/8 63/129/8 29/54/6 
f 54/131/6 64/130/8 29/54/6 
s 32
f 51/132/5 61/133/5 39/134/3 
f 39/134/3 43/135/2 51/132/5 
f 24/59/2 40/136/3 57/137/5 
f 57/137/5 32/60/5 24/59/2 
s off
f 61/138/4 60/139/4 56/140/4 
f 56/140/4 39/141/4 61/138/4 
f 40/142/12 55/143/12 58/144/12 
f 58/144/12 57/145/12 40/142/12 
f 40/146/9 39/147/9 56/148/9 
f 56/148/9 55/149/9 40/146/9 
s 8
f 65/150/8 66/151/8 9/152/6 
f 4/23/8 67/153/8 68/154/8 
f 15/24/6 4/23/8 68/154/8 
f 9/152/6 15/24/6 68/154/8 
f 65/150/8 9/152/6 68/154/8 
s 64
f 69/155/4 70/156/4 27/157/4 
f 9/9/4 66/158/4 71/159/4 
f 10/10/4 9/9/4 71/159/4 
f 27/157/4 10/10/4 71/159/4 
f 69/155/4 27/157/4 71/159/4 
s off
f 70/160/13 69/161/13 72/162/13 
f 73/163/1 67/164/1 4/4/1 
f 72/165/1 73/163/1 4/4/1 
f 72/165/1 4/4/1 3/3/1 
f 70/166/1 72/165/1 3/3/1 
f 70/166/1 3/3/1 27/167/1 
f 71/159/14 66/158/14 65/168/14 
f 65/168/15 72/169/15 71/159/15 
f 69/161/16 71/170/16 72/162/16 
f 68/171/17 67/172/17 73/173/17 
f 65/174/18 73/163/18 72/165/18 
f 65/174/19 68/175/19 73/163/19 
s 8
f 17/176/7 36/177/8 74/178/8 
f 28/116/6 17/176/7 74/178/8 
f 59/113/8 28/116/6 74/178/8 
f 75/179/8 59/113/8 74/178/8 
s 2
f 76/180/9 34/181/9 33/182/9 
f 59/102/9 75/183/9 77/184/9 
f 32/99/9 59/102/9 77/184/9 
f 33/182/9 32/99/9 77/184/9 
f 76/180/9 33/182/9 77/184/9 
s off
f 34/181/20 76/180/20 35/185/20 
f 76/180/21 77/184/21 74/186/21 
f 77/187/22 75/188/22 74/189/22 
f 76/180/23 74/186/23 36/190/23 
f 76/180/24 36/190/24 35/185/24 
s 32
f 37/86/2 23/42/2 25/41/5 
f 37/86/2 25/41/5 78/191/5 
f 45/87/5 37/86/2 78/191/5 
s 4
f 79/192/25 22/193/11 80/194/26 
s 32
f 25/41/5 26/43/5 81/195/5 
f 81/195/5 78/191/5 25/41/5 
s 8
f 21/52/8 30/51/8 82/196/8 
f 82/196/8 80/197/8 21/52/8 
s 32
f 22/44/5 79/198/5 81/195/5 
f 81/195/5 26/43/5 22/44/5 
s 8
f 31/53/8 63/129/8 82/196/8 
f 82/196/8 30/51/8 31/53/8 
s off
f 47/199/27 83/200/27 84/201/27 
f 78/202/28 63/203/28 64/204/28 
f 64/204/28 45/205/28 78/202/28 
f 64/206/29 85/207/29 86/208/29 
f 46/209/29 64/206/29 86/208/29 
f 46/209/29 86/208/29 87/210/29 
f 78/211/30 82/212/30 63/213/30 
f 81/214/31 79/215/31 82/212/31 
f 47/199/32 46/209/32 87/210/32 
f 87/210/32 83/200/32 47/199/32 
f 46/209/33 45/216/33 64/206/33 
f 78/211/34 81/214/34 82/212/34 
f 79/215/35 80/217/35 82/212/35 
s 4
f 47/218/1 84/219/1 88/220/1 
f 48/108/1 47/218/1 88/220/1 
f 62/109/1 48/108/1 88/220/1 
f 89/221/1 62/109/1 88/220/1 
s 8
f 62/126/8 89/222/36 90/223/8 
f 53/127/6 62/126/8 90/223/8 
f 54/131/6 53/127/6 90/223/8 
f 64/130/8 54/131/6 90/223/8 
f 85/224/8 64/130/8 90/223/8 
s off
f 84/225/37 83/226/37 88/227/37 
f 83/228/38 90/229/38 88/230/38 
f 90/231/39 89/232/39 88/233/39 
f 83/200/40 87/210/40 86/208/40 
f 86/208/41 85/207/41 83/200/41 
f 83/234/42 85/235/42 90/236/42 
s 4
f 22/237/11 21/238/10 80/239/26 
# 0 polygons - 176 triangles

