# 3ds Max Wavefront OBJ Exporter v0.97b - (c)2007 guruware
# File Created: 23.02.2017 13:59:30

#
# object Box034
#

v  8.7594 -2.8760 -9.8351
v  8.7594 -2.8760 9.8351
v  -8.7594 -2.8760 9.8351
v  -8.7594 -2.8760 -9.8351
v  8.7594 2.8760 -9.8351
v  -8.7594 2.8760 -9.8351
v  -8.7594 2.8760 9.8351
v  8.7594 2.8760 9.8351
# 8 vertices

vn 0.0000 -1.0000 -0.0000
vn 0.0000 1.0000 -0.0000
vn 0.0000 0.0000 1.0000
vn 1.0000 0.0000 -0.0000
vn 0.0000 0.0000 -1.0000
vn -1.0000 0.0000 -0.0000
# 6 vertex normals

vt 0.0000 1.0000 0.0000
vt 0.0000 0.0000 0.0000
vt 1.0000 0.0000 0.0000
vt 1.0000 1.0000 0.0000
# 4 texture coords

g Box034
s 2
f -8/-4/-6 -7/-3/-6 -6/-2/-6 -5/-1/-6 
s 4
f -4/-1/-5 -3/-4/-5 -2/-3/-5 -1/-2/-5 
s 8
f -1/-1/-4 -2/-4/-4 -6/-3/-4 -7/-2/-4 
s 16
f -4/-1/-3 -1/-4/-3 -7/-3/-3 -8/-2/-3 
s 32
f -3/-1/-2 -4/-4/-2 -8/-3/-2 -5/-2/-2 
s 64
f -2/-1/-1 -3/-4/-1 -5/-3/-1 -6/-2/-1 
# 6 polygons

