# 3ds Max Wavefront OBJ Exporter v0.97b - (c)2007 guruware
# File Created: 24.02.2017 16:00:37

#
# object Box096
#

v  -3.7240 -0.4137 4.2175
v  -3.7240 -0.4137 1.4058
v  -1.2413 -0.4137 1.4058
v  -1.2413 -0.4137 4.2175
v  1.2413 -0.4137 1.4058
v  1.2413 -0.4137 4.2175
v  3.7240 -0.4137 1.4058
v  3.7240 -0.4137 4.2175
v  -3.7240 -0.4137 -1.4058
v  -1.2413 -0.4137 -1.4058
v  -1.2413 -0.2012 1.4058
v  -1.2413 -0.2012 -1.4058
v  1.2413 -0.2012 -1.4058
v  1.2413 -0.2012 1.4058
v  1.2413 -0.4137 -1.4058
v  3.7240 -0.4137 -1.4058
v  -3.7240 -0.4137 -4.2175
v  -1.2413 -0.4137 -4.2175
v  1.2413 -0.4137 -4.2175
v  3.7240 -0.4137 -4.2175
v  -3.7240 0.4137 4.2175
v  -1.2413 0.4137 4.2175
v  -1.2413 0.4137 1.4058
v  -3.7240 0.4137 1.4058
v  1.2413 0.4137 4.2175
v  1.2413 0.4137 1.4058
v  3.7240 0.4137 4.2175
v  3.7240 0.4137 1.4058
v  -1.2413 0.4137 -1.4058
v  -3.7240 0.4137 -1.4058
v  1.2413 0.4137 -1.4058
v  3.7240 0.4137 -1.4058
v  -1.2413 0.4137 -4.2175
v  -3.7240 0.4137 -4.2175
v  1.2413 0.4137 -4.2175
v  3.7240 0.4137 -4.2175
# 36 vertices

vn 0.0000 -1.0000 -0.0000
vn 0.0000 1.0000 -0.0000
vn 0.0000 0.0000 1.0000
vn 1.0000 0.0000 -0.0000
vn 0.0000 0.0000 -1.0000
vn -1.0000 0.0000 -0.0000
# 6 vertex normals

vt 1.0000 0.0000 0.0000
vt 1.0000 0.3333 0.0000
vt 0.6667 0.3333 0.0000
vt 0.6667 0.0000 0.0000
vt 0.3333 0.3333 0.0000
vt 0.3333 0.0000 0.0000
vt -0.0000 0.3333 0.0000
vt -0.0000 0.0000 0.0000
vt 1.0000 0.6667 0.0000
vt 0.6667 0.6667 0.0000
vt 0.3333 0.6667 0.0000
vt -0.0000 0.6667 0.0000
vt 1.0000 1.0000 0.0000
vt 0.6667 1.0000 0.0000
vt 0.3333 1.0000 0.0000
vt -0.0000 1.0000 0.0000
vt 0.0000 0.0000 0.0000
vt 0.0000 0.3333 0.0000
vt 0.0000 0.6667 0.0000
vt 0.0000 1.0000 0.0000
# 20 texture coords

g Box096
s 2
f -36/-20/-6 -35/-19/-6 -34/-18/-6 -33/-17/-6 
f -33/-17/-6 -34/-18/-6 -32/-16/-6 -31/-15/-6 
f -31/-15/-6 -32/-16/-6 -30/-14/-6 -29/-13/-6 
f -35/-19/-6 -28/-12/-6 -27/-11/-6 -34/-18/-6 
f -26/-18/-6 -25/-11/-6 -24/-10/-6 -23/-16/-6 
f -32/-16/-6 -22/-10/-6 -21/-9/-6 -30/-14/-6 
f -28/-12/-6 -20/-8/-6 -19/-7/-6 -27/-11/-6 
f -27/-11/-6 -19/-7/-6 -18/-6/-6 -22/-10/-6 
f -22/-10/-6 -18/-6/-6 -17/-5/-6 -21/-9/-6 
s 4
f -16/-4/-5 -15/-15/-5 -14/-16/-5 -13/-3/-5 
f -15/-15/-5 -12/-17/-5 -11/-18/-5 -14/-16/-5 
f -12/-17/-5 -10/-20/-5 -9/-19/-5 -11/-18/-5 
f -13/-3/-5 -14/-16/-5 -8/-10/-5 -7/-2/-5 
f -14/-16/-5 -11/-18/-5 -6/-11/-5 -8/-10/-5 
f -11/-18/-5 -9/-19/-5 -5/-12/-5 -6/-11/-5 
f -7/-2/-5 -8/-10/-5 -4/-6/-5 -3/-1/-5 
f -8/-10/-5 -6/-11/-5 -2/-7/-5 -4/-6/-5 
f -6/-11/-5 -5/-12/-5 -1/-8/-5 -2/-7/-5 
s 8
f -36/-4/-4 -33/-15/-4 -15/-6/-4 -16/-1/-4 
f -33/-15/-4 -31/-17/-4 -12/-7/-4 -15/-6/-4 
f -31/-17/-4 -29/-20/-4 -10/-8/-4 -12/-7/-4 
s 16
f -29/-4/-3 -30/-15/-3 -9/-6/-3 -10/-1/-3 
f -30/-15/-3 -21/-17/-3 -5/-7/-3 -9/-6/-3 
f -21/-17/-3 -17/-20/-3 -1/-8/-3 -5/-7/-3 
s 32
f -17/-4/-2 -18/-15/-2 -2/-6/-2 -1/-1/-2 
f -18/-15/-2 -19/-17/-2 -4/-7/-2 -2/-6/-2 
f -19/-17/-2 -20/-20/-2 -3/-8/-2 -4/-7/-2 
s 64
f -20/-4/-1 -28/-15/-1 -7/-6/-1 -3/-1/-1 
f -28/-15/-1 -35/-17/-1 -13/-7/-1 -7/-6/-1 
f -35/-17/-1 -36/-20/-1 -16/-8/-1 -13/-7/-1 
s off
f -32/-16/-2 -34/-18/-2 -26/-18/-2 -23/-16/-2 
f -34/-18/-3 -27/-11/-3 -25/-11/-3 -26/-18/-3 
f -27/-11/-4 -22/-10/-4 -24/-10/-4 -25/-11/-4 
f -22/-10/-1 -32/-16/-1 -23/-16/-1 -24/-10/-1 
# 34 polygons

