# 3ds Max Wavefront OBJ Exporter v0.97b - (c)2007 guruware
# File Created: 23.02.2017 13:31:00

mtllib Box059vMolto.mtl

#
# object Box059
#

v  47.7449 -0.2348 3.8575
v  47.7449 -0.2348 -5.7125
v  49.3200 -0.2348 -5.7125
v  47.7449 -0.2348 5.9890
v  47.7449 -0.2348 7.7022
v  49.3200 -0.2348 7.7022
v  47.7449 14.3872 7.7022
v  49.3200 14.3872 7.7022
v  49.3200 14.3872 -5.7125
v  47.7449 14.3872 5.9890
v  47.7449 14.3872 3.8575
v  47.7449 14.3872 -5.7125
v  46.7419 -0.2348 5.9890
v  46.7419 11.3872 5.9890
v  46.7419 11.3872 3.8575
v  46.7419 -0.2348 3.8575
# 16 vertices

vn 0.0000 -1.0000 -0.0000
vn 0.0000 1.0000 -0.0000
vn 0.0000 0.0000 1.0000
vn 1.0000 0.0000 -0.0000
vn 0.0000 0.0000 -1.0000
vn -1.0000 0.0000 -0.0000
vn -0.0000 -0.0000 1.0000
vn -0.8649 0.5020 -0.0000
vn 0.0000 -0.0000 -1.0000
# 9 vertex normals

vt 1.0000 0.6667 0.0000
vt 1.0000 1.0000 0.0000
vt 0.0000 1.0000 0.0000
vt 1.0000 0.3333 0.0000
vt 1.0000 0.0000 0.0000
vt 0.0000 0.0000 0.0000
vt 0.0000 0.3333 0.0000
vt 0.0000 0.6667 0.0000
vt 0.6667 0.0000 0.0000
vt 0.6667 1.0000 0.0000
vt 0.3333 1.0000 0.0000
vt 0.3333 0.0000 0.0000
# 12 texture coords

g Box059
usemtl wire_028149177
s 2
f 1/1/1 2/2/1 3/3/1 4/4/1 
f 5/5/1 4/4/1 3/3/1 6/6/1 
s 4
f 7/6/2 8/5/2 9/2/2 10/7/2 
f 11/8/2 10/7/2 9/2/2 12/3/2 
s 8
f 8/2/3 7/3/3 5/6/3 6/5/3 
s 16
f 9/2/4 8/3/4 6/6/4 3/5/4 
s 32
f 12/2/5 9/3/5 3/6/5 2/5/5 
s 64
f 13/9/6 14/10/6 15/11/6 16/12/6 
f 5/5/6 7/2/6 10/10/6 4/9/6 
f 12/3/6 2/6/6 1/12/6 11/11/6 
s off
f 1/12/1 4/9/1 13/9/1 16/12/1 
f 4/9/7 10/10/7 14/10/7 13/9/7 
f 10/10/8 11/11/8 15/11/8 14/10/8 
f 11/11/9 1/12/9 16/12/9 15/11/9 
# 14 polygons

