# 3ds Max Wavefront OBJ Exporter v0.97b - (c)2007 guruware
# File Created: 01.03.2017 13:12:25

#
# object Box101
#

v  0.7876 -9.1520 -1.7813
v  0.7876 -9.1520 2.1242
v  -0.7876 -9.1520 2.1242
v  -0.7876 -9.1520 -1.7813
v  0.7876 9.4545 -1.7772
v  -0.7875 9.4545 -1.7772
v  -0.7875 9.4545 2.1282
v  0.7876 9.4545 2.1282
# 8 vertices

vn 0.0000 -1.0000 -0.0000
vn 0.0000 1.0000 -0.0000
vn 0.0000 0.0000 1.0000
vn 1.0000 0.0000 -0.0000
vn 0.0000 0.0000 -1.0000
vn -1.0000 0.0000 -0.0000
# 6 vertex normals

vt 0.0000 1.0000 0.0000
vt 0.0000 0.0000 0.0000
vt 1.0000 0.0000 0.0000
vt 1.0000 1.0000 0.0000
# 4 texture coords

g Box101
s 2
f -8/-4/-6 -7/-3/-6 -6/-2/-6 -5/-1/-6 
s 4
f -4/-1/-5 -3/-4/-5 -2/-3/-5 -1/-2/-5 
s 8
f -1/-1/-4 -2/-4/-4 -6/-3/-4 -7/-2/-4 
s 16
f -4/-1/-3 -1/-4/-3 -7/-3/-3 -8/-2/-3 
s 32
f -3/-1/-2 -4/-4/-2 -8/-3/-2 -5/-2/-2 
s 64
f -2/-1/-1 -3/-4/-1 -5/-3/-1 -6/-2/-1 
# 6 polygons

