# 3ds Max Wavefront OBJ Exporter v0.97b - (c)2007 guruware
# File Created: 01.03.2017 14:15:35

#
# object Box106
#

v  -8.3644 0.0000 1.0975
v  -8.3644 0.0000 -1.0974
v  8.3644 -2.4706 -1.0974
v  8.3644 -2.4706 1.0975
v  -8.3644 22.1514 1.0975
v  8.3644 11.1475 1.0975
v  8.3644 11.1475 -1.0974
v  -8.3644 22.1514 -1.0974
# 8 vertices

vn -0.1461 -0.9893 -0.0000
vn 0.5496 0.8355 -0.0000
vn 0.0000 0.0000 1.0000
vn 1.0000 0.0000 -0.0000
vn 0.0000 0.0000 -1.0000
vn -1.0000 0.0000 -0.0000
# 6 vertex normals

vt 1.0000 0.0000 0.0000
vt 1.0000 1.0000 0.0000
vt 0.0000 1.0000 0.0000
vt 0.0000 0.0000 0.0000
# 4 texture coords

g Box106
s 2
f -8/-4/-6 -7/-3/-6 -6/-2/-6 -5/-1/-6 
s 4
f -4/-1/-5 -3/-4/-5 -2/-3/-5 -1/-2/-5 
s 8
f -8/-1/-4 -5/-4/-4 -3/-3/-4 -4/-2/-4 
s 16
f -5/-1/-3 -6/-4/-3 -2/-3/-3 -3/-2/-3 
s 32
f -6/-1/-2 -7/-4/-2 -1/-3/-2 -2/-2/-2 
s 64
f -7/-1/-1 -8/-4/-1 -4/-3/-1 -1/-2/-1 
# 6 polygons

