# 3ds Max Wavefront OBJ Exporter v0.97b - (c)2007 guruware
# File Created: 02.03.2017 12:33:01

mtllib conector1.mtl

#
# object conector1
#

v  -0.5037 0.0000 5.8857
v  -0.5037 0.0000 -5.8857
v  0.5037 0.0000 -5.8857
v  0.5037 0.0000 5.8857
v  -0.5037 18.2350 5.8993
v  0.5037 18.2350 5.8993
v  0.5037 18.2350 -5.8722
v  -0.5037 18.2350 -5.8722
# 8 vertices

vn 0.0000 -1.0000 -0.0000
vn 0.0000 1.0000 -0.0000
vn 0.0000 -0.0007 1.0000
vn 1.0000 -0.0000 -0.0000
vn 0.0000 0.0007 -1.0000
vn -1.0000 0.0000 -0.0000
# 6 vertex normals

vt 1.0000 0.0000 0.0000
vt 1.0000 1.0000 0.0000
vt 0.0000 1.0000 0.0000
vt 0.0000 0.0000 0.0000
# 4 texture coords

g conector1
usemtl wire_138008110
s 2
f -8/-4/-6 -7/-3/-6 -6/-2/-6 -5/-1/-6 
s 4
f -4/-1/-5 -3/-4/-5 -2/-3/-5 -1/-2/-5 
s 8
f -8/-1/-4 -5/-4/-4 -3/-3/-4 -4/-2/-4 
s 16
f -5/-1/-3 -6/-4/-3 -2/-3/-3 -3/-2/-3 
s 32
f -6/-1/-2 -7/-4/-2 -1/-3/-2 -2/-2/-2 
s 64
f -7/-1/-1 -8/-4/-1 -4/-3/-1 -1/-2/-1 
# 6 polygons

