# 3ds Max Wavefront OBJ Exporter v0.97b - (c)2007 guruware
# File Created: 21.03.2017 12:02:07

mtllib contenedor.mtl

#
# object Contenedor
#

v  3.1925 0.2163 1.8500
v  -3.1894 0.2163 1.8500
v  -3.1894 -0.8556 1.8500
v  3.1925 -0.8556 1.8500
v  3.1925 -1.7173 1.8500
v  3.1925 -1.7173 -1.8500
v  3.1925 1.4728 -1.8500
v  3.1925 1.1813 1.8500
v  3.1925 0.4363 1.8500
v  3.1925 0.3263 1.7732
v  3.1925 -0.9656 1.7732
v  3.1925 -1.0756 1.8500
v  -3.1894 -1.7173 -1.8500
v  -3.1894 1.4728 -1.8500
v  -3.1894 -1.7173 1.8500
v  -3.1894 -1.0756 1.8500
v  -3.1894 -0.9656 1.7732
v  -3.1894 0.3263 1.7732
v  -3.1894 0.4363 1.8500
v  -3.1894 1.1813 1.8500
v  0.6933 1.3841 1.9994
v  0.6933 1.6442 -1.5743
v  -1.1053 1.6442 -1.5743
v  -1.1053 1.3841 1.9994
v  3.3221 1.4415 -1.5713
v  3.3221 1.6859 -1.5713
v  3.3221 1.4257 2.0025
v  3.3221 1.1814 2.0025
v  3.3221 1.4729 -2.0025
v  -3.3190 1.4729 -2.0025
v  -3.3190 1.7173 -2.0025
v  -2.9174 1.7173 -2.0025
v  -1.5677 1.7173 -2.0025
v  -1.1053 1.7173 -2.0025
v  0.6933 1.7173 -2.0025
v  1.1084 1.7173 -2.0025
v  2.8288 1.7173 -2.0025
v  3.3221 1.7173 -2.0025
v  -3.3190 1.4415 -1.5713
v  -3.3190 1.6859 -1.5713
v  3.2184 0.5860 -1.6209
v  3.2183 0.5859 1.5890
v  3.2165 0.4182 1.5890
v  3.2166 0.4183 -1.6209
v  3.4504 0.1639 1.5894
v  3.4504 0.1640 -1.6205
v  3.4425 -0.3533 1.5890
v  3.4426 -0.3532 -1.6209
v  3.2160 -0.5516 1.5890
v  3.2160 -0.5516 -1.6209
v  3.2183 -0.7252 1.5890
v  3.2184 -0.7251 -1.6209
v  3.1923 0.4087 1.5890
v  3.1923 0.5859 1.5890
v  3.1924 0.5860 -1.6209
v  3.1924 0.4088 -1.6209
v  3.4261 0.1546 1.5894
v  3.4262 0.1547 -1.6205
v  3.4189 -0.3424 1.5890
v  3.4190 -0.3423 -1.6209
v  3.1923 -0.5409 1.5890
v  3.1924 -0.5408 -1.6209
v  3.1923 -0.7252 1.5890
v  3.1924 -0.7251 -1.6209
v  -3.2183 0.5860 -1.6209
v  -3.2165 0.4180 -1.6209
v  -3.2166 0.4179 1.5890
v  -3.2183 0.5859 1.5890
v  -3.4504 0.1637 -1.6205
v  -3.4504 0.1636 1.5894
v  -3.4425 -0.3529 -1.6209
v  -3.4426 -0.3530 1.5890
v  -3.2160 -0.5513 -1.6209
v  -3.2161 -0.5514 1.5890
v  -3.2183 -0.7251 -1.6209
v  -3.2183 -0.7252 1.5890
v  -3.1930 0.4087 1.5890
v  -3.1930 0.4088 -1.6209
v  -3.1930 0.5860 -1.6209
v  -3.1930 0.5859 1.5890
v  -3.4268 0.1546 1.5894
v  -3.4267 0.1547 -1.6205
v  -3.4196 -0.3424 1.5890
v  -3.4196 -0.3423 -1.6209
v  -3.1930 -0.5409 1.5890
v  -3.1930 -0.5408 -1.6209
v  -3.1930 -0.7252 1.5890
v  -3.1930 -0.7251 -1.6209
v  -3.2183 0.6206 1.8791
v  -2.9262 0.6206 1.8791
v  -2.9262 0.6206 1.8500
v  -3.1894 0.6206 1.8500
v  -3.2183 0.6206 1.5890
v  -3.1894 0.6206 1.5890
v  -3.2183 -0.7706 1.8791
v  -2.9262 -0.7706 1.8791
v  -3.2183 -0.7706 1.5890
v  -3.1894 -0.7706 1.5890
v  -3.1894 -0.7706 1.8500
v  -2.9262 -0.7706 1.8500
v  3.2215 0.6202 1.8790
v  3.1925 0.6202 1.8499
v  2.9294 0.6202 1.8499
v  2.9294 0.6202 1.8790
v  3.2215 0.6202 1.5888
v  3.1925 0.6202 1.5888
v  3.2215 -0.7711 1.8790
v  2.9294 -0.7711 1.8790
v  3.2215 -0.7711 1.5888
v  3.1925 -0.7711 1.5888
v  3.1925 -0.7711 1.8499
v  2.9294 -0.7711 1.8499
v  2.8288 1.3841 1.9994
v  2.8288 1.6442 -1.5743
v  1.1084 1.6442 -1.5743
v  1.1084 1.3841 1.9994
v  -1.5677 1.6859 -1.5713
v  -1.1053 1.6859 -1.5713
v  0.6933 1.6859 -1.5713
v  1.1084 1.6859 -1.5713
v  -3.3190 1.1814 2.0025
v  -3.3190 1.4257 2.0025
v  2.8288 1.6859 -1.5713
v  -2.9174 1.4257 2.0025
v  -2.9174 1.6859 -1.5713
v  -1.5677 1.3841 1.9994
v  -1.5677 1.6442 -1.5743
v  -2.9174 1.6442 -1.5743
v  -2.9174 1.3841 1.9994
v  -1.1053 1.4257 2.0025
v  -1.5677 1.4257 2.0025
v  1.1084 1.4257 2.0025
v  0.6933 1.4257 2.0025
v  2.8288 1.4257 2.0025
# 134 vertices

vn 0.0000 0.3001 0.9539
vn 0.0000 -0.3001 0.9539
vn 1.0000 0.0000 -0.0000
vn 0.0000 0.0000 -1.0000
vn -1.0000 0.0000 -0.0000
vn 0.0000 0.9974 0.0726
vn 0.9999 -0.0106 -0.0000
vn 0.9335 0.3585 -0.0000
vn 0.9336 0.3582 -0.0000
vn 0.9344 0.3561 -0.0000
vn 0.9344 0.3562 -0.0000
vn 0.9999 -0.0152 -0.0000
vn 0.6588 -0.7523 -0.0000
vn 0.9999 0.0134 -0.0000
vn -0.9316 -0.3635 -0.0000
vn -0.9317 -0.3632 -0.0000
vn -0.9343 -0.3566 -0.0000
vn -0.9342 -0.3567 -0.0000
vn -0.9999 0.0145 -0.0000
vn -0.6590 0.7522 -0.0000
vn 0.0002 -0.0006 -1.0000
vn 0.0000 1.0000 -0.0000
vn 0.0000 0.0000 1.0000
vn -0.0002 0.0006 1.0000
vn 0.0001 -0.0002 -1.0000
vn -0.0001 0.0002 1.0000
vn 0.0002 0.0004 -1.0000
vn -0.0002 -0.0004 1.0000
vn -0.9999 -0.0103 -0.0000
vn -0.9336 0.3583 -0.0000
vn -0.9335 0.3586 -0.0000
vn -0.9344 0.3562 -0.0000
vn -0.9344 0.3561 -0.0000
vn -0.9999 -0.0152 -0.0000
vn -0.6588 -0.7523 -0.0000
vn -0.9999 0.0130 -0.0000
vn 0.9316 -0.3635 -0.0000
vn 0.9317 -0.3632 -0.0000
vn 0.9343 -0.3566 -0.0000
vn 0.9342 -0.3567 -0.0000
vn 0.9999 0.0145 -0.0000
vn 0.6590 0.7522 -0.0000
vn 0.0002 0.0006 1.0000
vn -0.0002 -0.0006 -1.0000
vn 0.0001 0.0002 1.0000
vn -0.0001 -0.0002 -1.0000
vn 0.0002 -0.0004 1.0000
vn -0.0002 0.0004 -1.0000
vn 0.0000 0.5726 0.8199
vn 0.0000 -0.5726 0.8199
vn 0.0000 -0.0726 0.9974
vn -0.0016 0.0005 1.0000
vn -0.0254 -0.0514 0.9984
vn -0.0150 -0.0215 0.9997
vn 0.0000 -0.0142 0.9999
vn 0.0009 -0.0141 0.9999
vn 0.0071 -0.0048 1.0000
vn 0.0053 0.0045 1.0000
# 58 vertex normals

vt 0.7325 0.1520 0.0000
vt 0.2778 0.1520 0.0000
vt 0.2778 0.0756 0.0000
vt 0.7325 0.0756 0.0000
vt 0.7325 0.0142 0.0000
vt 0.9962 0.0142 0.0000
vt 0.9962 0.2336 0.0000
vt 0.7328 0.2336 0.0000
vt 0.7328 0.1728 0.0000
vt 0.7380 0.1598 0.0000
vt 0.7380 0.0677 0.0000
vt 0.7325 0.0582 0.0000
vt 0.7699 0.9735 0.0000
vt 0.7699 0.5187 0.0000
vt 0.9893 0.5187 0.0000
vt 0.9893 0.9735 0.0000
vt 0.0141 0.0142 0.0000
vt 0.2778 0.0142 0.0000
vt 0.2778 0.0582 0.0000
vt 0.2723 0.0677 0.0000
vt 0.2723 0.1598 0.0000
vt 0.2781 0.1728 0.0000
vt 0.2781 0.2336 0.0000
vt 0.0141 0.2336 0.0000
vt 0.2934 0.9416 0.0000
vt 0.2934 0.6009 0.0000
vt 0.4625 0.6009 0.0000
vt 0.4625 0.9416 0.0000
vt 0.0095 0.5974 0.0000
vt 0.0325 0.5974 0.0000
vt 0.0331 0.9416 0.0000
vt 0.0095 0.9416 0.0000
vt 0.0325 0.5458 0.0000
vt 0.6849 0.5458 0.0000
vt 0.6849 0.5549 0.0000
vt 0.6486 0.5549 0.0000
vt 0.5091 0.5549 0.0000
vt 0.4678 0.5549 0.0000
vt 0.2914 0.5549 0.0000
vt 0.2499 0.5549 0.0000
vt 0.0808 0.5549 0.0000
vt 0.0325 0.5549 0.0000
vt 0.7061 0.5549 0.0000
vt 0.7061 0.5974 0.0000
vt 0.6849 0.5974 0.0000
vt 0.9858 0.4994 0.0000
vt 0.5570 0.4994 0.0000
vt 0.5570 0.4733 0.0000
vt 0.9858 0.4733 0.0000
vt 0.5570 0.4396 0.0000
vt 0.9858 0.4396 0.0000
vt 0.5570 0.3757 0.0000
vt 0.9858 0.3757 0.0000
vt 0.5570 0.3278 0.0000
vt 0.9858 0.3278 0.0000
vt 0.5570 0.2983 0.0000
vt 0.9858 0.2983 0.0000
vt 0.9881 0.4733 0.0000
vt 0.9881 0.4994 0.0000
vt 0.9858 0.5029 0.0000
vt 0.5570 0.5029 0.0000
vt 0.5548 0.4994 0.0000
vt 0.5548 0.4733 0.0000
vt 0.9881 0.4396 0.0000
vt 0.5548 0.4396 0.0000
vt 0.9881 0.3757 0.0000
vt 0.5548 0.3757 0.0000
vt 0.9881 0.3278 0.0000
vt 0.5548 0.3278 0.0000
vt 0.9881 0.2983 0.0000
vt 0.5548 0.2983 0.0000
vt 0.5572 0.4997 0.0000
vt 0.5572 0.4676 0.0000
vt 0.9856 0.4676 0.0000
vt 0.9856 0.4997 0.0000
vt 0.5572 0.4336 0.0000
vt 0.9856 0.4336 0.0000
vt 0.5572 0.3739 0.0000
vt 0.9856 0.3739 0.0000
vt 0.5572 0.3246 0.0000
vt 0.9856 0.3249 0.0000
vt 0.5572 0.2972 0.0000
vt 0.9856 0.2972 0.0000
vt 0.9941 0.4676 0.0000
vt 0.9941 0.4997 0.0000
vt 0.9856 0.5025 0.0000
vt 0.5572 0.5025 0.0000
vt 0.5496 0.4997 0.0000
vt 0.5496 0.4676 0.0000
vt 0.9941 0.4336 0.0000
vt 0.5496 0.4336 0.0000
vt 0.9941 0.3739 0.0000
vt 0.5496 0.3739 0.0000
vt 0.9941 0.3246 0.0000
vt 0.5496 0.3246 0.0000
vt 0.9941 0.2972 0.0000
vt 0.5496 0.2972 0.0000
vt 0.7326 0.1624 0.0000
vt 0.2779 0.1624 0.0000
vt 0.2778 0.0660 0.0000
vt 0.7325 0.0660 0.0000
vt 0.2901 0.2399 0.0000
vt 0.5879 0.2399 0.0000
vt 0.5879 0.2696 0.0000
vt 0.3196 0.2696 0.0000
vt 0.2901 0.5356 0.0000
vt 0.3196 0.5356 0.0000
vt 0.3584 0.2399 0.0000
vt 0.4209 0.2399 0.0000
vt 0.4209 0.5376 0.0000
vt 0.3584 0.5376 0.0000
vt 0.2963 0.2399 0.0000
vt 0.2963 0.5376 0.0000
vt 0.2901 0.5376 0.0000
vt 0.4835 0.2399 0.0000
vt 0.5393 0.2399 0.0000
vt 0.5393 0.5376 0.0000
vt 0.4835 0.5376 0.0000
vt 0.4271 0.2399 0.0000
vt 0.4271 0.5376 0.0000
vt 0.0186 0.5343 0.0000
vt 0.0447 0.5079 0.0000
vt 0.2819 0.5079 0.0000
vt 0.2819 0.5343 0.0000
vt 0.0186 0.2710 0.0000
vt 0.0447 0.2710 0.0000
vt 0.2158 0.5343 0.0000
vt 0.2158 0.2710 0.0000
vt 0.2819 0.2710 0.0000
vt 0.1502 0.5343 0.0000
vt 0.1502 0.2710 0.0000
vt 0.1437 0.5343 0.0000
vt 0.1437 0.2710 0.0000
vt 0.0847 0.5343 0.0000
vt 0.0847 0.2710 0.0000
vt 0.0252 0.5343 0.0000
vt 0.0252 0.2710 0.0000
vt 0.0826 0.9416 0.0000
vt 0.0826 0.6009 0.0000
vt 0.2460 0.6009 0.0000
vt 0.2460 0.9416 0.0000
vt 0.5091 0.5974 0.0000
vt 0.4678 0.5974 0.0000
vt 0.2914 0.5974 0.0000
vt 0.2499 0.5974 0.0000
vt 0.0095 0.5549 0.0000
vt 0.7061 0.9416 0.0000
vt 0.6849 0.9416 0.0000
vt 0.0808 0.5974 0.0000
vt 0.6486 0.9416 0.0000
vt 0.6486 0.5974 0.0000
vt 0.5140 0.9416 0.0000
vt 0.5140 0.6009 0.0000
vt 0.6407 0.6009 0.0000
vt 0.6407 0.9416 0.0000
vt 0.4678 0.9416 0.0000
vt 0.5091 0.9416 0.0000
vt 0.2499 0.9416 0.0000
vt 0.2914 0.9416 0.0000
vt 0.0802 0.9416 0.0000
vt 0.0338 0.9859 0.0000
vt 0.0795 0.9492 0.0000
vt 0.2390 0.9492 0.0000
vt 0.2390 0.9416 0.0000
vt 0.2775 0.9416 0.0000
vt 0.2775 0.9492 0.0000
vt 0.4442 0.9492 0.0000
vt 0.4442 0.9416 0.0000
vt 0.4871 0.9416 0.0000
vt 0.4871 0.9492 0.0000
vt 0.6122 0.9492 0.0000
vt 0.6122 0.9416 0.0000
vt 0.6494 0.9416 0.0000
vt 0.6494 0.9859 0.0000
# 174 texture coords

g Contenedor
usemtl Material__3
s 1
f 1/1/1 2/2/1 3/3/2 
f 3/3/2 4/4/2 1/1/1 
s 2
f 5/5/3 6/6/3 7/7/3 
f 7/7/3 8/8/3 9/9/3 
f 7/7/3 9/9/3 10/10/3 
f 10/10/3 1/1/3 4/4/3 
f 10/10/3 4/4/3 11/11/3 
f 7/7/3 10/10/3 11/11/3 
f 5/5/3 7/7/3 11/11/3 
f 5/5/3 11/11/3 12/12/3 
s 1
f 6/13/4 13/14/4 14/15/4 
f 14/15/4 7/16/4 6/13/4 
s 2
f 13/17/5 15/18/5 16/19/5 
f 13/17/5 16/19/5 17/20/5 
f 17/20/5 3/3/5 2/2/5 
f 17/20/5 2/2/5 18/21/5 
f 13/17/5 17/20/5 18/21/5 
f 18/21/5 19/22/5 20/23/5 
f 13/17/5 18/21/5 20/23/5 
f 13/17/5 20/23/5 14/24/5 
s 1
f 21/25/6 22/26/6 23/27/6 
f 23/27/6 24/28/6 21/25/6 
f 25/29/3 26/30/3 27/31/3 
f 27/31/3 28/32/3 25/29/3 
s 2
f 29/33/4 30/34/4 31/35/4 
f 29/33/4 31/35/4 32/36/4 
f 29/33/4 32/36/4 33/37/4 
f 29/33/4 33/37/4 34/38/4 
f 29/33/4 34/38/4 35/39/4 
f 29/33/4 35/39/4 36/40/4 
f 29/33/4 36/40/4 37/41/4 
f 29/33/4 37/41/4 38/42/4 
s 1
f 30/43/5 39/44/5 40/45/5 
f 40/45/5 31/35/5 30/43/5 
f 41/46/7 42/47/7 43/48/8 
f 43/48/8 44/49/9 41/46/7 
f 44/49/9 43/48/8 45/50/10 
f 45/50/10 46/51/11 44/49/9 
f 46/51/11 45/50/10 47/52/12 
f 47/52/12 48/53/12 46/51/11 
s 2
f 48/53/13 47/52/13 49/54/13 
f 49/54/13 50/55/13 48/53/13 
s 1
f 50/55/14 49/54/14 51/56/14 
f 51/56/14 52/57/14 50/55/14 
f 53/46/15 54/47/5 55/48/5 
f 55/48/5 56/49/16 53/46/15 
f 57/49/17 53/48/15 56/50/16 
f 56/50/16 58/51/18 57/49/17 
f 59/51/19 57/50/17 58/52/18 
f 58/52/18 60/53/19 59/51/19 
s 2
f 61/53/20 59/52/20 60/54/20 
f 60/54/20 62/55/20 61/53/20 
s 1
f 63/55/5 61/54/5 62/56/5 
f 62/56/5 64/57/5 63/55/5 
s 4
f 56/58/21 55/59/4 41/46/4 
f 41/46/4 44/49/21 56/58/21 
s 2
f 55/60/22 54/61/22 42/47/22 
f 42/47/22 41/46/22 55/60/22 
s 4
f 54/62/23 53/63/24 43/48/24 
f 43/48/24 42/47/23 54/62/23 
f 58/64/25 56/58/21 44/49/21 
f 44/49/21 46/51/25 58/64/25 
f 53/63/24 57/65/26 45/50/26 
f 45/50/26 43/48/24 53/63/24 
f 60/66/27 58/64/25 46/51/25 
f 46/51/25 48/53/27 60/66/27 
f 57/65/26 59/67/28 47/52/28 
f 47/52/28 45/50/26 57/65/26 
f 62/68/4 60/66/27 48/53/27 
f 48/53/27 50/55/4 62/68/4 
f 59/67/28 61/69/23 49/54/23 
f 49/54/23 47/52/28 59/67/28 
f 64/70/4 62/68/4 50/55/4 
f 50/55/4 52/57/4 64/70/4 
f 61/69/23 63/71/23 51/56/23 
f 51/56/23 49/54/23 61/69/23 
s 1
f 65/72/29 66/73/30 67/74/31 
f 67/74/31 68/75/29 65/72/29 
f 66/73/30 69/76/32 70/77/33 
f 70/77/33 67/74/31 66/73/30 
f 69/76/32 71/78/34 72/79/34 
f 72/79/34 70/77/33 69/76/32 
s 2
f 71/78/35 73/80/35 74/81/35 
f 74/81/35 72/79/35 71/78/35 
s 1
f 73/80/36 75/82/36 76/83/36 
f 76/83/36 74/81/36 73/80/36 
f 77/72/37 78/73/38 79/74/3 
f 79/74/3 80/75/3 77/72/37 
f 81/73/39 82/76/40 78/77/38 
f 78/77/38 77/74/37 81/73/39 
f 83/76/41 84/78/41 82/79/40 
f 82/79/40 81/77/39 83/76/41 
s 2
f 85/78/42 86/80/42 84/81/42 
f 84/81/42 83/79/42 85/78/42 
s 1
f 87/80/3 88/82/3 86/83/3 
f 86/83/3 85/81/3 87/80/3 
s 4
f 77/84/43 80/85/23 68/75/23 
f 68/75/23 67/74/43 77/84/43 
s 2
f 80/86/22 79/87/22 65/72/22 
f 65/72/22 68/75/22 80/86/22 
s 4
f 79/88/4 78/89/44 66/73/44 
f 66/73/44 65/72/4 79/88/4 
f 81/90/45 77/84/43 67/74/43 
f 67/74/43 70/77/45 81/90/45 
f 78/89/44 82/91/46 69/76/46 
f 69/76/46 66/73/44 78/89/44 
f 83/92/47 81/90/45 70/77/45 
f 70/77/45 72/79/47 83/92/47 
f 82/91/46 84/93/48 71/78/48 
f 71/78/48 69/76/46 82/91/46 
f 85/94/23 83/92/47 72/79/47 
f 72/79/47 74/81/23 85/94/23 
f 84/93/48 86/95/4 73/80/4 
f 73/80/4 71/78/48 84/93/48 
f 87/96/23 85/94/23 74/81/23 
f 74/81/23 76/83/23 87/96/23 
f 86/95/4 88/97/4 75/82/4 
f 75/82/4 73/80/4 86/95/4 
f 8/8/23 20/23/23 19/22/2 
f 19/22/2 9/9/2 8/8/23 
f 15/18/23 5/5/23 12/12/1 
f 12/12/1 16/19/1 15/18/23 
s 1
f 10/98/49 18/99/49 2/2/1 
f 2/2/1 1/1/1 10/98/49 
f 17/100/50 11/101/50 4/4/2 
f 4/4/2 3/3/2 17/100/50 
s 4
f 16/19/1 12/12/1 11/101/49 
f 11/101/49 17/100/49 16/19/1 
f 9/9/2 19/22/2 18/99/50 
f 18/99/50 10/98/50 9/9/2 
s 1
f 89/102/22 90/103/22 91/104/22 
f 91/104/22 92/105/22 89/102/22 
f 93/106/22 89/102/22 92/105/22 
f 92/105/22 94/107/22 93/106/22 
f 95/108/23 96/109/23 90/110/23 
f 90/110/23 89/111/23 95/108/23 
s 2
f 97/112/5 95/108/5 89/111/5 
f 89/111/5 93/113/5 97/112/5 
s 1
f 98/102/4 97/112/4 93/113/4 
f 93/113/4 94/114/4 98/102/4 
s 2
f 99/115/3 98/116/3 94/117/3 
f 94/117/3 92/118/3 99/115/3 
s 1
f 100/119/4 99/115/4 92/118/4 
f 92/118/4 91/120/4 100/119/4 
s 2
f 96/109/3 100/119/3 91/120/3 
f 91/120/3 90/110/3 96/109/3 
s 1
f 101/121/22 102/122/22 103/123/22 
f 103/123/22 104/124/22 101/121/22 
f 105/125/22 106/126/22 102/122/22 
f 102/122/22 101/121/22 105/125/22 
f 107/127/23 101/128/23 104/129/23 
f 104/129/23 108/124/23 107/127/23 
s 2
f 109/130/3 105/131/3 101/128/3 
f 101/128/3 107/127/3 109/130/3 
s 1
f 110/132/4 106/133/4 105/131/4 
f 105/131/4 109/130/4 110/132/4 
s 2
f 111/134/5 102/135/5 106/133/5 
f 106/133/5 110/132/5 111/134/5 
s 1
f 112/136/4 103/137/4 102/135/4 
f 102/135/4 111/134/4 112/136/4 
s 2
f 108/121/5 104/125/5 103/137/5 
f 103/137/5 112/136/5 108/121/5 
s 1
f 113/138/6 114/139/6 115/140/6 
f 115/140/6 116/141/6 113/138/6 
s 4
f 33/37/6 117/142/6 118/143/6 
f 118/143/6 34/38/6 33/37/6 
f 36/40/6 35/39/6 119/144/6 
f 119/144/6 120/145/6 36/40/6 
s 1
f 29/146/3 38/42/3 26/30/3 
f 26/30/3 25/29/3 29/146/3 
f 39/44/5 121/147/5 122/148/5 
f 122/148/5 40/45/5 39/44/5 
s 4
f 38/42/6 37/41/6 123/149/6 
f 123/149/6 26/30/6 38/42/6 
f 122/148/6 124/150/6 125/151/6 
f 125/151/6 40/45/6 122/148/6 
f 31/35/6 40/45/6 125/151/6 
f 125/151/6 32/36/6 31/35/6 
s 1
f 126/152/6 127/153/6 128/154/6 
f 128/154/6 129/155/6 126/152/6 
s 4
f 32/36/6 125/151/6 117/142/6 
f 117/142/6 33/37/6 32/36/6 
f 130/156/6 118/143/6 117/142/6 
f 117/142/6 131/157/6 130/156/6 
f 132/158/6 120/145/6 119/144/6 
f 119/144/6 133/159/6 132/158/6 
f 34/38/6 118/143/6 119/144/6 
f 119/144/6 35/39/6 34/38/6 
f 27/31/6 26/30/6 123/149/6 
f 123/149/6 134/160/6 27/31/6 
f 36/40/6 120/145/6 123/149/6 
f 123/149/6 37/41/6 36/40/6 
s 2
f 133/159/5 119/144/5 22/26/5 
f 22/26/5 21/25/5 133/159/5 
s 8
f 119/144/51 118/143/51 23/27/51 
f 23/27/51 22/26/51 119/144/51 
s 2
f 118/143/3 130/156/3 24/28/3 
f 24/28/3 23/27/3 118/143/3 
f 134/160/5 123/149/5 114/139/5 
f 114/139/5 113/138/5 134/160/5 
s 8
f 123/149/51 120/145/51 115/140/51 
f 115/140/51 114/139/51 123/149/51 
s 2
f 120/145/3 132/158/3 116/141/3 
f 116/141/3 115/140/3 120/145/3 
f 131/157/5 117/142/5 127/153/5 
f 127/153/5 126/152/5 131/157/5 
s 8
f 117/142/51 125/151/51 128/154/51 
f 128/154/51 127/153/51 117/142/51 
s 2
f 125/151/3 124/150/3 129/155/3 
f 129/155/3 128/154/3 125/151/3 
s 8
f 28/161/52 27/31/23 134/160/53 
f 28/161/52 134/160/53 113/162/54 
f 116/163/55 132/164/51 133/165/51 
f 116/163/55 133/165/51 21/166/55 
f 24/167/55 130/168/51 131/169/51 
f 24/167/55 131/169/51 126/170/55 
f 129/171/56 124/172/51 122/173/57 
f 129/171/56 122/173/57 121/174/58 
f 126/170/55 129/171/56 121/174/58 
f 24/167/55 126/170/55 121/174/58 
f 21/166/55 24/167/55 121/174/58 
f 116/163/55 21/166/55 121/174/58 
f 113/162/54 116/163/55 121/174/58 
f 28/161/52 113/162/54 121/174/58 
# 0 polygons - 224 triangles

