# This file uses centimeters as units for non-parametric coordinates.
mtllib CT5.mtl
g default
v -0.788201 9.239700 11.342950
v -0.787550 -9.236900 -1.467000
v -0.788301 -9.234000 11.342050
v -0.787500 9.236750 -1.466000
v -0.788200 9.231600 14.881500
v -0.788292 -5.826700 11.342499
v -0.788300 -5.826700 14.877500
v 0.786800 9.231600 11.319000
v 0.786800 9.231600 14.881500
v -0.786800 9.233800 -14.880600
v -0.786800 -9.239800 -5.311600
v -0.786800 9.233800 -5.310600
v -0.786800 -9.239700 -14.881600
v -0.786800 9.233800 -3.179100
v -0.786800 -9.239800 -3.180000
v 0.786800 -5.826700 14.877501
v 0.786801 -5.826700 11.342499
v 0.786798 -9.234000 11.342050
v 0.786798 -9.236900 -1.467000
v 0.786798 -9.236900 -3.180000
v 0.786798 -9.236900 -14.881600
v 0.786800 9.236750 -1.466000
v 0.786800 9.236750 -3.179100
v 0.786800 9.236750 -5.310600
v 0.786800 9.236750 -14.880600
vt 0.431000 0.388300
vt 0.163000 0.002000
vt 0.430900 0.002000
vt 0.163100 0.388300
vt 0.425700 0.706800
vt 0.351200 0.392000
vt 0.425700 0.392000
vt 0.351300 0.706800
vt 0.438000 0.388300
vt 0.638100 0.002000
vt 0.638100 0.388300
vt 0.438000 0.002000
vt 0.680000 0.002000
vt 0.644200 0.388300
vt 0.644200 0.002000
vt 0.680100 0.388300
vt 0.000000 1.000000
vt 0.104593 1.000000
vt 0.104600 0.000000
vt 0.000000 0.000000
vt 1.000000 0.000000
vt 0.989177 0.103468
vt 0.000000 0.000000
vt 1.000000 0.000000
vt 0.000063 0.236580
vt 0.000000 0.000000
vt 1.000000 0.000000
vt 0.947458 0.222338
vt 0.430918 0.070641
vt 0.000000 1.000000
vt 0.462270 1.000000
vt 0.462273 0.000000
vt 0.724449 0.000000
vt 0.968000 0.000000
vt 0.000000 1.000000
vt 0.000000 0.000000
vt 1.000000 0.000000
vt 1.000000 0.445096
vt 0.000000 0.000000
vt 1.000000 0.000000
vt 0.159708 0.374017
vt 0.000000 0.000000
vt 1.000000 0.000000
vt 0.998123 0.122962
vt 0.175921 0.000000
vt 1.000000 0.000000
vt 0.000000 0.594162
vt 0.000000 0.000000
vt 1.000000 0.000000
vt 0.999624 0.918976
vt 0.000000 0.000000
vt 0.249012 0.000000
vt 0.061950 1.000000
vt 0.000000 0.000000
vt 1.000000 0.000000
vt 1.000000 0.738261
vt 0.000000 0.000000
vt 0.286879 0.000000
vt 0.022603 1.000000
vt 0.000000 0.000000
vt 1.000000 0.000000
vt 1.000000 0.164431
vt 0.031685 0.000000
vt 1.000000 0.000000
vt 0.000000 0.930668
vt 0.000000 0.000000
vt 0.999840 0.000000
vt 1.000000 0.085168
vt 0.001779 0.000000
vt 0.086960 0.000000
vt 0.000000 1.000000
vt 0.000000 0.000000
vt 0.633421 0.000000
vt 0.633367 1.000000
vt 0.000000 0.000000
vt 1.000000 0.000000
vt 0.765831 0.369720
vt 0.000000 0.000000
vt 0.092727 0.000000
vt 0.208059 1.000000
vt 0.000000 0.000000
vt 1.000000 0.000000
vt 0.976990 0.110593
vt 0.000000 0.000000
vt 1.000000 0.000000
vt 0.991479 0.091942
vt 0.000000 0.000000
vt 0.693369 0.000000
vt 0.693088 1.000000
vt 0.000000 0.000000
vt 1.000000 0.000000
vt 0.675690 0.467292
vn -1.000000 0.000005 -0.000059
vn -1.000000 0.000005 -0.000059
vn -1.000000 0.000005 -0.000059
vn -1.000000 0.000005 -0.000059
vn -1.000000 0.000003 -0.000055
vn -1.000000 0.000003 -0.000055
vn -1.000000 0.000003 -0.000055
vn -1.000000 0.000007 -0.000002
vn -1.000000 0.000007 -0.000002
vn -1.000000 0.000007 -0.000002
vn -1.000000 0.000006 0.000000
vn -1.000000 0.000006 0.000000
vn -1.000000 0.000006 0.000000
vn -1.000000 0.000000 0.000000
vn -1.000000 0.000000 0.000000
vn -1.000000 0.000000 0.000000
vn -1.000000 -0.000000 0.000000
vn -1.000000 -0.000000 0.000000
vn -1.000000 -0.000000 0.000000
vn -1.000000 0.000000 -0.000438
vn -1.000000 0.000000 -0.000438
vn -1.000000 0.000000 -0.000438
vn -1.000000 0.000003 -0.000409
vn -1.000000 0.000003 -0.000409
vn -1.000000 0.000003 -0.000409
vn 0.000000 -0.000266 1.000000
vn 0.000000 -0.000266 1.000000
vn 0.000000 -0.000266 1.000000
vn -0.000001 -0.000266 1.000000
vn -0.000001 -0.000266 1.000000
vn -0.000001 -0.000266 1.000000
vn 1.000000 0.000000 0.000000
vn 1.000000 0.000000 0.000000
vn 1.000000 0.000000 0.000000
vn 1.000000 0.000000 0.000000
vn 1.000000 0.000000 0.000000
vn 1.000000 0.000000 0.000000
vn 0.000000 -0.000132 1.000000
vn 0.000000 -0.000132 1.000000
vn 0.000000 -0.000132 1.000000
vn 0.000000 -0.000132 1.000000
vn 0.000000 -0.000132 1.000000
vn 0.000000 -0.000132 1.000000
vn 0.000000 0.999997 0.002289
vn 0.000000 0.999997 0.002289
vn 0.000000 0.999997 0.002289
vn 0.005143 0.999987 0.000000
vn 0.005143 0.999987 0.000000
vn 0.005143 0.999987 0.000000
vn -1.000000 0.000000 0.000000
vn -1.000000 0.000000 0.000000
vn -1.000000 0.000000 0.000000
vn -1.000000 0.000000 0.000000
vn 0.005140 0.999987 -0.000230
vn 0.005140 0.999987 -0.000230
vn 0.005140 0.999987 -0.000230
vn 0.000000 1.000000 0.000403
vn 0.000000 1.000000 0.000403
vn 0.000000 1.000000 0.000403
vn 0.000000 0.999999 -0.001721
vn 0.000000 0.999999 -0.001721
vn 0.000000 0.999999 -0.001721
vn -0.001874 0.999998 0.000000
vn -0.001874 0.999998 0.000000
vn -0.001874 0.999998 0.000000
vn -0.001874 0.999998 0.000000
vn -0.001874 0.999998 0.000000
vn -0.001874 0.999998 0.000000
vn -0.001874 0.999998 0.000000
vn -0.001874 0.999998 0.000000
vn -0.001874 0.999998 0.000000
vn -0.001874 0.999998 0.000000
vn -0.001874 0.999998 0.000000
vn -0.001874 0.999998 0.000000
vn -0.001874 0.999998 0.000000
vn -0.001874 0.999998 0.000000
vn -0.001874 0.999998 0.000000
vn -0.000002 0.000054 -1.000000
vn -0.000002 0.000054 -1.000000
vn -0.000002 0.000054 -1.000000
vn 0.000000 0.000054 -1.000000
vn 0.000000 0.000054 -1.000000
vn 0.000000 0.000054 -1.000000
vn 1.000000 -0.000000 0.000000
vn 1.000000 -0.000000 0.000000
vn 1.000000 -0.000000 0.000000
vn 1.000000 -0.000000 0.000000
vn 1.000000 -0.000000 0.000000
vn 1.000000 -0.000000 0.000000
vn 1.000000 -0.000000 0.000000
vn 1.000000 -0.000000 0.000000
vn 1.000000 -0.000000 0.000000
vn 1.000000 -0.000000 0.000000
vn 1.000000 -0.000000 0.000000
vn 1.000000 -0.000000 0.000000
vn 1.000000 -0.000000 0.000000
vn 1.000000 -0.000000 0.000000
vn 1.000000 -0.000000 0.000000
vn 1.000000 -0.000000 0.000000
vn 1.000000 -0.000000 0.000000
vn 1.000000 -0.000000 0.000000
vn 1.000000 -0.000000 -0.000000
vn 1.000000 -0.000000 -0.000000
vn 1.000000 -0.000000 -0.000000
s off
g CT5:CT5
f 1/1/1 2/2/2 3/3/3 6/29/4
f 1/1/5 4/4/6 2/2/7
f 5/5/8 6/6/9 7/7/10
f 5/5/11 1/8/12 6/6/13
f 10/9/14 11/10/15 12/11/16
f 10/9/17 13/12/18 11/10/19
f 2/13/20 14/14/21 15/15/22
f 2/13/23 4/16/24 14/14/25
f 9/17/26 5/18/27 7/19/28
f 9/20/29 7/21/30 16/22/31
f 9/23/32 16/24/33 8/25/34
f 8/26/35 16/27/36 17/28/37
f 17/30/38 6/31/39 3/32/40
f 17/33/41 3/34/42 18/35/43
f 1/36/44 5/37/45 9/38/46
f 1/39/47 9/40/48 8/41/49
f 12/11/50 11/10/51 15/15/52 14/14/53
f 4/42/54 1/43/55 8/44/56
f 4/45/57 8/46/58 22/47/59
f 14/48/60 4/49/61 22/50/62
f 14/51/63 22/52/64 23/53/65
f 12/54/66 14/55/67 23/56/68
f 12/57/69 23/58/70 24/59/71
f 10/60/72 12/61/73 24/62/74
f 10/63/75 24/64/76 25/65/77
f 13/66/78 10/67/79 25/68/80
f 21/69/81 13/70/82 25/71/83
f 20/72/84 21/73/85 25/74/86
f 20/75/87 25/76/88 24/77/89
f 19/78/90 20/79/91 24/80/92
f 19/81/93 24/82/94 23/83/95
f 19/84/96 23/85/97 22/86/98
f 18/87/99 19/88/100 22/89/101
f 18/90/102 22/91/103 8/92/104
