# 3ds Max Wavefront OBJ Exporter v0.97b - (c)2007 guruware
# File Created: 13.03.2017 20:47:53

mtllib CT8.mtl

#
# object CT8
#

v  -0.0001 -8.0053 1.0000
v  -0.0001 8.0053 -1.0000
v  -0.0001 8.0053 1.0000
v  -0.0001 -8.0053 -1.0000
# 4 vertices

vn 1.0000 0.0000 -0.0000
# 1 vertex normals

vt 0.7401 0.0020 0.0000
vt 0.7819 0.3368 0.0000
vt 0.7401 0.3368 0.0000
vt 0.7819 0.0020 0.0000
# 4 texture coords

g CT8
usemtl CT2Window
s off
f 1/1/1 2/2/1 3/3/1 
f 1/1/1 4/4/1 2/2/1 
# 0 polygons - 2 triangles

