# 3ds Max Wavefront OBJ Exporter v0.97b - (c)2007 guruware
# File Created: 03.03.2017 12:22:18

mtllib floorJungle.mtl

#
# object floorJungle
#

v  6.7616 0.7684 -6.1257
v  -6.7616 0.7684 6.1257
v  6.7616 0.7684 6.1257
v  -6.7616 0.7684 -6.1257
v  -6.7616 -0.7684 -6.1257
v  -6.7616 -0.7684 6.1257
# 6 vertices

vn 0.0000 1.0000 -0.0000
vn -1.0000 0.0000 -0.0000
# 2 vertex normals

vt 0.4268 0.2042 0.0000
vt 0.2707 0.3766 0.0000
vt 0.2707 0.2042 0.0000
vt 0.4268 0.3766 0.0000
vt 0.3180 0.3806 0.0000
vt 0.2984 0.5367 0.0000
vt 0.2984 0.3806 0.0000
vt 0.3180 0.5367 0.0000
# 8 texture coords

g floorJungle
usemtl _FinalWindowTexturedblinn1SG
s off
f -6/-8/-2 -5/-7/-2 -4/-6/-2 
f -6/-8/-2 -3/-5/-2 -5/-7/-2 
f -5/-4/-1 -2/-3/-1 -1/-2/-1 
f -5/-4/-1 -3/-1/-1 -2/-3/-1 
# 0 polygons - 4 triangles

