# 3ds Max Wavefront OBJ Exporter v0.97b - (c)2007 guruware
# File Created: 03.03.2017 12:22:19

mtllib floorWindow1.mtl

#
# object floorWindow1
#

v  8.8940 -2.9236 -6.0649
v  8.8940 -4.4604 4.3849
v  8.8940 -4.4604 -6.0649
v  8.8940 -2.9236 4.3849
v  0.2883 -2.9236 4.3849
v  0.2883 -2.9236 -6.0649
v  0.2883 -4.4604 -6.0649
v  0.2883 -4.4604 4.3849
# 8 vertices

vn 1.0000 0.0000 -0.0000
vn 0.0000 1.0000 -0.0000
vn -1.0000 0.0000 -0.0000
# 3 vertex normals

vt 0.5733 0.6885 0.0000
vt 0.5537 0.8217 0.0000
vt 0.5537 0.6885 0.0000
vt 0.5733 0.8217 0.0000
vt 0.6907 0.8217 0.0000
vt 0.5810 0.6885 0.0000
vt 0.6907 0.6885 0.0000
vt 0.5810 0.8217 0.0000
vt 0.5460 0.6885 0.0000
vt 0.5265 0.8217 0.0000
vt 0.5265 0.6885 0.0000
vt 0.5460 0.8217 0.0000
# 12 texture coords

g floorWindow1
usemtl _FinalWindowTexturedblinn1SG
s off
f -8/-12/-3 -7/-11/-3 -6/-10/-3 
f -8/-12/-3 -5/-9/-3 -7/-11/-3 
f -8/-8/-2 -4/-7/-2 -5/-6/-2 
f -8/-8/-2 -3/-5/-2 -4/-7/-2 
f -4/-4/-1 -2/-3/-1 -1/-2/-1 
f -4/-4/-1 -3/-1/-1 -2/-3/-1 
# 0 polygons - 6 triangles

