# 3ds Max Wavefront OBJ Exporter v0.97b - (c)2007 guruware
# File Created: 10.03.2017 19:43:06

mtllib initialShadingGroup_Script_Box_35_Box_34.mtl

#
# object initialShadingGroup_Script_Box_35_Box_34
#

v  -0.3035 0.0187 0.4332
v  -0.2421 0.0187 0.4210
v  -0.2421 0.0187 0.4332
v  -0.3035 0.0187 0.4210
v  -0.3035 0.1485 0.4332
v  -0.2421 0.1485 0.4210
v  -0.3035 0.1485 0.4210
v  -0.2421 0.1485 0.4332
# 8 vertices

vn 0.0000 -1.0000 -0.0000
vn 0.0000 1.0000 -0.0000
vn 0.0000 0.0000 1.0000
vn 1.0000 0.0000 -0.0000
vn 0.0000 0.0000 -1.0000
vn -1.0000 0.0000 -0.0000
# 6 vertex normals

vt 1.0000 0.0000 0.0000
vt 0.0000 1.0000 0.0000
vt 0.0000 0.0000 0.0000
vt 1.0000 1.0000 0.0000
# 4 texture coords

g initialShadingGroup_Script_Box_35_Box_34
usemtl default
s off
f -8/-4/-6 -7/-3/-6 -6/-2/-6 
f -8/-4/-6 -5/-1/-6 -7/-3/-6 
f -4/-2/-5 -3/-1/-5 -2/-3/-5 
f -4/-2/-5 -1/-4/-5 -3/-1/-5 
f -8/-2/-4 -1/-1/-4 -4/-3/-4 
f -8/-2/-4 -6/-4/-4 -1/-1/-4 
f -6/-2/-3 -3/-1/-3 -1/-3/-3 
f -6/-2/-3 -7/-4/-3 -3/-1/-3 
f -7/-2/-2 -2/-1/-2 -3/-3/-2 
f -7/-2/-2 -5/-4/-2 -2/-1/-2 
f -5/-2/-1 -4/-1/-1 -2/-3/-1 
f -5/-2/-1 -8/-4/-1 -4/-1/-1 
# 0 polygons - 12 triangles

