# This file uses centimeters as units for non-parametric coordinates.
mtllib mid14.mtl
g default
v -1.600200 2.977100 7.312000
v 1.600200 2.977100 -7.312000
v -1.600200 2.977100 -7.312000
v 1.600200 2.977100 7.312000
v 1.600200 -2.977100 -7.312000
v 1.600200 -2.977100 7.312000
v -1.600200 -2.977100 7.312000
v -1.600200 -2.977100 -7.312000
vt 0.236600 0.738600
vt 0.267000 0.877300
vt 0.236600 0.877300
vt 0.267000 0.738600
vt 0.230800 0.877300
vt 0.174300 0.738600
vt 0.230800 0.738600
vt 0.174300 0.877300
vt 0.386700 0.906200
vt 0.417100 0.849700
vt 0.417100 0.906200
vt 0.386700 0.849700
vt 0.000000 0.407153
vt 1.000000 0.407153
vt 0.000000 0.000000
vt 0.000000 0.000000
vt 1.000000 0.000000
vt 0.985959 0.278938
vt 0.000000 0.000000
vt 1.000000 0.000000
vt 1.000000 0.537503
vt 0.000000 0.000000
vt 1.000000 0.000000
vt 0.224150 0.417022
vn 0.000000 1.000000 0.000000
vn 0.000000 1.000000 0.000000
vn 0.000000 1.000000 0.000000
vn 0.000000 1.000000 0.000000
vn 0.000000 1.000000 0.000000
vn 0.000000 1.000000 0.000000
vn 1.000000 0.000000 0.000000
vn 1.000000 0.000000 0.000000
vn 1.000000 0.000000 0.000000
vn 1.000000 0.000000 0.000000
vn 1.000000 0.000000 0.000000
vn 1.000000 0.000000 0.000000
vn 0.000000 0.000000 1.000000
vn 0.000000 0.000000 1.000000
vn 0.000000 0.000000 1.000000
vn 0.000000 0.000000 1.000000
vn 0.000000 0.000000 1.000000
vn 0.000000 0.000000 1.000000
vn -1.000000 0.000000 0.000000
vn -1.000000 0.000000 0.000000
vn -1.000000 0.000000 0.000000
vn -1.000000 0.000000 0.000000
vn -1.000000 0.000000 0.000000
vn -1.000000 0.000000 0.000000
vn 0.000000 0.000000 -1.000000
vn 0.000000 0.000000 -1.000000
vn 0.000000 0.000000 -1.000000
vn 0.000000 0.000000 -1.000000
vn 0.000000 0.000000 -1.000000
vn 0.000000 0.000000 -1.000000
s off
g mid15:mid14
f 1/1/1 2/2/2 3/3/3
f 1/1/4 4/4/5 2/2/6
f 4/5/7 5/6/8 2/7/9
f 4/5/10 6/8/11 5/6/12
f 1/9/13 6/10/14 4/11/15
f 1/9/16 7/12/17 6/10/18
f 1/13/19 3/14/20 7/15/21
f 7/16/22 3/17/23 8/18/24
f 8/19/25 3/20/26 2/21/27
f 8/22/28 2/23/29 5/24/30
