# This file uses centimeters as units for non-parametric coordinates.
mtllib mid13.mtl
g default
v 2.540200 -11.193600 6.688900
v 2.540200 11.193600 -6.688900
v 2.540200 11.193600 6.625800
v 2.540200 -11.193600 -6.625800
v -2.540200 11.193600 6.625800
v -2.540200 11.193600 -6.688900
v -2.540200 -11.193600 6.688900
v -2.540200 -11.193600 -6.625800
vt 0.682500 0.002000
vt 0.809500 0.214400
vt 0.683100 0.214400
vt 0.808900 0.002000
vt 0.080700 0.789500
vt 0.128900 0.915900
vt 0.080700 0.915900
vt 0.128900 0.789500
vt 0.627100 0.002000
vt 0.675300 0.214400
vt 0.627100 0.214400
vt 0.675300 0.002000
vt 0.816300 0.002000
vt 0.942000 0.214400
vt 0.815700 0.214400
vt 0.942600 0.002000
vt 0.000000 0.000000
vt 0.226932 0.000000
vt 0.000000 1.000000
vt 0.000000 0.000000
vt 1.000000 0.000000
vt 1.000000 0.226932
vn 1.000000 0.000000 0.000000
vn 1.000000 0.000000 0.000000
vn 1.000000 0.000000 0.000000
vn 1.000000 0.000000 0.000000
vn 1.000000 0.000000 0.000000
vn 1.000000 0.000000 0.000000
vn 0.000000 1.000000 0.000000
vn 0.000000 1.000000 0.000000
vn 0.000000 1.000000 0.000000
vn 0.000000 1.000000 0.000000
vn 0.000000 1.000000 0.000000
vn 0.000000 1.000000 0.000000
vn 0.000000 0.002800 0.999996
vn 0.000000 0.002800 0.999996
vn 0.000000 0.002800 0.999996
vn 0.000000 0.002800 0.999996
vn 0.000000 0.002800 0.999996
vn 0.000000 0.002800 0.999996
vn -1.000000 0.000000 -0.000000
vn -1.000000 0.000000 -0.000000
vn -1.000000 0.000000 -0.000000
vn -1.000000 0.000000 -0.000000
vn -1.000000 0.000000 -0.000000
vn -1.000000 0.000000 -0.000000
vn 0.000000 -0.002819 -0.999996
vn 0.000000 -0.002819 -0.999996
vn 0.000000 -0.002819 -0.999996
vn 0.000000 -0.002819 -0.999996
vn 0.000000 -0.002819 -0.999996
vn 0.000000 -0.002819 -0.999996
s off
g mid14:mid13
f 1/1/1 2/2/2 3/3/3
f 1/1/4 4/4/5 2/2/6
f 5/5/7 2/6/8 6/7/9
f 5/5/10 3/8/11 2/6/12
f 7/9/13 3/10/14 5/11/15
f 7/9/16 1/12/17 3/10/18
f 8/13/19 5/14/20 6/15/21
f 8/13/22 7/16/23 5/14/24
f 6/17/25 2/18/26 8/19/27
f 2/20/28 4/21/29 8/22/30
