# This file uses centimeters as units for non-parametric coordinates.
mtllib mid10.mtl
g default
v -1.000000 -8.309829 -6.000000
v -1.000000 8.362571 6.000000
v -1.000000 8.362571 -6.000000
v -1.000000 -8.309829 6.000000
v 1.000000 8.362571 -6.000000
v 1.000000 8.362571 6.000000
v 1.000000 -8.309829 6.000000
v 1.000000 -8.309829 -6.000000
vt 0.371400 0.687700
vt 0.485200 0.846000
vt 0.371400 0.846000
vt 0.485200 0.687700
vt 0.031100 0.789500
vt 0.050100 0.903400
vt 0.031100 0.903400
vt 0.050100 0.789500
vt 0.515900 0.687700
vt 0.629700 0.846000
vt 0.515900 0.846000
vt 0.629700 0.687700
vt 0.510000 0.846000
vt 0.491100 0.687700
vt 0.510000 0.687700
vt 0.491100 0.846000
vt 0.000000 1.000000
vt 0.119959 1.000000
vt 0.119959 0.000000
vt 0.000000 0.000000
vt 1.000000 0.000000
vt 0.985814 0.118257
vn -1.000000 0.000000 -0.000000
vn -1.000000 0.000000 -0.000000
vn -1.000000 0.000000 -0.000000
vn -1.000000 0.000000 -0.000000
vn -1.000000 0.000000 -0.000000
vn -1.000000 0.000000 -0.000000
vn 0.000000 1.000000 0.000000
vn 0.000000 1.000000 0.000000
vn 0.000000 1.000000 0.000000
vn 0.000000 1.000000 0.000000
vn 0.000000 1.000000 0.000000
vn 0.000000 1.000000 0.000000
vn 1.000000 0.000000 0.000000
vn 1.000000 0.000000 0.000000
vn 1.000000 0.000000 0.000000
vn 1.000000 0.000000 0.000000
vn 1.000000 0.000000 0.000000
vn 1.000000 0.000000 0.000000
vn 0.000000 0.000000 -1.000000
vn 0.000000 0.000000 -1.000000
vn 0.000000 0.000000 -1.000000
vn 0.000000 0.000000 -1.000000
vn 0.000000 0.000000 -1.000000
vn 0.000000 0.000000 -1.000000
vn 0.000000 0.000000 1.000000
vn 0.000000 0.000000 1.000000
vn 0.000000 0.000000 1.000000
vn 0.000000 0.000000 1.000000
vn 0.000000 0.000000 1.000000
vn 0.000000 0.000000 1.000000
s off
g mid11:mid10
f 1/1/1 2/2/2 3/3/3
f 1/1/4 4/4/5 2/2/6
f 2/5/7 5/6/8 3/7/9
f 2/5/10 6/8/11 5/6/12
f 7/9/13 5/10/14 6/11/15
f 7/9/16 8/12/17 5/10/18
f 8/13/19 3/14/20 5/15/21
f 8/13/22 1/16/23 3/14/24
f 6/17/25 2/18/26 4/19/27
f 6/20/28 4/21/29 7/22/30
