# This file uses centimeters as units for non-parametric coordinates.
mtllib mid12.mtl
g default
v -21.690599 -8.337900 -1.114300
v -21.690599 8.417900 3.848100
v -21.690599 8.417900 -1.114300
v -21.690599 -8.337900 3.848100
v -19.690599 8.417900 -1.114300
v -19.690599 8.417900 3.848100
v -21.671801 8.337900 -1.073100
v -15.477100 8.337900 -3.073100
v -21.671801 8.337900 -3.073100
v -14.114700 8.337900 -3.073100
v -3.087900 8.337900 -3.073100
v -1.723500 8.337900 -3.073100
v 9.301300 8.337900 -3.073100
v 10.773100 8.337900 -3.073100
v 21.690599 8.337900 -3.073100
v 21.690599 8.337900 -1.073100
v -15.477100 -8.417900 -3.073100
v -21.671801 -8.417900 -3.073100
v -15.477100 -8.417900 -3.848100
v -15.477100 3.924700 -3.848100
v -15.477100 8.337900 -3.296900
v -3.087900 -8.417900 -3.073100
v -14.114700 -8.417900 -3.073100
v -1.723500 3.924700 -3.848100
v -1.723500 -8.417900 -3.073100
v -1.723500 -8.417900 -3.848100
v -1.723500 8.337900 -3.296900
v 9.301300 -8.417900 -3.073100
v 9.301300 -8.417900 -3.848100
v 9.301300 3.924700 -3.848100
v 9.301300 8.337900 -3.296900
v 21.690599 -8.417900 -3.073100
v 10.773100 -8.417900 -3.073100
v 10.773100 3.924700 -3.848100
v 10.773100 -8.417900 -3.848100
v 10.773100 8.337900 -3.296900
v -14.114700 3.924700 -3.848100
v -14.114700 -8.417900 -3.848100
v -14.114700 8.337900 -3.296900
v -3.087900 -8.417900 -3.848100
v -3.087900 3.924700 -3.848100
v -3.087900 8.337900 -3.296900
v -21.671801 -8.417900 -1.073100
v -19.690599 -8.337900 3.848100
v -19.690599 -8.337900 -1.114300
v 21.690599 -8.417900 -1.114300
vt 0.899800 0.593100
vt 0.946900 0.752100
vt 0.899800 0.752100
vt 0.946900 0.593100
vt 0.469900 0.849700
vt 0.488900 0.896800
vt 0.469900 0.896800
vt 0.488900 0.849700
vt 0.001900 0.413500
vt 0.020900 0.354700
vt 0.020900 0.413500
vt 0.020900 0.341800
vt 0.020900 0.237100
vt 0.020900 0.224200
vt 0.020900 0.119600
vt 0.020900 0.105600
vt 0.020900 0.002000
vt 0.001900 0.002000
vt 0.515700 0.683900
vt 0.456900 0.524900
vt 0.515700 0.524900
vt 0.456900 0.683900
vt 0.384800 0.683900
vt 0.377400 0.524900
vt 0.384800 0.524900
vt 0.377400 0.642100
vt 0.382700 0.683900
vt 0.646600 0.579200
vt 0.542000 0.420200
vt 0.646600 0.420200
vt 0.542000 0.579200
vt 0.370000 0.642100
vt 0.362600 0.524900
vt 0.370000 0.524900
vt 0.362600 0.683900
vt 0.364800 0.683900
vt 0.784200 0.430300
vt 0.888900 0.589300
vt 0.784200 0.589300
vt 0.888900 0.430300
vt 0.414400 0.683900
vt 0.407000 0.524900
vt 0.414400 0.524900
vt 0.407000 0.642100
vt 0.412300 0.683900
vt 0.652900 0.420200
vt 0.756600 0.579200
vt 0.652900 0.579200
vt 0.756600 0.420200
vt 0.429200 0.642100
vt 0.421800 0.524900
vt 0.429200 0.524900
vt 0.421800 0.683900
vt 0.423900 0.683900
vt 0.399600 0.642100
vt 0.392200 0.524900
vt 0.399600 0.524900
vt 0.392200 0.683900
vt 0.394400 0.683900
vt 0.355200 0.683900
vt 0.347900 0.524900
vt 0.355200 0.524900
vt 0.347900 0.642100
vt 0.353100 0.683900
vt 0.895200 0.430300
vt 0.914200 0.589300
vt 0.895200 0.589300
vt 0.914200 0.430300
vt 0.558600 0.862700
vt 0.560800 0.849700
vt 0.560800 0.862700
vt 0.558600 0.849700
vt 0.534600 0.622100
vt 0.521700 0.505000
vt 0.534600 0.505000
vt 0.521700 0.622100
vt 0.534600 0.463100
vt 0.521700 0.463100
vt 0.534600 0.862700
vt 0.536700 0.849700
vt 0.536700 0.862700
vt 0.534600 0.849700
vt 0.449600 0.683900
vt 0.436600 0.566800
vt 0.449600 0.566800
vt 0.436600 0.683900
vt 0.449600 0.524900
vt 0.436600 0.524900
vt 0.510600 0.863700
vt 0.512700 0.849700
vt 0.512700 0.863700
vt 0.510600 0.849700
vt 0.763900 0.420200
vt 0.777900 0.462000
vt 0.763900 0.462000
vt 0.777900 0.420200
vt 0.763900 0.579200
vt 0.777900 0.579200
vt 0.000000 1.000000
vt 0.119362 1.000000
vt 0.119362 0.000000
vt 0.000000 0.000000
vt 1.000000 0.000000
vt 0.463294 0.550667
vt 0.000000 0.000000
vt 1.000000 0.000000
vt 0.000000 0.296160
vt 0.000000 0.000000
vt 1.000000 0.000000
vt 0.551017 0.552319
vt 0.000000 0.045686
vt 0.386416 0.045686
vt 0.001845 1.000000
vt 0.001845 0.000000
vt 0.000000 1.000000
vt 0.119362 1.000000
vt 0.000000 0.000000
vt 0.000000 0.000000
vt 1.000000 0.000000
vt 0.565249 0.838243
vt 0.000000 0.000000
vt 1.000000 0.000000
vt 0.140377 0.348345
vn -1.000000 0.000000 -0.000000
vn -1.000000 0.000000 -0.000000
vn -1.000000 0.000000 -0.000000
vn -1.000000 0.000000 -0.000000
vn -1.000000 0.000000 -0.000000
vn -1.000000 0.000000 -0.000000
vn 0.000000 1.000000 0.000000
vn 0.000000 1.000000 0.000000
vn 0.000000 1.000000 0.000000
vn 0.000000 1.000000 0.000000
vn 0.000000 1.000000 0.000000
vn 0.000000 1.000000 0.000000
vn 0.000000 1.000000 0.000000
vn 0.000000 1.000000 0.000000
vn 0.000000 1.000000 0.000000
vn 0.000000 1.000000 0.000000
vn 0.000000 1.000000 0.000000
vn 0.000000 1.000000 0.000000
vn 0.000000 1.000000 0.000000
vn 0.000000 1.000000 0.000000
vn 0.000000 1.000000 0.000000
vn 0.000000 1.000000 0.000000
vn 0.000000 1.000000 0.000000
vn 0.000000 1.000000 0.000000
vn 0.000000 1.000000 0.000000
vn 0.000000 1.000000 0.000000
vn 0.000000 1.000000 0.000000
vn 0.000000 1.000000 0.000000
vn 0.000000 1.000000 0.000000
vn 0.000000 1.000000 0.000000
vn 0.000000 1.000000 0.000000
vn 0.000000 1.000000 0.000000
vn 0.000000 1.000000 0.000000
vn 0.000000 1.000000 0.000000
vn 0.000000 1.000000 0.000000
vn 0.000000 1.000000 0.000000
vn 0.000000 0.000000 -1.000000
vn 0.000000 0.000000 -1.000000
vn 0.000000 0.000000 -1.000000
vn 0.000000 0.000000 -1.000000
vn 0.000000 0.000000 -1.000000
vn 0.000000 0.000000 -1.000000
vn -1.000000 0.000000 -0.000000
vn -1.000000 0.000000 -0.000000
vn -1.000000 0.000000 -0.000000
vn -1.000000 0.000000 -0.000000
vn -1.000000 0.000000 -0.000000
vn -1.000000 0.000000 -0.000000
vn -1.000000 0.000000 -0.000000
vn -1.000000 0.000000 -0.000000
vn -1.000000 0.000000 -0.000000
vn 0.000000 0.000000 -1.000000
vn 0.000000 0.000000 -1.000000
vn 0.000000 0.000000 -1.000000
vn 0.000000 0.000000 -1.000000
vn 0.000000 0.000000 -1.000000
vn 0.000000 0.000000 -1.000000
vn 1.000000 0.000000 0.000000
vn 1.000000 0.000000 0.000000
vn 1.000000 0.000000 0.000000
vn 1.000000 0.000000 0.000000
vn 1.000000 0.000000 0.000000
vn 1.000000 0.000000 0.000000
vn 1.000000 0.000000 0.000000
vn 1.000000 0.000000 0.000000
vn 1.000000 0.000000 0.000000
vn 0.000000 0.000000 -1.000000
vn 0.000000 0.000000 -1.000000
vn 0.000000 0.000000 -1.000000
vn 0.000000 0.000000 -1.000000
vn 0.000000 0.000000 -1.000000
vn 0.000000 0.000000 -1.000000
vn -1.000000 0.000000 -0.000000
vn -1.000000 0.000000 -0.000000
vn -1.000000 0.000000 -0.000000
vn -1.000000 0.000000 -0.000000
vn -1.000000 0.000000 -0.000000
vn -1.000000 0.000000 -0.000000
vn -1.000000 0.000000 -0.000000
vn -1.000000 0.000000 -0.000000
vn -1.000000 0.000000 -0.000000
vn 0.000000 0.000000 -1.000000
vn 0.000000 0.000000 -1.000000
vn 0.000000 0.000000 -1.000000
vn 0.000000 0.000000 -1.000000
vn 0.000000 0.000000 -1.000000
vn 0.000000 0.000000 -1.000000
vn 1.000000 0.000000 0.000000
vn 1.000000 0.000000 0.000000
vn 1.000000 0.000000 0.000000
vn 1.000000 0.000000 0.000000
vn 1.000000 0.000000 0.000000
vn 1.000000 0.000000 0.000000
vn 1.000000 0.000000 0.000000
vn 1.000000 0.000000 0.000000
vn 1.000000 0.000000 0.000000
vn 1.000000 0.000000 0.000000
vn 1.000000 0.000000 0.000000
vn 1.000000 0.000000 0.000000
vn 1.000000 0.000000 0.000000
vn 1.000000 0.000000 0.000000
vn 1.000000 0.000000 0.000000
vn 1.000000 0.000000 0.000000
vn 1.000000 0.000000 0.000000
vn 1.000000 0.000000 0.000000
vn -1.000000 0.000000 -0.000000
vn -1.000000 0.000000 -0.000000
vn -1.000000 0.000000 -0.000000
vn -1.000000 0.000000 -0.000000
vn -1.000000 0.000000 -0.000000
vn -1.000000 0.000000 -0.000000
vn -1.000000 0.000000 -0.000000
vn -1.000000 0.000000 -0.000000
vn -1.000000 0.000000 -0.000000
vn -1.000000 0.000000 -0.000000
vn -1.000000 0.000000 -0.000000
vn -1.000000 0.000000 -0.000000
vn -1.000000 0.000000 -0.000000
vn -1.000000 0.000000 -0.000000
vn -1.000000 0.000000 -0.000000
vn 0.000000 1.000000 0.000000
vn 0.000000 1.000000 0.000000
vn 0.000000 1.000000 0.000000
vn 0.000000 1.000000 0.000000
vn 0.000000 1.000000 0.000000
vn 0.000000 1.000000 0.000000
vn 0.000000 0.000000 -1.000000
vn 0.000000 0.062098 -0.998070
vn 0.000000 0.062098 -0.998070
vn 0.000000 0.000000 -1.000000
vn 0.000000 0.000000 -1.000000
vn 0.000000 0.062098 -0.998070
vn 0.000000 0.062098 -0.998070
vn 0.000000 0.123899 -0.992295
vn 0.000000 0.062098 -0.998070
vn 0.000000 0.062098 -0.998070
vn 0.000000 0.123899 -0.992295
vn 0.000000 0.123899 -0.992295
vn 0.000000 1.000000 0.000000
vn 0.000000 1.000000 0.000000
vn 0.000000 1.000000 0.000000
vn 0.000000 1.000000 0.000000
vn 0.000000 1.000000 0.000000
vn 0.000000 1.000000 0.000000
vn 0.000000 0.000000 -1.000000
vn 0.000000 0.062098 -0.998070
vn 0.000000 0.062098 -0.998070
vn 0.000000 0.000000 -1.000000
vn 0.000000 0.000000 -1.000000
vn 0.000000 0.062098 -0.998070
vn 0.000000 0.062098 -0.998070
vn 0.000000 0.123899 -0.992295
vn 0.000000 0.062098 -0.998070
vn 0.000000 0.062098 -0.998070
vn 0.000000 0.123899 -0.992295
vn 0.000000 0.123899 -0.992295
vn 0.000000 1.000000 0.000000
vn 0.000000 1.000000 0.000000
vn 0.000000 1.000000 0.000000
vn 0.000000 1.000000 0.000000
vn 0.000000 1.000000 0.000000
vn 0.000000 1.000000 0.000000
vn 0.000000 0.123899 -0.992295
vn 0.000000 0.062098 -0.998070
vn 0.000000 0.062098 -0.998070
vn 0.000000 0.123899 -0.992295
vn 0.000000 0.123899 -0.992295
vn 0.000000 0.062098 -0.998070
vn 0.000000 0.062098 -0.998070
vn 0.000000 0.000000 -1.000000
vn 0.000000 0.062098 -0.998070
vn 0.000000 0.062098 -0.998070
vn 0.000000 0.000000 -1.000000
vn 0.000000 0.000000 -1.000000
vn 0.000000 0.000000 1.000000
vn 0.000000 0.000000 1.000000
vn 0.000000 0.000000 1.000000
vn 0.000000 -0.000000 1.000000
vn 0.000000 -0.000000 1.000000
vn 0.000000 -0.000000 1.000000
vn 1.000000 0.000000 0.000000
vn 1.000000 0.000000 0.000000
vn 1.000000 0.000000 0.000000
vn 1.000000 -0.000000 0.000000
vn 1.000000 -0.000000 0.000000
vn 1.000000 -0.000000 0.000000
vn -0.001001 -0.002590 0.999996
vn -0.001001 -0.002590 0.999996
vn -0.001001 -0.002590 0.999996
vn -0.001001 -0.002590 0.999996
vn 1.000000 0.000000 0.000000
vn 1.000000 0.000000 0.000000
vn 1.000000 0.000000 0.000000
vn 1.000000 0.000000 0.000000
vn 1.000000 0.000000 0.000000
vn 1.000000 0.000000 0.000000
vn -0.000005 -0.002459 0.999997
vn -0.000005 -0.002459 0.999997
vn -0.000005 -0.002459 0.999997
s off
g mid13:mid12
f 1/1/1 2/2/2 3/3/3
f 1/1/4 4/4/5 2/2/6
f 2/5/7 5/6/8 3/7/9
f 2/5/10 6/8/11 5/6/12
f 7/9/13 8/10/14 9/11/15
f 8/10/16 7/9/17 10/12/18
f 10/12/19 7/9/20 11/13/21
f 11/13/22 7/9/23 12/14/24
f 12/14/25 7/9/26 13/15/27
f 13/15/28 7/9/29 14/16/30
f 14/16/31 7/9/32 15/17/33
f 15/17/34 7/9/35 16/18/36
f 17/19/37 9/20/38 8/21/39
f 17/19/40 18/22/41 9/20/42
f 8/23/43 19/24/44 17/25/45
f 19/24/46 8/23/47 20/26/48
f 20/26/49 8/23/50 21/27/51
f 22/28/52 10/29/53 11/30/54
f 22/28/55 23/31/56 10/29/57
f 24/32/58 25/33/59 26/34/60
f 25/33/61 24/32/62 12/35/63
f 12/35/64 24/32/65 27/36/66
f 12/37/67 28/38/68 25/39/69
f 12/37/70 13/40/71 28/38/72
f 13/41/73 29/42/74 28/43/75
f 29/42/76 13/41/77 30/44/78
f 30/44/79 13/41/80 31/45/81
f 14/46/82 32/47/83 33/48/84
f 14/46/85 15/49/86 32/47/87
f 34/50/88 33/51/89 35/52/90
f 33/51/91 34/50/92 14/53/93
f 14/53/94 34/50/95 36/54/96
f 37/55/97 23/56/98 38/57/99
f 23/56/100 37/55/101 10/58/102
f 10/58/103 37/55/104 39/59/105
f 11/60/106 40/61/107 22/62/108
f 40/61/109 11/60/110 41/63/111
f 41/63/112 11/60/113 42/64/114
f 18/65/115 7/66/116 9/67/117
f 18/65/118 43/68/119 7/66/120
f 8/69/121 39/70/122 21/71/123
f 8/69/124 10/72/125 39/70/126
f 38/73/127 20/74/128 37/75/129
f 38/73/130 19/76/131 20/74/132
f 20/74/133 39/77/134 37/75/135
f 20/74/136 21/78/137 39/77/138
f 11/79/139 27/80/140 42/81/141
f 11/79/142 12/82/143 27/80/144
f 26/83/145 41/84/146 24/85/147
f 26/83/148 40/86/149 41/84/150
f 41/84/151 27/87/152 24/85/153
f 41/84/154 42/88/155 27/87/156
f 13/89/157 36/90/158 31/91/159
f 13/89/160 14/92/161 36/90/162
f 31/93/163 34/94/164 30/95/165
f 31/93/166 36/96/167 34/94/168
f 34/94/169 29/97/170 30/95/171
f 34/94/172 35/98/173 29/97/174
f 6/99/175 2/100/176 4/101/177
f 6/102/178 4/103/179 44/104/180
f 6/105/181 44/106/182 5/107/183
f 5/108/184 44/109/185 45/110/186
f 5/111/187 45/112/188 16/113/189 7/114/190
f 15/115/191 16/116/192 32/117/193
f 32/118/194 16/119/195 46/120/196
f 16/121/197 45/122/198 46/123/199
