# This file uses centimeters as units for non-parametric coordinates.
mtllib mid17.mtl
g default
v -0.064700 3.291600 3.611300
v 20.681101 3.291600 -3.611300
v -0.064700 3.291600 -3.611300
v 20.681101 3.291600 3.611300
v 20.681101 -3.291600 -3.611300
v -0.064700 -3.291600 -3.611300
v -20.681101 3.291600 3.611300
v 0.197600 3.291600 -3.611300
v -20.681101 3.291600 -3.611300
v 0.197600 3.291600 3.611300
v 0.197600 -3.291600 -3.611300
v -20.681101 -3.291600 -3.611300
v -20.681103 -3.291600 3.611300
v 20.681101 -3.291600 3.611300
v 0.197600 -3.291600 3.611300
v -0.064700 -3.291600 3.611301
vt 0.528700 0.415100
vt 0.597300 0.218200
vt 0.597300 0.415100
vt 0.528700 0.218200
vt 0.522900 0.262500
vt 0.460400 0.459300
vt 0.460400 0.262500
vt 0.522900 0.459300
vt 0.671400 0.416400
vt 0.739900 0.218200
vt 0.739900 0.416400
vt 0.671400 0.218200
vt 0.665600 0.218200
vt 0.603100 0.416400
vt 0.603100 0.218200
vt 0.665600 0.416400
vt 0.000000 0.911472
vt 1.000000 0.911472
vt 1.000000 0.000000
vt 0.000000 0.000000
vt 1.000000 0.000000
vt 0.026351 0.720374
vt 0.000000 0.000000
vt 0.911472 0.000000
vt 0.911472 1.000000
vt 0.000000 0.000000
vt 0.832408 0.000000
vt 1.000000 0.722495
vt 0.000000 0.000000
vt 0.317327 0.000000
vt 0.317327 1.000000
vt 0.000000 0.000000
vt 0.315307 0.000000
vt 0.000000 1.000000
vt 0.000000 0.000000
vt 1.000000 0.000000
vt 0.181966 0.323930
vt 0.000000 0.000000
vt 1.000000 0.000000
vt 0.522565 0.805158
vn 0.000000 1.000000 0.000000
vn 0.000000 1.000000 0.000000
vn 0.000000 1.000000 0.000000
vn 0.000000 1.000000 0.000000
vn 0.000000 1.000000 0.000000
vn 0.000000 1.000000 0.000000
vn 0.000000 0.000000 -1.000000
vn 0.000000 0.000000 -1.000000
vn 0.000000 0.000000 -1.000000
vn 0.000000 0.000000 -1.000000
vn 0.000000 0.000000 -1.000000
vn 0.000000 0.000000 -1.000000
vn 0.000000 1.000000 0.000000
vn 0.000000 1.000000 0.000000
vn 0.000000 1.000000 0.000000
vn 0.000000 1.000000 0.000000
vn 0.000000 1.000000 0.000000
vn 0.000000 1.000000 0.000000
vn 0.000000 0.000000 -1.000000
vn 0.000000 0.000000 -1.000000
vn 0.000000 0.000000 -1.000000
vn 0.000000 0.000000 -1.000000
vn 0.000000 0.000000 -1.000000
vn 0.000000 0.000000 -1.000000
vn -1.000000 0.000000 0.000000
vn -1.000000 0.000000 0.000000
vn -1.000000 0.000000 0.000000
vn -1.000000 0.000001 -0.000000
vn -1.000000 0.000001 -0.000000
vn -1.000000 0.000001 -0.000000
vn 1.000000 0.000000 0.000000
vn 1.000000 0.000000 0.000000
vn 1.000000 0.000000 0.000000
vn 1.000000 0.000000 0.000000
vn 1.000000 0.000000 0.000000
vn 1.000000 0.000000 0.000000
vn 0.000000 -0.000000 1.000000
vn 0.000000 -0.000000 1.000000
vn 0.000000 -0.000000 1.000000
vn 0.000000 0.000000 1.000000
vn 0.000000 0.000000 1.000000
vn 0.000000 0.000000 1.000000
vn -0.000000 0.000000 1.000000
vn -0.000000 0.000000 1.000000
vn -0.000000 0.000000 1.000000
vn 0.000000 0.000000 1.000000
vn 0.000000 0.000000 1.000000
vn 0.000000 0.000000 1.000000
s off
g mid18:mid17
f 1/1/1 2/2/2 3/3/3
f 1/1/4 4/4/5 2/2/6
f 5/5/7 3/6/8 2/7/9
f 5/5/10 6/8/11 3/6/12
f 7/9/13 8/10/14 9/11/15
f 7/9/16 10/12/17 8/10/18
f 11/13/19 9/14/20 8/15/21
f 11/13/22 12/16/23 9/14/24
f 7/17/25 9/18/26 12/19/27
f 7/20/28 12/21/29 13/22/30
f 5/23/31 2/24/32 4/25/33
f 5/26/34 4/27/35 14/28/36
f 14/29/37 4/30/38 1/31/39
f 7/32/40 13/33/41 10/34/42
f 10/35/43 13/36/44 15/37/45
f 14/38/46 1/39/47 16/40/48
