# This file uses centimeters as units for non-parametric coordinates.
mtllib mid7.mtl
g default
v -2.935400 10.982900 3.640600
v -0.935400 10.982900 -2.187000
v -2.890800 10.970850 -2.187000
v -0.935400 10.982900 3.640600
v -2.856060 -5.773000 -2.187000
v -2.856060 -5.773000 3.640600
v -2.846200 -10.983000 -3.640600
v -2.846200 10.958800 -3.640600
v -2.846200 -10.983000 -2.187000
v 2.935400 -10.983000 -3.640600
v 2.935400 10.958800 -3.640600
v -0.935400 -5.773000 3.640600
v -0.935400 -5.773000 -2.187001
v 2.935400 10.982900 -2.187000
v 2.935400 -10.983000 -2.187000
v 2.935400 -5.773000 -2.187000
v -0.935400 -10.983000 -2.187000
vt 0.444000 0.849700
vt 0.463000 0.904500
vt 0.444000 0.904500
vt 0.463000 0.849700
vt 0.286800 0.561700
vt 0.341600 0.720700
vt 0.286800 0.720700
vt 0.341600 0.561700
vt 0.872400 0.218200
vt 0.886200 0.426500
vt 0.872400 0.426500
vt 0.886200 0.218200
vt 0.946900 0.426500
vt 0.892000 0.218200
vt 0.946900 0.218200
vt 0.892000 0.426500
vt 0.886200 0.264251
vt 0.000000 1.000000
vt 0.119361 1.000000
vt 0.114626 0.000000
vt 0.000000 0.000000
vt 1.000000 0.000000
vt 0.640187 0.421799
vt 0.000000 1.000000
vt 0.347794 1.000000
vt 0.347794 0.000000
vt 0.000000 0.000000
vt 1.000000 0.000000
vt 0.655761 0.418129
vt 0.000000 0.000000
vt 0.744087 0.000000
vt 0.713458 1.000000
vt 0.000000 0.000000
vt 0.521810 0.000000
vt 1.000000 0.760833
vt 0.073405 0.000000
vt 0.450455 0.000000
vt 0.000000 1.000000
vt 0.000000 0.000000
vt 0.998903 0.000000
vt 1.000000 0.066175
vt 0.000000 0.000000
vt 1.000000 0.000000
vt 0.529823 0.644319
vt 0.000000 0.000000
vt 1.000000 0.000000
vt 0.000000 0.231011
vt 0.670081 0.452113
vt 0.000000 0.000000
vt 1.000000 0.000000
vt 0.949337 0.219308
vt 0.000000 0.000000
vt 1.000000 0.000000
vt 1.000000 0.742956
vt 0.000000 0.000000
vt 0.388660 0.000000
vt 0.489142 1.000000
vn 0.000000 1.000000 0.000000
vn 0.000000 1.000000 0.000000
vn 0.000000 1.000000 0.000000
vn 0.000000 1.000000 0.000000
vn 0.000000 1.000000 0.000000
vn 0.000000 1.000000 0.000000
vn -1.000000 0.000000 -0.000000
vn -1.000000 0.000000 -0.000000
vn -1.000000 0.000000 -0.000000
vn -1.000000 0.000000 -0.000000
vn -1.000000 0.000000 -0.000000
vn -1.000000 0.000000 -0.000000
vn -1.000000 0.000000 -0.000000
vn -1.000000 0.000000 -0.000000
vn -1.000000 0.000000 -0.000000
vn -1.000000 0.000000 -0.000000
vn -1.000000 0.000000 -0.000000
vn -0.999998 -0.002032 0.000498
vn -1.000000 0.000000 -0.000000
vn 0.000000 0.000000 -1.000000
vn 0.000000 0.000000 -1.000000
vn 0.000000 0.000000 -1.000000
vn 0.000000 0.000000 -1.000000
vn 0.000000 0.000000 -1.000000
vn 0.000000 0.000000 -1.000000
vn 0.000000 0.000000 1.000000
vn 0.000000 0.000000 1.000000
vn 0.000000 0.000000 1.000000
vn -0.000000 0.000000 1.000000
vn -0.000000 0.000000 1.000000
vn -0.000000 0.000000 1.000000
vn 1.000000 -0.000000 0.000000
vn 1.000000 -0.000000 0.000000
vn 1.000000 -0.000000 0.000000
vn 1.000000 -0.000000 -0.000000
vn 1.000000 -0.000000 -0.000000
vn 1.000000 -0.000000 -0.000000
vn -0.006162 0.999945 -0.008479
vn -0.006162 0.999945 -0.008479
vn -0.006162 0.999945 -0.008479
vn 0.000000 0.999863 -0.016576
vn 0.000000 0.999863 -0.016576
vn 0.000000 0.999863 -0.016576
vn 0.000000 0.999863 -0.016577
vn 0.000000 0.999863 -0.016577
vn 0.000000 0.999863 -0.016577
vn 1.000000 0.000000 0.000000
vn 1.000000 0.000000 0.000000
vn 1.000000 0.000000 0.000000
vn 1.000000 0.000000 0.000000
vn 1.000000 0.000000 0.000000
vn 1.000000 0.000000 0.000000
vn 1.000000 0.000000 0.000000
vn 0.000000 -0.000000 1.000000
vn 0.000000 -0.000000 1.000000
vn 0.000000 -0.000000 1.000000
vn 0.000000 -0.000000 1.000000
vn 0.000000 -0.000000 1.000000
vn 0.000000 -0.000000 1.000000
vn 0.000000 0.000000 1.000000
vn 0.000000 0.000000 1.000000
vn 0.000000 0.000000 1.000000
vn 0.000000 0.000000 1.000000
vn 0.000000 0.000000 1.000000
vn 0.000000 0.000000 1.000000
s off
g mid8:mid7
f 1/1/1 2/2/2 3/3/3
f 1/1/4 4/4/5 2/2/6
f 5/5/7 1/6/8 3/7/9
f 5/5/10 6/8/11 1/6/12
f 7/9/13 3/10/14 8/11/15
f 7/9/16 9/12/17 5/17/18 3/10/19
f 10/13/20 8/14/21 11/15/22
f 10/13/23 7/16/24 8/14/25
f 4/18/26 1/19/27 6/20/28
f 4/21/29 6/22/30 12/23/31
f 2/24/32 4/25/33 12/26/34
f 2/27/35 12/28/36 13/29/37
f 8/30/38 3/31/39 2/32/40
f 8/33/41 2/34/42 11/35/43
f 11/36/44 2/37/45 14/38/46
f 10/39/47 11/40/48 14/41/49
f 10/42/50 14/43/51 16/48/52 15/44/53
f 2/45/54 13/46/55 14/47/56
f 14/49/57 13/50/58 16/51/59
f 15/52/60 16/53/61 13/54/62
f 15/55/63 13/56/64 17/57/65
