# 3ds Max Wavefront OBJ Exporter v0.97b - (c)2007 guruware
# File Created: 11.03.2017 21:34:41

mtllib puntoA.mtl

#
# object a3
#

v  -31.7852 3.6650 4.6679
v  -25.6548 3.6650 -5.4679
v  -31.7852 3.6650 -5.4679
v  -25.6548 3.6650 4.6679
v  -25.6548 2.1350 4.6679
v  -25.6548 2.1350 -5.4679
# 6 vertices

vn 0.0000 1.0000 -0.0000
vn 1.0000 0.0000 -0.0000
# 2 vertex normals

vt 0.7137 0.8361 0.0000
vt 0.7954 0.9711 0.0000
vt 0.7137 0.9711 0.0000
vt 0.7954 0.8361 0.0000
vt 0.6872 0.9711 0.0000
vt 0.7076 0.8361 0.0000
vt 0.7076 0.9711 0.0000
vt 0.6872 0.8361 0.0000
# 8 texture coords

g a3
usemtl blinn1SG
s off
f 1/1/1 2/2/1 3/3/1 
f 1/1/1 4/4/1 2/2/1 
f 5/5/2 2/6/2 4/7/2 
f 5/5/2 6/8/2 2/6/2 
# 0 polygons - 4 triangles

#
# object a11
#

v  -44.4520 3.6734 42.0939
v  -31.7880 3.6734 37.1861
v  -44.4520 3.6734 37.1861
v  -31.7880 3.6734 42.0939
# 4 vertices

vn 0.0000 1.0000 -0.0000
# 1 vertex normals

vt 0.8671 0.9872 0.0000
vt 0.9325 0.8185 0.0000
vt 0.9325 0.9872 0.0000
vt 0.8671 0.8185 0.0000
# 4 texture coords

g a11
usemtl blinn1SG
s off
f 7/9/3 8/10/3 9/11/3 
f 7/9/3 10/12/3 8/10/3 
# 0 polygons - 2 triangles

#
# object a17
#

v  -31.7827 3.6698 4.6674
v  -31.7749 3.6652 42.6060
v  -25.6268 3.6652 42.6060
v  -25.6346 3.6698 4.6674
# 4 vertices

vn 0.0000 1.0000 -0.0000
vn 0.0000 1.0000 0.0001
# 2 vertex normals

vt 0.0020 0.5074 0.0000
vt 0.0021 0.0020 0.0000
vt 0.0840 0.0020 0.0000
vt 0.0839 0.5074 0.0000
# 4 texture coords

g a17
usemtl blinn1SG
s off
f 11/13/4 12/14/4 13/15/4 
f 11/13/5 13/15/5 14/16/5 
# 0 polygons - 2 triangles

#
# object a12
#

v  -69.6677 3.6730 40.7535
v  -44.4523 3.6730 37.1865
v  -69.6677 3.6730 37.1865
v  -44.4523 3.6730 40.7535
# 4 vertices

vn 0.0000 1.0000 -0.0000
# 1 vertex normals

vt 0.5791 0.3379 0.0000
vt 0.6266 0.0020 0.0000
vt 0.6266 0.3379 0.0000
vt 0.5791 0.0020 0.0000
# 4 texture coords

g a12
usemtl blinn1SG
s off
f 15/17/6 16/18/6 17/19/6 
f 15/17/6 18/20/6 16/18/6 
# 0 polygons - 2 triangles

#
# object a18
#

v  -39.2694 2.1421 31.9392
v  -39.2694 2.1421 11.6943
v  -62.3964 2.1421 11.6965
v  -62.3964 2.1421 31.9414
# 4 vertices

vn 0.0000 1.0000 -0.0000
# 1 vertex normals

vt 0.5193 0.3490 0.0000
vt 0.7890 0.3490 0.0000
vt 0.7889 0.6571 0.0000
vt 0.5192 0.6571 0.0000
# 4 texture coords

g a18
usemtl blinn1SG
s off
f 19/21/7 20/22/7 21/23/7 
f 19/21/7 21/23/7 22/24/7 
# 0 polygons - 2 triangles

#
# object a6
#

v  -25.6100 2.0200 6.2566
v  -25.6100 14.8435 30.6834
v  -25.6100 14.8435 6.2566
v  -23.6100 14.8435 6.2566
v  -25.6100 2.0200 30.6834
v  -23.6100 14.8435 30.6834
v  -23.6100 2.0200 6.2566
v  -23.6100 2.0200 30.6834
# 8 vertices

vn -1.0000 0.0000 -0.0000
vn 0.0000 1.0000 -0.0000
vn 0.0000 0.0000 1.0000
vn 0.0000 0.0000 -1.0000
# 4 vertex normals

vt 0.8091 0.3274 0.0000
vt 0.9799 0.0020 0.0000
vt 0.9799 0.3274 0.0000
vt 0.7759 0.0020 0.0000
vt 0.8026 0.3274 0.0000
vt 0.7759 0.3274 0.0000
vt 0.9714 0.8185 0.0000
vt 0.9980 0.9893 0.0000
vt 0.9714 0.9893 0.0000
vt 0.9652 0.9893 0.0000
vt 0.9386 0.8185 0.0000
vt 0.9652 0.8185 0.0000
vt 0.8091 0.0020 0.0000
vt 0.8026 0.0020 0.0000
vt 0.9980 0.8185 0.0000
vt 0.9386 0.9893 0.0000
# 16 texture coords

g a6
usemtl blinn1SG
s off
f 23/25/8 24/26/8 25/27/8 
f 24/28/9 26/29/9 25/30/9 
f 27/31/10 28/32/10 24/33/10 
f 29/34/11 25/35/11 26/36/11 
f 23/25/8 27/37/8 24/26/8 
f 24/28/9 28/38/9 26/29/9 
f 27/31/10 30/39/10 28/32/10 
f 29/34/11 23/40/11 25/35/11 
# 0 polygons - 8 triangles

#
# object a13
#

v  -56.9952 3.6802 -5.9746
v  -31.7927 3.6802 4.1679
v  -31.7927 3.6802 -5.9746
v  -56.9951 3.6802 4.1679
# 4 vertices

vn 0.0000 1.0000 -0.0000
# 1 vertex normals

vt 0.7688 0.3377 0.0000
vt 0.6336 0.0020 0.0000
vt 0.7688 0.0020 0.0000
vt 0.6336 0.3377 0.0000
# 4 texture coords

g a13
usemtl blinn1SG
s off
f 31/41/12 32/42/12 33/43/12 
f 31/41/12 34/44/12 32/42/12 
# 0 polygons - 2 triangles

#
# object a1
#

v  -25.6236 3.6714 -3.6500
v  -25.6236 16.5075 -5.6500
v  -25.6236 16.5075 -3.6500
v  -49.5666 16.5075 -3.6500
v  -49.5666 16.5075 -3.3571
v  -49.5666 13.2913 -2.7844
v  -49.5666 3.6714 -2.7844
v  -49.5666 3.6714 -3.6500
v  -33.0088 3.6714 -3.6215
v  -33.0088 16.4367 -3.6508
v  -31.8901 3.6714 -2.7844
v  -31.8901 13.2913 -2.7844
v  -33.0088 13.2913 -2.7844
v  -33.0088 3.6714 -2.7844
v  -31.8901 16.5075 -3.3571
v  -31.8901 16.5075 -3.6500
v  -31.8901 3.6714 -3.6500
v  -50.6899 16.5075 -3.3571
v  -50.6899 16.5075 -3.6500
v  -50.6899 3.6714 -3.6500
v  -50.6899 3.6714 -2.7844
v  -50.6899 13.2913 -2.7844
v  -56.9565 16.5075 -3.6500
v  -56.9565 3.6714 -3.6500
v  -33.0088 16.5075 -3.3571
v  -25.6236 3.6714 -5.6500
# 26 vertices

vn 1.0000 0.0000 -0.0000
vn 0.0001 0.0023 1.0000
vn -0.0017 0.0000 1.0000
vn 0.0000 0.0000 1.0000
vn -1.0000 0.0000 -0.0000
vn 0.0000 -0.0000 1.0000
vn 0.0000 0.1753 0.9845
# 7 vertex normals

vt 0.5635 0.6611 0.0000
vt 0.5901 0.8321 0.0000
vt 0.5635 0.8321 0.0000
vt 0.3139 0.8581 0.0000
vt 0.3100 0.8581 0.0000
vt 0.3023 0.8153 0.0000
vt 0.3023 0.6871 0.0000
vt 0.3139 0.6871 0.0000
vt 0.1095 0.4458 0.0000
vt 0.2795 0.4458 0.0000
vt 0.2805 0.6664 0.0000
vt 0.1095 0.6664 0.0000
vt 0.4459 0.6871 0.0000
vt 0.4459 0.8153 0.0000
vt 0.4310 0.8153 0.0000
vt 0.4310 0.6871 0.0000
vt 0.2905 0.8581 0.0000
vt 0.2828 0.8153 0.0000
vt 0.2828 0.6871 0.0000
vt 0.2944 0.8581 0.0000
vt 0.2944 0.6871 0.0000
vt 0.3257 0.8581 0.0000
vt 0.3218 0.8581 0.0000
vt 0.3218 0.6871 0.0000
vt 0.3333 0.6871 0.0000
vt 0.3333 0.8153 0.0000
vt 0.3413 0.8581 0.0000
vt 0.3413 0.6871 0.0000
vt 0.4248 0.6871 0.0000
vt 0.4248 0.8581 0.0000
vt 0.5359 0.6871 0.0000
vt 0.5359 0.8581 0.0000
vt 0.4524 0.8581 0.0000
vt 0.4524 0.6871 0.0000
vt 0.5420 0.7893 0.0000
vt 0.5420 0.6611 0.0000
vt 0.5570 0.6611 0.0000
vt 0.5570 0.7893 0.0000
vt 0.5570 0.8321 0.0000
vt 0.5420 0.8321 0.0000
vt 0.5970 0.6611 0.0000
vt 0.6082 0.6611 0.0000
vt 0.6082 0.7893 0.0000
vt 0.5966 0.8312 0.0000
vt 0.6005 0.8321 0.0000
vt 0.4310 0.8581 0.0000
vt 0.4459 0.8581 0.0000
vt 0.5901 0.6611 0.0000
# 48 texture coords

g a1
usemtl blinn1SG
s off
f 35/45/13 36/46/13 37/47/13 
f 38/48/13 39/49/13 40/50/13 41/51/13 
f 38/48/13 41/51/13 42/52/13 
f 43/53/14 44/54/14 38/55/14 42/56/15 
f 45/57/16 46/58/16 47/59/16 48/60/16 
f 49/61/13 46/62/13 45/63/13 50/64/13 
f 50/64/13 45/63/13 51/65/13 
f 52/66/17 53/67/17 54/68/17 55/69/17 
f 56/70/17 52/66/17 55/69/17 
f 50/71/18 51/72/18 35/73/18 37/74/18 
f 54/75/16 53/76/16 57/77/16 58/78/18 
f 56/79/16 55/80/16 41/81/16 40/82/16 
f 39/83/19 52/84/19 56/79/19 40/82/19 
f 43/85/17 48/86/17 47/87/17 44/88/17 
f 44/88/17 47/87/17 59/89/17 
f 59/90/19 47/59/19 46/58/19 49/91/19 
f 35/45/13 60/92/13 36/46/13 
# 11 polygons - 6 triangles

#
# object a15
#

v  -62.3964 3.6752 31.9414
v  -39.2694 3.6752 31.9392
v  -39.2694 2.1384 31.9392
v  -39.2694 3.6752 37.1841
v  -62.3964 2.1384 31.9414
v  -62.3964 3.6752 37.1863
# 6 vertices

vn -0.0001 0.0000 -1.0000
vn 0.0000 1.0000 -0.0000
# 2 vertex normals

vt 0.8711 0.6395 0.0000
vt 0.8711 0.3314 0.0000
vt 0.8916 0.3314 0.0000
vt 0.7951 0.3314 0.0000
vt 0.8650 0.3314 0.0000
vt 0.8650 0.6395 0.0000
vt 0.8916 0.6395 0.0000
vt 0.7951 0.6395 0.0000
# 8 texture coords

g a15
usemtl blinn1SG
s off
f 61/93/20 62/94/20 63/95/20 
f 64/96/21 62/97/21 61/98/21 
f 61/93/20 63/95/20 65/99/20 
f 64/96/21 61/98/21 66/100/21 
# 0 polygons - 4 triangles

#
# object a10
#

v  -39.2845 3.6652 21.6973
v  -39.2670 3.6652 11.6973
v  -49.2670 3.6652 11.6798
v  -49.2670 2.1285 11.6798
v  -39.2845 2.1285 21.6973
# 5 vertices

vn 0.0000 1.0000 -0.0000
vn -0.7083 0.0000 0.7059
# 2 vertex normals

vt 0.6542 0.8621 0.0000
vt 0.6545 0.9953 0.0000
vt 0.5212 0.9956 0.0000
vt 0.6811 0.8361 0.0000
vt 0.6606 0.9696 0.0000
vt 0.6606 0.8361 0.0000
vt 0.6811 0.9696 0.0000
# 7 texture coords

g a10
usemtl blinn1SG
s off
f 67/101/22 68/102/22 69/103/22 
f 67/104/23 70/105/23 71/106/23 
f 67/104/23 69/107/23 70/105/23 
# 0 polygons - 3 triangles

#
# object a5
#

v  -24.2065 1.8680 42.0953
v  -30.3535 14.8520 42.0953
v  -24.2065 14.8520 42.0953
v  -30.3535 14.8520 43.3247
v  -24.2065 1.8680 43.3247
v  -24.2065 14.8520 43.3247
v  -30.3535 1.8680 42.0953
v  -30.3535 1.8680 43.3247
# 8 vertices

vn 0.0000 0.0000 -1.0000
vn 0.0000 1.0000 -0.0000
vn 1.0000 0.0000 -0.0000
vn -1.0000 0.0000 -0.0000
# 4 vertex normals

vt 0.2517 0.8433 0.0000
vt 0.1698 0.6704 0.0000
vt 0.2517 0.6704 0.0000
vt 0.4762 0.9440 0.0000
vt 0.4926 0.8621 0.0000
vt 0.4926 0.9440 0.0000
vt 0.1464 0.6704 0.0000
vt 0.1628 0.8433 0.0000
vt 0.1464 0.8433 0.0000
vt 0.2594 0.6704 0.0000
vt 0.2758 0.8433 0.0000
vt 0.2594 0.8433 0.0000
vt 0.1698 0.8433 0.0000
vt 0.4762 0.8621 0.0000
vt 0.1628 0.6704 0.0000
vt 0.2758 0.6704 0.0000
# 16 texture coords

g a5
usemtl blinn1SG
s off
f 72/108/24 73/109/24 74/110/24 
f 75/111/25 74/112/25 73/113/25 
f 76/114/26 74/115/26 77/116/26 
f 78/117/27 75/118/27 73/119/27 
f 72/108/24 78/120/24 73/109/24 
f 75/111/25 77/121/25 74/112/25 
f 76/114/26 72/122/26 74/115/26 
f 78/117/27 79/123/27 75/118/27 
# 0 polygons - 8 triangles

#
# object a7
#

v  -44.4729 14.8888 43.3347
v  -35.8671 14.8888 42.1053
v  -44.4729 14.8888 42.1053
v  -35.8671 1.8312 42.1053
v  -35.8671 1.8312 43.3347
v  -35.8671 14.8888 43.3347
v  -44.4729 1.8312 42.1053
# 7 vertices

vn 0.0000 1.0000 -0.0000
vn 0.0000 0.0000 -1.0000
vn 1.0000 0.0000 -0.0000
# 3 vertex normals

vt 0.4987 0.9768 0.0000
vt 0.5151 0.8621 0.0000
vt 0.5151 0.9768 0.0000
vt 0.1402 0.8781 0.0000
vt 0.0256 0.7041 0.0000
vt 0.1402 0.7041 0.0000
vt 0.0020 0.6893 0.0000
vt 0.0184 0.8633 0.0000
vt 0.0020 0.8633 0.0000
vt 0.4987 0.8621 0.0000
vt 0.0256 0.8781 0.0000
vt 0.0184 0.6893 0.0000
# 12 texture coords

g a7
usemtl blinn1SG
s off
f 80/124/28 81/125/28 82/126/28 
f 83/127/29 82/128/29 81/129/29 
f 84/130/30 81/131/30 85/132/30 
f 80/124/28 85/133/28 81/125/28 
f 83/127/29 86/134/29 82/128/29 
f 84/130/30 83/135/30 81/131/30 
# 0 polygons - 6 triangles

#
# object a4
#

v  -70.2066 16.7276 42.7500
v  -44.4534 16.7276 40.7500
v  -70.2066 16.7276 40.7500
v  -70.2066 3.6700 40.7500
v  -44.4534 3.6700 40.7500
v  -44.4534 3.6700 42.7500
v  -44.4534 16.7276 42.7500
v  -70.2066 3.6700 42.7500
# 8 vertices

vn 0.0000 1.0000 -0.0000
vn -1.0000 0.0000 -0.0000
vn 0.0000 0.0000 -1.0000
vn 1.0000 0.0000 -0.0000
# 4 vertex normals

vt 0.3647 0.3451 0.0000
vt 0.3913 0.0020 0.0000
vt 0.3913 0.3451 0.0000
vt 0.0061 0.5114 0.0000
vt 0.0328 0.6853 0.0000
vt 0.0061 0.6853 0.0000
vt 0.5718 0.0020 0.0000
vt 0.3978 0.3451 0.0000
vt 0.3978 0.0020 0.0000
vt 0.0389 0.5114 0.0000
vt 0.0655 0.6853 0.0000
vt 0.0389 0.6853 0.0000
vt 0.3647 0.0020 0.0000
vt 0.0328 0.5114 0.0000
vt 0.5718 0.3451 0.0000
vt 0.0655 0.5114 0.0000
# 16 texture coords

g a4
usemtl blinn1SG
s off
f 87/136/31 88/137/31 89/138/31 
f 90/139/32 87/140/32 89/141/32 
f 91/142/33 89/143/33 88/144/33 
f 92/145/34 88/146/34 93/147/34 
f 87/136/31 93/148/31 88/137/31 
f 90/139/32 94/149/32 87/140/32 
f 91/142/33 90/150/33 89/143/33 
f 92/145/34 91/151/34 88/146/34 
# 0 polygons - 8 triangles

#
# object a2
#

v  -72.5877 3.6800 18.3440
v  -70.2123 21.4960 18.3440
v  -72.5877 21.4960 18.3440
v  -70.2123 21.4960 4.1760
v  -72.5877 21.4960 4.1760
v  -70.2123 3.6800 18.3440
v  -70.2123 3.6800 4.1760
# 7 vertices

vn 0.0000 0.0000 1.0000
vn 0.0000 1.0000 -0.0000
vn 1.0000 0.0000 -0.0000
# 3 vertex normals

vt 0.4815 0.3490 0.0000
vt 0.5131 0.5864 0.0000
vt 0.4815 0.5864 0.0000
vt 0.0717 0.5114 0.0000
vt 0.1033 0.7001 0.0000
vt 0.0717 0.7001 0.0000
vt 0.2866 0.4458 0.0000
vt 0.4753 0.6831 0.0000
vt 0.2866 0.6831 0.0000
vt 0.5131 0.3490 0.0000
vt 0.1033 0.5114 0.0000
vt 0.4753 0.4458 0.0000
# 12 texture coords

g a2
usemtl blinn1SG
s off
f 95/152/35 96/153/35 97/154/35 
f 97/155/36 98/156/36 99/157/36 
f 100/158/37 98/159/37 96/160/37 
f 95/152/35 100/161/35 96/153/35 
f 97/155/36 96/162/36 98/156/36 
f 100/158/37 101/163/37 98/159/37 
# 0 polygons - 6 triangles

#
# object a8
#

v  -56.9740 3.6730 4.1703
v  -56.9740 16.5091 -7.9723
v  -56.9740 16.5091 4.1703
v  -58.9740 16.5091 4.1703
v  -58.9740 16.5091 -7.9723
v  -70.2061 16.5093 4.1700
v  -58.9739 16.5093 2.1700
v  -70.2061 16.5093 2.1700
v  -70.2061 3.6800 4.1700
v  -58.9739 16.5093 4.1700
v  -58.9740 3.6730 4.1703
v  -56.9740 3.6730 -7.9723
v  -58.9739 3.6800 4.1700
# 13 vertices

vn 1.0000 0.0000 -0.0000
vn 0.0000 1.0000 -0.0000
vn 0.0000 0.0000 1.0000
# 3 vertex normals

vt 0.6492 0.6611 0.0000
vt 0.8110 0.8321 0.0000
vt 0.6492 0.8321 0.0000
vt 0.8343 0.8185 0.0000
vt 0.8609 0.9802 0.0000
vt 0.8343 0.9802 0.0000
vt 0.8015 0.9857 0.0000
vt 0.8282 0.8361 0.0000
vt 0.8282 0.9857 0.0000
vt 0.8188 0.6436 0.0000
vt 0.9684 0.8145 0.0000
vt 0.8188 0.8145 0.0000
vt 0.6161 0.6611 0.0000
vt 0.6428 0.8321 0.0000
vt 0.6161 0.8321 0.0000
vt 0.8110 0.6611 0.0000
vt 0.8609 0.8185 0.0000
vt 0.8015 0.8361 0.0000
vt 0.9684 0.6436 0.0000
vt 0.6428 0.6611 0.0000
# 20 texture coords

g a8
usemtl blinn1SG
s off
f 102/164/38 103/165/38 104/166/38 
f 105/167/39 103/168/39 106/169/39 
f 107/170/39 108/171/39 109/172/39 
f 110/173/40 111/174/40 107/175/40 
f 112/176/40 104/177/40 105/178/40 
f 102/164/38 113/179/38 103/165/38 
f 105/167/39 104/180/39 103/168/39 
f 107/170/39 111/181/39 108/171/39 
f 110/173/40 114/182/40 111/174/40 
f 112/176/40 102/183/40 104/177/40 
# 0 polygons - 10 triangles

#
# object a14
#

v  -62.4042 3.6798 4.1718
v  -62.3964 3.6752 37.1863
v  -62.3964 2.1384 37.1863
v  -70.2020 3.6752 37.1885
v  -62.4042 2.1430 4.1718
v  -70.2098 3.6798 4.1740
# 6 vertices

vn 1.0000 0.0000 -0.0000
vn 0.0000 1.0000 -0.0000
vn 1.0000 0.0000 -0.0002
vn 0.0000 1.0000 0.0001
# 4 vertex normals

vt 0.3579 0.0020 0.0000
vt 0.3579 0.4418 0.0000
vt 0.3374 0.4418 0.0000
vt 0.1991 0.0020 0.0000
vt 0.3031 0.0020 0.0000
vt 0.3030 0.4418 0.0000
vt 0.3375 0.0020 0.0000
vt 0.1990 0.4418 0.0000
# 8 texture coords

g a14
usemtl blinn1SG
s off
f 115/184/41 116/185/41 117/186/41 
f 118/187/42 116/188/42 115/189/42 
f 115/184/43 117/186/43 119/190/43 
f 118/187/44 115/189/44 120/191/44 
# 0 polygons - 4 triangles

#
# object a9
#

v  -47.4764 3.6623 11.6571
v  -66.8309 3.6623 11.6571
v  -66.8309 1.5837 11.6571
v  -47.4764 1.5837 11.6571
v  -62.4042 3.6798 4.1718
v  -39.2694 3.6652 11.6943
v  -39.2772 3.6798 4.1696
v  -62.3964 3.6652 11.6965
# 8 vertices

vn 0.0000 0.0000 1.0000
vn 0.0000 1.0000 -0.0000
vn 0.0000 1.0000 0.0019
# 3 vertex normals

vt 0.3925 0.9846 0.0000
vt 0.0490 0.9846 0.0000
vt 0.0490 0.9002 0.0000
vt 0.3925 0.9002 0.0000
vt 0.9980 0.6396 0.0000
vt 0.8978 0.3314 0.0000
vt 0.9980 0.3315 0.0000
vt 0.8977 0.6395 0.0000
# 8 texture coords

g a9
usemtl blinn1SG
s off
f 121/192/45 122/193/45 123/194/45 124/195/45 
f 125/196/46 126/197/46 127/198/46 
f 125/196/47 128/199/47 126/197/47 
# 1 polygons - 2 triangles

#
# object a16
#

v  -39.2694 3.6752 37.1841
v  -39.2772 3.6798 4.1696
v  -39.2772 2.1430 4.1696
v  -31.7927 3.6798 4.1674
v  -39.2694 2.1384 37.1841
v  -31.7849 3.6752 37.1819
# 6 vertices

vn -1.0000 0.0000 -0.0000
vn 0.0000 1.0000 -0.0000
vn -1.0000 0.0000 0.0002
vn 0.0000 1.0000 0.0001
# 4 vertex normals

vt 0.3306 0.0020 0.0000
vt 0.3307 0.4418 0.0000
vt 0.3102 0.4418 0.0000
vt 0.1915 0.4418 0.0000
vt 0.0918 0.4418 0.0000
vt 0.0919 0.0020 0.0000
vt 0.3101 0.0020 0.0000
vt 0.1916 0.0020 0.0000
# 8 texture coords

g a16
usemtl blinn1SG
s off
f 129/200/48 130/201/48 131/202/48 
f 132/203/49 130/204/49 129/205/49 
f 129/200/50 131/202/50 133/206/50 
f 132/203/51 129/205/51 134/207/51 
# 0 polygons - 4 triangles

