# 3ds Max Wavefront OBJ Exporter v0.97b - (c)2007 guruware
# File Created: 23.02.2017 13:16:53

mtllib stairsConector.mtl

#
# object StraightStair001
#

v  3.9337 3.7889 4.6976
v  3.9337 -1.7281 6.9369
v  3.9337 3.7707 6.0918
v  3.9337 4.2722 5.8883
v  11.3634 3.7707 6.0918
v  11.3634 -1.7281 6.9369
v  11.3634 3.7889 4.6976
v  11.3634 4.2722 5.8883
v  3.9337 3.7524 7.4861
v  3.9337 4.2540 7.2825
v  11.3634 3.7524 7.4861
v  11.3634 4.2540 7.2825
v  3.9337 3.7341 8.8803
v  3.9337 4.2357 8.6767
v  11.3634 3.7341 8.8803
v  11.3634 4.2357 8.6767
v  3.9337 3.7159 10.2745
v  3.9337 4.2174 10.0710
v  11.3634 3.7159 10.2745
v  11.3634 4.2174 10.0710
v  3.9337 3.6976 11.6688
v  3.9337 4.1991 11.4652
v  11.3634 3.6976 11.6688
v  11.3634 4.1991 11.4652
v  3.9337 3.6793 13.0630
v  3.9337 4.1809 12.8594
v  11.3634 3.6793 13.0630
v  11.3634 4.1809 12.8594
v  3.9337 3.6610 14.4572
v  3.9337 4.1626 14.2537
v  11.3634 3.6610 14.4572
v  11.3634 4.1626 14.2537
v  3.9337 3.6428 15.8515
v  3.9337 4.1443 15.6479
v  11.3634 3.6428 15.8515
v  11.3634 4.1443 15.6479
v  3.9337 3.6245 17.2457
v  3.9337 4.1260 17.0421
v  11.3634 3.6245 17.2457
v  11.3634 4.1260 17.0421
v  3.9337 3.6062 18.6399
v  3.9337 4.1078 18.4364
v  11.3634 3.6062 18.6399
v  11.3634 4.1078 18.4364
v  3.9337 3.5879 20.0342
v  3.9337 4.0895 19.8306
v  11.3634 3.5879 20.0342
v  11.3634 4.0895 19.8306
# 48 vertices

vn -1.0000 0.0000 0.0000
vn 1.0000 0.0000 -0.0000
vn -0.0000 0.9266 -0.3761
vn 0.0000 0.3761 0.9266
vn 0.0000 -0.9266 0.3761
vn -0.0000 -0.3761 -0.9266
# 6 vertex normals

g StraightStair001
usemtl wire_135110008
s 1
f 1//1 2//1 3//1 4//1 
f 5//2 6//2 7//2 8//2 
f 3//1 2//1 9//1 10//1 
f 11//2 6//2 5//2 12//2 
f 9//1 2//1 13//1 14//1 
f 15//2 6//2 11//2 16//2 
f 13//1 2//1 17//1 18//1 
f 19//2 6//2 15//2 20//2 
f 17//1 2//1 21//1 22//1 
f 23//2 6//2 19//2 24//2 
f 21//1 2//1 25//1 26//1 
f 27//2 6//2 23//2 28//2 
f 25//1 2//1 29//1 30//1 
f 31//2 6//2 27//2 32//2 
f 29//1 2//1 33//1 34//1 
f 35//2 6//2 31//2 36//2 
f 33//1 2//1 37//1 38//1 
f 39//2 6//2 35//2 40//2 
f 37//1 2//1 41//1 42//1 
f 43//2 6//2 39//2 44//2 
f 41//1 2//1 45//1 46//1 
f 47//2 6//2 43//2 48//2 
s 2
f 1//3 4//3 8//3 7//3 
s 4
f 4//4 3//4 5//4 8//4 
s 2
f 3//3 10//3 12//3 5//3 
s 4
f 10//4 9//4 11//4 12//4 
s 2
f 9//3 14//3 16//3 11//3 
s 4
f 14//4 13//4 15//4 16//4 
s 2
f 13//3 18//3 20//3 15//3 
s 4
f 18//4 17//4 19//4 20//4 
s 2
f 17//3 22//3 24//3 19//3 
s 4
f 22//4 21//4 23//4 24//4 
s 2
f 21//3 26//3 28//3 23//3 
s 4
f 26//4 25//4 27//4 28//4 
s 2
f 25//3 30//3 32//3 27//3 
s 4
f 30//4 29//4 31//4 32//4 
s 2
f 29//3 34//3 36//3 31//3 
s 4
f 34//4 33//4 35//4 36//4 
s 2
f 33//3 38//3 40//3 35//3 
s 4
f 38//4 37//4 39//4 40//4 
s 2
f 37//3 42//3 44//3 39//3 
s 4
f 42//4 41//4 43//4 44//4 
s 2
f 41//3 46//3 48//3 43//3 
s 4
f 46//4 45//4 47//4 48//4 
s 2
f 45//5 2//5 6//5 47//5 
s 4
f 2//6 1//6 7//6 6//6 
# 46 polygons

