# This file uses centimeters as units for non-parametric coordinates.

mtllib suelo2.mtl
g default
v 3.327612 -0.384447 0.527687
v -3.991018 -0.384447 2.162887
v -3.991018 -0.384447 0.527687
v 3.327612 -0.384447 2.162887
v 3.327612 1.152353 0.527687
v -3.991018 1.152353 2.162887
v 3.327612 1.152353 2.162887
v -3.991018 1.152353 0.527687
v 2.873183 -0.391447 -0.699413
v -2.659017 -0.391447 0.529987
v -2.659017 -0.391447 -0.699413
v 2.873183 -0.391447 0.529987
v 2.873183 1.145353 -0.699413
v -2.659017 1.145353 0.529987
v 2.873183 1.145353 0.529987
v -2.659017 1.145353 -0.699413
vt 0.727900 0.438300
vt 0.630600 0.000500
vt 0.727900 0.000500
vt 0.630600 0.438300
vt 0.826100 0.000500
vt 0.728900 0.438300
vt 0.728900 0.000500
vt 0.826100 0.438300
vt 0.140000 0.877000
vt 0.261600 0.439200
vt 0.261600 0.877000
vt 0.140000 0.439200
vt 0.727900 0.999500
vt 0.630600 0.877900
vt 0.727900 0.877900
vt 0.630600 0.999500
vt 0.384200 0.000500
vt 0.262600 0.438300
vt 0.262600 0.000500
vt 0.384200 0.438300
vt 0.262600 0.877900
vt 0.359900 0.999500
vt 0.262600 0.999500
vt 0.359900 0.877900
vt 0.900200 0.877000
vt 0.827100 0.439200
vt 0.900200 0.439200
vt 0.827100 0.877000
vt 0.900200 0.000500
vt 0.827100 0.438300
vt 0.827100 0.000500
vt 0.900200 0.438300
vt 0.262600 0.877000
vt 0.384200 0.439200
vt 0.384200 0.877000
vt 0.262600 0.439200
vt 0.802000 0.999500
vt 0.728900 0.877900
vt 0.802000 0.877900
vt 0.728900 0.999500
vt 0.261600 0.000500
vt 0.140000 0.438300
vt 0.140000 0.000500
vt 0.261600 0.438300
vt 0.901100 0.000500
vt 0.974300 0.122100
vt 0.901100 0.122100
vt 0.974300 0.000500
vn 0.333333 -0.666667 -0.666667
vn -0.333333 -0.666667 0.666667
vn -0.816497 -0.408248 -0.408248
vn 0.333333 -0.666667 -0.666667
vn 0.816497 -0.408248 0.408248
vn -0.333333 -0.666667 0.666667
vn 0.666667 0.666667 -0.333333
vn -0.666667 0.666667 0.333333
vn 0.408248 0.408248 0.816497
vn 0.666667 0.666667 -0.333333
vn -0.408248 0.408248 -0.816497
vn -0.666667 0.666667 0.333333
vn 0.408248 0.408248 0.816497
vn -0.333333 -0.666667 0.666667
vn 0.816497 -0.408248 0.408248
vn 0.408248 0.408248 0.816497
vn -0.666667 0.666667 0.333333
vn -0.333333 -0.666667 0.666667
vn 0.666667 0.666667 -0.333333
vn 0.816497 -0.408248 0.408248
vn 0.333333 -0.666667 -0.666667
vn 0.666667 0.666667 -0.333333
vn 0.408248 0.408248 0.816497
vn 0.816497 -0.408248 0.408248
vn -0.408248 0.408248 -0.816497
vn 0.333333 -0.666667 -0.666667
vn -0.816497 -0.408248 -0.408248
vn -0.408248 0.408248 -0.816497
vn 0.666667 0.666667 -0.333333
vn 0.333333 -0.666667 -0.666667
vn -0.666667 0.666667 0.333333
vn -0.816497 -0.408248 -0.408248
vn -0.333333 -0.666667 0.666667
vn -0.666667 0.666667 0.333333
vn -0.408248 0.408248 -0.816497
vn -0.816497 -0.408248 -0.408248
vn 0.333333 -0.666667 -0.666667
vn -0.333333 -0.666667 0.666667
vn -0.816497 -0.408248 -0.408248
vn 0.333333 -0.666667 -0.666667
vn 0.816497 -0.408248 0.408248
vn -0.333333 -0.666667 0.666667
vn 0.666667 0.666667 -0.333333
vn -0.666667 0.666667 0.333333
vn 0.408248 0.408248 0.816497
vn 0.666667 0.666667 -0.333333
vn -0.408248 0.408248 -0.816497
vn -0.666667 0.666667 0.333333
vn 0.408248 0.408248 0.816497
vn -0.333333 -0.666667 0.666667
vn 0.816497 -0.408248 0.408248
vn 0.408248 0.408248 0.816497
vn -0.666667 0.666667 0.333333
vn -0.333333 -0.666667 0.666667
vn 0.666667 0.666667 -0.333333
vn 0.816497 -0.408248 0.408248
vn 0.333333 -0.666667 -0.666667
vn 0.666667 0.666667 -0.333333
vn 0.408248 0.408248 0.816497
vn 0.816497 -0.408248 0.408248
vn -0.408248 0.408248 -0.816497
vn 0.333333 -0.666667 -0.666667
vn -0.816497 -0.408248 -0.408248
vn -0.408248 0.408248 -0.816497
vn 0.666667 0.666667 -0.333333
vn 0.333333 -0.666667 -0.666667
vn -0.666667 0.666667 0.333333
vn -0.816497 -0.408248 -0.408248
vn -0.333333 -0.666667 0.666667
vn -0.666667 0.666667 0.333333
vn -0.408248 0.408248 -0.816497
vn -0.816497 -0.408248 -0.408248
s off
g cajasJuliyo1:polySurface6
usemtl blinn1SG
f 1/1/1 2/2/2 3/3/3
f 1/1/4 4/4/5 2/2/6
f 5/5/7 6/6/8 7/7/9
f 5/5/10 8/8/11 6/6/12
f 7/9/13 2/10/14 4/11/15
f 7/9/16 6/12/17 2/10/18
f 5/13/19 4/14/20 1/15/21
f 5/13/22 7/16/23 4/14/24
f 8/17/25 1/18/26 3/19/27
f 8/17/28 5/20/29 1/18/30
f 6/21/31 3/22/32 2/23/33
f 6/21/34 8/24/35 3/22/36
f 9/25/37 10/26/38 11/27/39
f 9/25/40 12/28/41 10/26/42
f 13/29/43 14/30/44 15/31/45
f 13/29/46 16/32/47 14/30/48
f 15/33/49 10/34/50 12/35/51
f 15/33/52 14/36/53 10/34/54
f 13/37/55 12/38/56 9/39/57
f 13/37/58 15/40/59 12/38/60
f 16/41/61 9/42/62 11/43/63
f 16/41/64 13/44/65 9/42/66
f 14/45/67 11/46/68 10/47/69
f 14/45/70 16/48/71 11/46/72
