# 3ds Max Wavefront OBJ Exporter v0.97b - (c)2007 guruware
# File Created: 03.03.2017 12:22:18

mtllib wallJungle2.mtl

#
# object wallJungle2
#

v  2.1607 -3.9775 7.4732
v  2.1607 7.3775 0.0814
v  2.1607 7.3775 7.4732
v  2.1607 -3.9775 0.0814
v  0.1607 -3.9775 7.4732
v  0.1607 7.3775 7.4732
v  0.1607 7.3775 0.0814
v  0.1607 -3.9775 0.0814
v  0.1713 -7.3853 5.9878
v  0.1713 7.3853 -7.4732
v  0.1713 7.3853 5.9878
v  0.1713 -7.3853 -7.4732
v  -2.1607 7.3853 5.9878
v  -2.1607 7.3853 -7.4732
v  -2.1607 -7.3853 -7.4732
v  -2.1607 -7.3853 5.9878
# 16 vertices

vn 1.0000 0.0000 -0.0000
vn 0.0000 0.0000 1.0000
vn 0.0000 0.0000 -1.0000
vn 0.0000 1.0000 -0.0000
vn -1.0000 0.0000 -0.0000
# 5 vertex normals

vt 0.3102 0.5407 0.0000
vt 0.4044 0.6854 0.0000
vt 0.3102 0.6854 0.0000
vt 0.4044 0.5407 0.0000
vt 0.4105 0.5398 0.0000
vt 0.4360 0.6845 0.0000
vt 0.4105 0.6845 0.0000
vt 0.4360 0.5398 0.0000
vt 0.2037 0.6935 0.0000
vt 0.1782 0.5488 0.0000
vt 0.2037 0.5488 0.0000
vt 0.1782 0.6935 0.0000
vt 0.6569 0.8257 0.0000
vt 0.6823 0.9199 0.0000
vt 0.6569 0.9199 0.0000
vt 0.6823 0.8257 0.0000
vt 0.7954 0.0019 0.0000
vt 0.9670 0.1901 0.0000
vt 0.7954 0.1901 0.0000
vt 0.9670 0.0019 0.0000
vt 0.2348 0.2042 0.0000
vt 0.2645 0.3758 0.0000
vt 0.2348 0.3758 0.0000
vt 0.2645 0.2042 0.0000
vt 0.9980 0.3824 0.0000
vt 0.9683 0.1941 0.0000
vt 0.9980 0.1941 0.0000
vt 0.9683 0.3824 0.0000
vt 0.7547 0.1941 0.0000
vt 0.7845 0.3824 0.0000
vt 0.7547 0.3824 0.0000
vt 0.7845 0.1941 0.0000
vt 0.7906 0.1941 0.0000
vt 0.9622 0.3824 0.0000
vt 0.7906 0.3824 0.0000
vt 0.9622 0.1941 0.0000
# 36 texture coords

g wallJungle2
usemtl _FinalWindowTexturedblinn1SG
s off
f -16/-36/-5 -15/-35/-5 -14/-34/-5 
f -16/-36/-5 -13/-33/-5 -15/-35/-5 
f -12/-32/-4 -14/-31/-4 -11/-30/-4 
f -12/-32/-4 -16/-29/-4 -14/-31/-4 
f -13/-28/-3 -10/-27/-3 -15/-26/-3 
f -13/-28/-3 -9/-25/-3 -10/-27/-3 
f -11/-24/-2 -15/-23/-2 -10/-22/-2 
f -11/-24/-2 -14/-21/-2 -15/-23/-2 
f -8/-20/-5 -7/-19/-5 -6/-18/-5 
f -8/-20/-5 -5/-17/-5 -7/-19/-5 
f -4/-16/-2 -7/-15/-2 -3/-14/-2 
f -4/-16/-2 -6/-13/-2 -7/-15/-2 
f -5/-12/-3 -3/-11/-3 -7/-10/-3 
f -5/-12/-3 -2/-9/-3 -3/-11/-3 
f -1/-8/-4 -6/-7/-4 -4/-6/-4 
f -1/-8/-4 -8/-5/-4 -6/-7/-4 
f -2/-4/-1 -4/-3/-1 -3/-2/-1 
f -2/-4/-1 -1/-1/-1 -4/-3/-1 
# 0 polygons - 18 triangles

