# 3ds Max Wavefront OBJ Exporter v0.97b - (c)2007 guruware
# File Created: 03.03.2017 12:22:16

mtllib wallWindow1.mtl

#
# object wallWindow1
#

v  1.0184 5.6781 -5.8663
v  -1.0184 5.6781 5.8663
v  1.0184 5.6781 5.8663
v  -1.0184 5.6781 -5.8663
v  -1.0184 -5.6781 5.8663
v  1.0184 -5.6781 5.8663
v  1.0184 -5.6781 -5.8663
v  -1.0184 -5.6781 -5.8663
# 8 vertices

vn 0.0000 1.0000 -0.0000
vn 0.0000 0.0000 1.0000
vn 1.0000 0.0000 -0.0000
vn -1.0000 0.0000 -0.0000
# 4 vertex normals

vt 0.6557 0.5358 0.0000
vt 0.6298 0.3863 0.0000
vt 0.6557 0.3863 0.0000
vt 0.6298 0.5358 0.0000
vt 0.6515 0.5398 0.0000
vt 0.6774 0.6845 0.0000
vt 0.6515 0.6845 0.0000
vt 0.6774 0.5398 0.0000
vt 0.3257 0.5358 0.0000
vt 0.4704 0.3863 0.0000
vt 0.4704 0.5358 0.0000
vt 0.3257 0.3863 0.0000
vt 0.4777 0.5358 0.0000
vt 0.6225 0.3863 0.0000
vt 0.6225 0.5358 0.0000
vt 0.4777 0.3863 0.0000
# 16 texture coords

g wallWindow1
usemtl _FinalWindowTexturedblinn1SG
s off
f -8/-16/-4 -7/-15/-4 -6/-14/-4 
f -8/-16/-4 -5/-13/-4 -7/-15/-4 
f -4/-12/-3 -6/-11/-3 -7/-10/-3 
f -4/-12/-3 -3/-9/-3 -6/-11/-3 
f -3/-8/-2 -8/-7/-2 -6/-6/-2 
f -3/-8/-2 -2/-5/-2 -8/-7/-2 
f -1/-4/-1 -7/-3/-1 -5/-2/-1 
f -1/-4/-1 -4/-1/-1 -7/-3/-1 
# 0 polygons - 8 triangles

