# This file uses centimeters as units for non-parametric coordinates.
mtllib window44.mtl
g default
v 1.000000 -5.677500 3.695901
v 1.000000 5.677500 3.695901
v 1.000000 5.677500 -3.695899
v 1.000000 -5.677500 -3.695899
v -1.000000 5.677500 3.695901
v -1.000000 5.677500 -3.695899
v 1.000000 5.677500 -3.695899
v 1.000000 5.677500 3.695901
v -1.000000 -5.677500 3.695901
v -1.000000 5.677500 3.695901
v 1.000000 5.677500 3.695901
v 1.000000 -5.677500 3.695901
v 1.000000 -5.677500 -3.695899
v 1.000000 5.677500 -3.695899
v -1.000000 5.677500 -3.695899
v -1.000000 -5.677500 -3.695899
v -1.000000 -5.677500 -3.695899
v -1.000000 5.677500 -3.695899
v -1.000000 5.677500 3.695901
v -1.000000 -5.677500 3.695901
vt 0.310203 0.540710
vt 0.404408 0.685424
vt 0.310203 0.685424
vt 0.310203 0.540710
vt 0.404408 0.540710
vt 0.404408 0.685424
vt 0.656856 0.825703
vt 0.682346 0.919909
vt 0.656856 0.919909
vt 0.682346 0.825703
vt 0.407052 0.538553
vt 0.434652 0.683425
vt 0.409233 0.683719
vt 0.433400 0.538462
vt 0.205952 0.695525
vt 0.176225 0.546597
vt 0.204707 0.546729
vt 0.176625 0.695316
vt 0.614937 0.424428
vt 0.563681 0.426418
vt 0.563681 0.458347
vt 0.549155 0.422922
vt 0.549155 0.454516
vt 0.498438 0.424891
vt 0.209862 0.548828
vt 0.304068 0.693543
vt 0.209862 0.693543
vt 0.304068 0.548828
vn 1.000000 0.000000 0.000000
vn 1.000000 0.000000 0.000000
vn 1.000000 0.000000 0.000000
vn 1.000000 0.000000 0.000000
vn 1.000000 0.000000 0.000000
vn 1.000000 0.000000 0.000000
vn 0.000000 1.000000 0.000000
vn 0.000000 1.000000 0.000000
vn 0.000000 1.000000 0.000000
vn 0.000000 1.000000 0.000000
vn 0.000000 1.000000 0.000000
vn 0.000000 1.000000 0.000000
vn 0.000000 0.000000 1.000000
vn 0.000000 0.000000 1.000000
vn 0.000000 0.000000 1.000000
vn 0.000000 0.000000 1.000000
vn 0.000000 0.000000 1.000000
vn 0.000000 0.000000 1.000000
vn 0.000000 0.000000 -1.000000
vn 0.000000 0.000000 -1.000000
vn 0.000000 0.000000 -1.000000
vn 0.000000 0.000000 -1.000000
vn 0.000000 0.000000 -1.000000
vn 0.000000 0.000000 -1.000000
vn -1.000000 0.000000 0.000000
vn -1.000000 0.000000 0.000000
vn -1.000000 0.000000 0.000000
vn -1.000000 0.000000 0.000000
vn -1.000000 0.000000 0.000000
vn -1.000000 0.000000 0.000000
vn -1.000000 0.000000 0.000000
vn -1.000000 0.000000 0.000000
vn -1.000000 0.000000 0.000000
vn -1.000000 0.000000 0.000000
s off
g initialShadingGroup polySurface723
f 1/1/1 3/2/2 2/3/3
f 1/4/4 4/5/5 3/6/6
f 5/7/7 7/8/8 6/9/9
f 5/7/10 8/10/11 7/8/12
f 9/11/13 11/12/14 10/13/15
f 9/11/16 12/14/17 11/12/18
f 13/15/19 15/16/20 14/17/21
f 13/15/22 16/18/23 15/16/24
s 1
f 9/19/25 15/20/26 16/21/27
f 9/22/25 10/23/28 15/24/26
s off
f 17/25/29 19/26/30 18/27/31
f 17/25/32 20/28/33 19/26/34
