# 3ds Max Wavefront OBJ Exporter v0.97b - (c)2007 guruware
# File Created: 14.03.2017 16:43:25

mtllib window23.mtl

#
# object window23
#

v  -0.0000 -0.4137 -5.3984
v  -0.0000 0.4137 -1.7994
v  -0.0000 0.4137 -5.3984
v  -0.0000 -0.4137 -1.7994
v  -0.0000 0.4137 1.7994
v  -0.0000 -0.4137 1.7994
v  -0.0000 0.4137 5.3984
v  -0.0000 -0.4137 5.3984
# 8 vertices

vn -1.0000 0.0000 -0.0000
# 1 vertex normals

vt 0.2770 0.8351 0.0000
vt 0.2875 0.7893 0.0000
vt 0.2875 0.8351 0.0000
vt 0.2770 0.7893 0.0000
vt 0.2875 0.7434 0.0000
vt 0.2770 0.7434 0.0000
vt 0.2875 0.6975 0.0000
vt 0.2770 0.6975 0.0000
# 8 texture coords

g window23
usemtl lambert1
s off
f 1/1/1 2/2/1 3/3/1 
f 1/1/1 4/4/1 2/2/1 
f 4/4/1 5/5/1 2/2/1 
f 4/4/1 6/6/1 5/5/1 
f 6/6/1 7/7/1 5/5/1 
f 6/6/1 8/8/1 7/7/1 
# 0 polygons - 6 triangles

