# 3ds Max Wavefront OBJ Exporter v0.97b - (c)2007 guruware
# File Created: 14.03.2017 16:43:25

mtllib window9.mtl

#
# object window9
#

v  -0.0000 -5.6775 -3.6959
v  -0.0000 5.6775 3.6959
v  -0.0000 5.6775 -3.6959
v  -0.0000 -5.6775 3.6959
# 4 vertices

vn -1.0000 0.0000 -0.0000
# 1 vertex normals

vt 0.2099 0.5488 0.0000
vt 0.3041 0.6935 0.0000
vt 0.2099 0.6935 0.0000
vt 0.3041 0.5488 0.0000
# 4 texture coords

g window9
usemtl lambert1
s off
f 1/1/1 2/2/1 3/3/1 
f 1/1/1 4/4/1 2/2/1 
# 0 polygons - 2 triangles

