# This file uses centimeters as units for non-parametric coordinates.

g default
v 1.166000 -7.385300 6.730499
v 1.166000 7.385300 6.730499
v 1.166000 7.385300 -6.730499
v 1.166000 -7.385300 -6.730499
v -1.166000 7.385300 6.730499
v -1.166000 7.385300 -6.730499
v 1.166000 7.385300 -6.730499
v 1.166000 7.385300 6.730499
v 1.166000 -7.385300 -6.730499
v 1.166000 7.385300 -6.730499
v -1.166000 7.385300 -6.730499
v -1.166000 -7.385300 -6.730499
v -1.166000 -7.385300 6.730499
v -1.166000 7.385300 6.730499
v 1.166000 7.385300 6.730499
v 1.166000 -7.385300 6.730499
v -1.166000 -7.385300 -6.730499
v -1.166000 7.385300 -6.730499
v -1.166000 7.385300 6.730499
v -1.166000 -7.385300 6.730499
vt 0.795411 0.001884
vt 0.966965 0.190129
vt 0.795411 0.190129
vt 0.966965 0.001884
vt 0.234818 0.204240
vt 0.264539 0.375795
vt 0.234818 0.375795
vt 0.264539 0.204240
vt 0.998008 0.382366
vt 0.968288 0.194121
vt 0.998008 0.194121
vt 0.968288 0.382366
vt 0.754742 0.194121
vt 0.784462 0.382366
vt 0.754742 0.382366
vt 0.784462 0.194121
vt 0.790598 0.194121
vt 0.962152 0.382366
vt 0.790598 0.382366
vt 0.962152 0.194121
vn 1.000000 0.000000 0.000000
vn 1.000000 0.000000 0.000000
vn 1.000000 0.000000 0.000000
vn 1.000000 0.000000 0.000000
vn 1.000000 0.000000 0.000000
vn 1.000000 0.000000 0.000000
vn 0.000000 1.000000 0.000000
vn 0.000000 1.000000 0.000000
vn 0.000000 1.000000 0.000000
vn 0.000000 1.000000 0.000000
vn 0.000000 1.000000 0.000000
vn 0.000000 1.000000 0.000000
vn 0.000000 0.000000 -1.000000
vn 0.000000 0.000000 -1.000000
vn 0.000000 0.000000 -1.000000
vn 0.000000 0.000000 -1.000000
vn 0.000000 0.000000 -1.000000
vn 0.000000 0.000000 -1.000000
vn 0.000000 0.000000 1.000000
vn 0.000000 0.000000 1.000000
vn 0.000000 0.000000 1.000000
vn 0.000000 0.000000 1.000000
vn 0.000000 0.000000 1.000000
vn 0.000000 0.000000 1.000000
vn -1.000000 0.000000 0.000000
vn -1.000000 0.000000 0.000000
vn -1.000000 0.000000 0.000000
vn -1.000000 0.000000 0.000000
vn -1.000000 0.000000 0.000000
vn -1.000000 0.000000 0.000000
s off
g initialShadingGroup polySurface726
f 1/1/1 3/2/2 2/3/3
f 1/1/4 4/4/5 3/2/6
f 5/5/7 7/6/8 6/7/9
f 5/5/10 8/8/11 7/6/12
f 9/9/13 11/10/14 10/11/15
f 9/9/16 12/12/17 11/10/18
f 13/13/19 15/14/20 14/15/21
f 13/13/22 16/16/23 15/14/24
f 17/17/25 19/18/26 18/19/27
f 17/17/28 20/20/29 19/18/30
