# 3ds Max Wavefront OBJ Exporter v0.97b - (c)2007 guruware
# File Created: 14.03.2017 16:43:24

mtllib window19.mtl

#
# object window19
#

v  -0.0000 0.4272 0.9782
v  -0.0000 -0.4272 -0.9782
v  -0.0000 0.4272 -0.9782
v  -0.0000 -0.4272 0.9782
# 4 vertices

vn 1.0000 0.0000 -0.0000
# 1 vertex normals

vt 0.1573 0.9139 0.0000
vt 0.1464 0.8890 0.0000
vt 0.1573 0.8890 0.0000
vt 0.1464 0.9139 0.0000
# 4 texture coords

g window19
usemtl lambert1
s off
f 1/1/1 2/2/1 3/3/1 
f 1/1/1 4/4/1 2/2/1 
# 0 polygons - 2 triangles

