# 3ds Max Wavefront OBJ Exporter v0.97b - (c)2007 guruware
# File Created: 11.03.2017 20:18:20

mtllib valla.mtl

#
# object Box006
#

v  4.3295 12.1750 24.3419
v  4.3295 12.1750 -11.5803
v  5.6237 12.1750 -11.5803
v  5.6237 12.1750 24.3419
v  4.3295 28.9698 24.3419
v  5.6237 28.9698 24.3419
v  5.6237 28.9698 -11.5803
v  4.3295 28.9698 -11.5803
v  2.5331 15.7204 -10.9271
v  2.5331 15.7204 23.6887
v  2.5331 25.4244 23.6887
v  2.5331 25.4244 -10.9271
v  1.0023 8.3066 24.3419
v  1.0023 8.3066 -11.5803
v  1.9937 7.4747 -11.5803
v  1.9937 7.4747 24.3419
v  2.9911 10.6768 24.3419
v  3.9825 9.8449 24.3419
v  3.9825 9.8449 -11.5803
v  2.9911 10.6768 -11.5803
v  -0.0480 0.0000 -11.5803
v  -0.0480 0.0000 -13.1932
v  5.5791 0.0000 -13.1932
v  5.5791 0.0000 -11.5803
v  -0.5505 40.5345 -11.5803
v  5.5791 40.5345 -11.5803
v  5.5791 40.5345 -13.1932
v  -0.5505 40.5345 -13.1932
v  5.5791 7.3669 -11.5803
v  -0.0480 7.3669 -11.5803
v  5.5791 7.3669 -13.1932
v  -0.0480 7.3669 -13.1932
v  5.5791 11.8209 -11.5803
v  3.9209 11.8209 -11.5803
v  5.5791 11.8209 -13.1932
v  3.9209 11.8209 -13.1932
v  5.5791 27.5345 -11.5803
v  3.9209 27.5345 -11.5803
v  5.5791 27.5345 -13.1932
v  3.9209 27.5345 -13.1932
v  5.5791 32.5345 -11.5803
v  -0.5505 32.5345 -11.5803
v  5.5791 32.5345 -13.1932
v  -0.5505 32.5345 -13.1932
v  0.8509 35.3091 24.3419
v  0.8509 35.3091 -11.5803
v  2.1451 35.3091 -11.5803
v  2.1451 35.3091 24.3419
v  0.8509 39.5546 24.3419
v  2.1451 39.5546 24.3419
v  2.1451 39.5546 -11.5803
v  0.8509 39.5546 -11.5803
v  -0.0480 0.0000 25.9548
v  -0.0480 0.0000 24.3419
v  5.5791 0.0000 24.3419
v  5.5791 0.0000 25.9548
v  -0.5505 40.5345 25.9548
v  5.5791 40.5345 25.9548
v  5.5791 40.5345 24.3419
v  -0.5505 40.5345 24.3419
v  5.5791 7.3669 25.9548
v  -0.0480 7.3669 25.9548
v  5.5791 7.3669 24.3419
v  -0.0480 7.3669 24.3419
v  5.5791 11.8209 25.9548
v  3.9209 11.8209 25.9548
v  5.5791 11.8209 24.3419
v  3.9209 11.8209 24.3419
v  5.5791 27.5345 25.9548
v  3.9209 27.5345 25.9548
v  5.5791 27.5345 24.3419
v  3.9209 27.5345 24.3419
v  5.5791 32.5345 25.9548
v  -0.5505 32.5345 25.9548
v  5.5791 32.5345 24.3419
v  -0.5505 32.5345 24.3419
v  0.8509 2.4670 24.3419
v  0.8509 2.4670 -11.5803
v  2.1451 2.4670 -11.5803
v  2.1451 2.4670 24.3419
v  0.8509 5.5611 24.3419
v  2.1451 5.5611 24.3419
v  2.1451 5.5611 -11.5803
v  0.8509 5.5611 -11.5803
# 84 vertices

vn 0.0000 -1.0000 -0.0000
vn 0.0000 1.0000 -0.0000
vn 0.0000 0.0000 1.0000
vn 1.0000 0.0000 -0.0000
vn 0.0000 0.0000 -1.0000
vn -1.0000 0.0000 -0.0000
vn -0.3417 -0.9398 -0.0000
vn -0.3417 0.0000 0.9398
vn -0.3417 0.9398 -0.0000
vn -0.3417 0.0000 -0.9398
vn -0.1528 -0.9883 -0.0000
vn 0.1528 0.9883 -0.0000
vn 0.2144 -0.9767 -0.0000
vn -0.2144 0.9767 -0.0000
vn -0.2025 0.9793 -0.0000
vn -0.2018 -0.9794 -0.0000
# 16 vertex normals

vt 0.7042 0.1494 0.0000
vt 0.0005 0.1494 0.0000
vt 0.0005 0.1240 0.0000
vt 0.7042 0.1240 0.0000
vt 0.0005 0.0875 0.0000
vt 0.0005 0.0621 0.0000
vt 0.7042 0.0621 0.0000
vt 0.7042 0.0875 0.0000
vt 0.1481 0.5951 0.0000
vt 0.1481 0.5698 0.0000
vt 0.2088 0.5698 0.0000
vt 0.2088 0.5951 0.0000
vt 0.7042 0.0611 0.0000
vt 0.0005 0.0611 0.0000
vt 0.0005 0.0005 0.0000
vt 0.7042 0.0005 0.0000
vt 0.0005 0.8732 0.0000
vt 0.0005 0.8478 0.0000
vt 0.0611 0.8478 0.0000
vt 0.0611 0.8732 0.0000
vt 0.6786 0.3405 0.0000
vt 0.0005 0.3405 0.0000
vt 0.0005 0.3054 0.0000
vt 0.6786 0.3054 0.0000
vt 0.6914 0.1846 0.0000
vt 0.0133 0.1846 0.0000
vt 0.1960 0.6303 0.0000
vt 0.1609 0.6303 0.0000
vt 0.6914 0.1227 0.0000
vt 0.0133 0.1227 0.0000
vt 0.0133 0.8127 0.0000
vt 0.0483 0.8127 0.0000
vt 0.7042 0.2443 0.0000
vt 0.0005 0.2443 0.0000
vt 0.0005 0.2249 0.0000
vt 0.7042 0.2249 0.0000
vt 0.0005 0.2651 0.0000
vt 0.0005 0.2457 0.0000
vt 0.7042 0.2457 0.0000
vt 0.7042 0.2651 0.0000
vt 0.7639 0.3500 0.0000
vt 0.7445 0.3530 0.0000
vt 0.7056 0.3445 0.0000
vt 0.7250 0.3415 0.0000
vt 0.0005 0.1859 0.0000
vt 0.7042 0.1859 0.0000
vt 0.0404 0.6933 0.0000
vt 0.0588 0.7002 0.0000
vt 0.0189 0.7005 0.0000
vt 0.0005 0.6935 0.0000
vt 0.7042 0.3041 0.0000
vt 0.0005 0.3041 0.0000
vt 0.7899 0.3054 0.0000
vt 0.7899 0.3370 0.0000
vt 0.6796 0.3370 0.0000
vt 0.6796 0.3054 0.0000
vt 0.8256 0.2175 0.0000
vt 0.7056 0.2175 0.0000
vt 0.7056 0.1859 0.0000
vt 0.8256 0.1859 0.0000
vt 0.1481 0.5586 0.0000
vt 0.1481 0.4483 0.0000
vt 0.1747 0.4483 0.0000
vt 0.1747 0.5586 0.0000
vt 0.7056 0.0937 0.0000
vt 0.7056 0.0621 0.0000
vt 0.7322 0.0621 0.0000
vt 0.7322 0.0937 0.0000
vt 0.0005 0.8113 0.0000
vt 0.0005 0.7011 0.0000
vt 0.0271 0.7011 0.0000
vt 0.0271 0.8113 0.0000
vt 0.1921 0.5322 0.0000
vt 0.2237 0.5322 0.0000
vt 0.2237 0.5588 0.0000
vt 0.1921 0.5588 0.0000
vt 0.1908 0.4483 0.0000
vt 0.1908 0.4808 0.0000
vt 0.7482 0.0621 0.0000
vt 0.7482 0.0937 0.0000
vt 0.0432 0.7788 0.0000
vt 0.0432 0.8113 0.0000
vt 0.9044 0.1240 0.0000
vt 0.9044 0.1556 0.0000
vt 0.8267 0.1556 0.0000
vt 0.8267 0.1240 0.0000
vt 0.2475 0.4483 0.0000
vt 0.2475 0.4808 0.0000
vt 0.8049 0.0621 0.0000
vt 0.8049 0.0937 0.0000
vt 0.0999 0.7788 0.0000
vt 0.0999 0.8113 0.0000
vt 0.1481 0.6633 0.0000
vt 0.1481 0.6317 0.0000
vt 0.2049 0.6317 0.0000
vt 0.2049 0.6633 0.0000
vt 0.2656 0.4483 0.0000
vt 0.2656 0.5684 0.0000
vt 0.8230 0.0621 0.0000
vt 0.8230 0.0937 0.0000
vt 0.1179 0.6912 0.0000
vt 0.1179 0.8113 0.0000
vt 0.8529 0.0321 0.0000
vt 0.8529 0.0005 0.0000
vt 0.9405 0.0005 0.0000
vt 0.9405 0.0321 0.0000
vt 0.2944 0.4483 0.0000
vt 0.2944 0.5684 0.0000
vt 0.8519 0.0621 0.0000
vt 0.8519 0.0937 0.0000
vt 0.1468 0.6912 0.0000
vt 0.1468 0.8113 0.0000
vt 0.1980 0.4986 0.0000
vt 0.2296 0.4986 0.0000
vt 0.2296 0.5275 0.0000
vt 0.1980 0.5275 0.0000
vt 0.7042 0.3935 0.0000
vt 0.0005 0.3935 0.0000
vt 0.0005 0.3682 0.0000
vt 0.7042 0.3682 0.0000
vt 0.0005 0.3668 0.0000
vt 0.0005 0.3415 0.0000
vt 0.7042 0.3415 0.0000
vt 0.7042 0.3668 0.0000
vt 0.2299 0.5275 0.0000
vt 0.2299 0.5021 0.0000
vt 0.2453 0.5021 0.0000
vt 0.2453 0.5275 0.0000
vt 0.9995 0.4800 0.0000
vt 0.2958 0.4800 0.0000
vt 0.2958 0.4647 0.0000
vt 0.9995 0.4647 0.0000
vt 0.0823 0.7704 0.0000
vt 0.0823 0.7450 0.0000
vt 0.0976 0.7450 0.0000
vt 0.0976 0.7704 0.0000
vt 0.9995 0.4637 0.0000
vt 0.2958 0.4637 0.0000
vt 0.2958 0.4483 0.0000
vt 0.9995 0.4483 0.0000
vt 0.8158 0.2457 0.0000
vt 0.8158 0.2773 0.0000
vt 0.7056 0.2773 0.0000
vt 0.7056 0.2457 0.0000
vt 0.8256 0.1556 0.0000
vt 0.7056 0.1556 0.0000
vt 0.7056 0.1240 0.0000
vt 0.8256 0.1240 0.0000
vt 0.0005 0.5586 0.0000
vt 0.0005 0.4483 0.0000
vt 0.0271 0.4483 0.0000
vt 0.0271 0.5586 0.0000
vt 0.7052 0.0321 0.0000
vt 0.7052 0.0005 0.0000
vt 0.7318 0.0005 0.0000
vt 0.7318 0.0321 0.0000
vt 0.0005 0.6899 0.0000
vt 0.0005 0.5796 0.0000
vt 0.0271 0.5796 0.0000
vt 0.0271 0.6899 0.0000
vt 0.0504 0.7040 0.0000
vt 0.0820 0.7040 0.0000
vt 0.0820 0.7306 0.0000
vt 0.0504 0.7306 0.0000
vt 0.0432 0.4483 0.0000
vt 0.0432 0.4808 0.0000
vt 0.7479 0.0005 0.0000
vt 0.7479 0.0321 0.0000
vt 0.0432 0.6574 0.0000
vt 0.0432 0.6899 0.0000
vt 0.9310 0.0621 0.0000
vt 0.9310 0.0937 0.0000
vt 0.8532 0.0937 0.0000
vt 0.8532 0.0621 0.0000
vt 0.0999 0.4483 0.0000
vt 0.0999 0.4808 0.0000
vt 0.8046 0.0005 0.0000
vt 0.8046 0.0321 0.0000
vt 0.0999 0.6574 0.0000
vt 0.0999 0.6899 0.0000
vt 0.8267 0.2175 0.0000
vt 0.8267 0.1859 0.0000
vt 0.8834 0.1859 0.0000
vt 0.8834 0.2175 0.0000
vt 0.1179 0.4483 0.0000
vt 0.1179 0.5684 0.0000
vt 0.8226 0.0005 0.0000
vt 0.8226 0.0321 0.0000
vt 0.1179 0.5698 0.0000
vt 0.1179 0.6899 0.0000
vt 0.2958 0.5370 0.0000
vt 0.2958 0.5054 0.0000
vt 0.3834 0.5054 0.0000
vt 0.3834 0.5370 0.0000
vt 0.1468 0.4483 0.0000
vt 0.1468 0.5684 0.0000
vt 0.8515 0.0005 0.0000
vt 0.8515 0.0321 0.0000
vt 0.1468 0.5698 0.0000
vt 0.1468 0.6899 0.0000
vt 0.0504 0.7415 0.0000
vt 0.0820 0.7415 0.0000
vt 0.0820 0.7704 0.0000
vt 0.0504 0.7704 0.0000
vt 0.7042 0.4203 0.0000
vt 0.0005 0.4203 0.0000
vt 0.0005 0.3949 0.0000
vt 0.7042 0.3949 0.0000
vt 0.0005 0.4470 0.0000
vt 0.0005 0.4216 0.0000
vt 0.7042 0.4216 0.0000
vt 0.7042 0.4470 0.0000
vt 0.2241 0.5588 0.0000
vt 0.2241 0.5334 0.0000
vt 0.2352 0.5334 0.0000
vt 0.2352 0.5588 0.0000
vt 0.9995 0.5044 0.0000
vt 0.2958 0.5044 0.0000
vt 0.2958 0.4932 0.0000
vt 0.9995 0.4932 0.0000
vt 0.0823 0.7306 0.0000
vt 0.0823 0.7053 0.0000
vt 0.0935 0.7053 0.0000
vt 0.0935 0.7306 0.0000
vt 0.9995 0.4922 0.0000
vt 0.2958 0.4922 0.0000
vt 0.2958 0.4810 0.0000
vt 0.9995 0.4810 0.0000
# 228 texture coords

g Box006
usemtl wire_154185229
s 2
f 1/1/1 2/2/1 3/3/1 4/4/1 
s 4
f 5/5/2 6/6/2 7/7/2 8/8/2 
s 8
f 1/9/3 4/10/3 6/11/3 5/12/3 
s 16
f 4/13/4 3/14/4 7/15/4 6/16/4 
s 32
f 3/17/5 2/18/5 8/19/5 7/20/5 
s 64
f 9/21/6 10/22/6 11/23/6 12/24/6 
s off
f 2/2/7 1/1/7 10/25/7 9/26/7 
f 1/9/8 5/12/8 11/27/8 10/28/8 
f 5/5/9 8/8/9 12/29/9 11/30/9 
f 8/19/10 2/18/10 9/31/10 12/32/10 
s 2
f 13/33/11 14/34/11 15/35/11 16/36/11 
s 4
f 17/37/12 18/38/12 19/39/12 20/40/12 
s 8
f 13/41/3 16/42/3 18/43/3 17/44/3 
s 16
f 16/36/13 15/35/13 19/45/13 18/46/13 
s 32
f 15/47/5 14/48/5 20/49/5 19/50/5 
s 64
f 14/51/14 13/52/14 17/37/14 20/40/14 
s 2
f 21/53/1 22/54/1 23/55/1 24/56/1 
s 4
f 25/57/2 26/58/2 27/59/2 28/60/2 
s 8
f 21/61/3 24/62/3 29/63/3 30/64/3 
s 16
f 24/65/4 23/66/4 31/67/4 29/68/4 
s 32
f 23/69/5 22/70/5 32/71/5 31/72/5 
s 64
f 22/73/6 21/74/6 30/75/6 32/76/6 
s off
f 30/64/3 29/63/3 33/77/3 34/78/3 
f 29/68/4 31/67/4 35/79/4 33/80/4 
f 31/72/5 32/71/5 36/81/5 35/82/5 
f 32/83/15 30/84/15 34/85/15 36/86/15 
f 34/78/3 33/77/3 37/87/3 38/88/3 
f 33/80/4 35/79/4 39/89/4 37/90/4 
f 35/82/5 36/81/5 40/91/5 39/92/5 
f 36/93/6 34/94/6 38/95/6 40/96/6 
f 38/88/3 37/87/3 41/97/3 42/98/3 
f 37/90/4 39/89/4 43/99/4 41/100/4 
f 39/92/5 40/91/5 44/101/5 43/102/5 
f 40/103/16 38/104/16 42/105/16 44/106/16 
f 42/98/3 41/97/3 26/107/3 25/108/3 
f 41/100/4 43/99/4 27/109/4 26/110/4 
f 43/102/5 44/101/5 28/111/5 27/112/5 
f 44/113/6 42/114/6 25/115/6 28/116/6 
s 2
f 45/117/1 46/118/1 47/119/1 48/120/1 
s 4
f 49/121/2 50/122/2 51/123/2 52/124/2 
s 8
f 45/125/3 48/126/3 50/127/3 49/128/3 
s 16
f 48/129/4 47/130/4 51/131/4 50/132/4 
s 32
f 47/133/5 46/134/5 52/135/5 51/136/5 
s 64
f 46/137/6 45/138/6 49/139/6 52/140/6 
s 2
f 53/141/1 54/142/1 55/143/1 56/144/1 
s 4
f 57/145/2 58/146/2 59/147/2 60/148/2 
s 8
f 53/149/3 56/150/3 61/151/3 62/152/3 
s 16
f 56/153/4 55/154/4 63/155/4 61/156/4 
s 32
f 55/157/5 54/158/5 64/159/5 63/160/5 
s 64
f 54/161/6 53/162/6 62/163/6 64/164/6 
s off
f 62/152/3 61/151/3 65/165/3 66/166/3 
f 61/156/4 63/155/4 67/167/4 65/168/4 
f 63/160/5 64/159/5 68/169/5 67/170/5 
f 64/171/15 62/172/15 66/173/15 68/174/15 
f 66/166/3 65/165/3 69/175/3 70/176/3 
f 65/168/4 67/167/4 71/177/4 69/178/4 
f 67/170/5 68/169/5 72/179/5 71/180/5 
f 68/181/6 66/182/6 70/183/6 72/184/6 
f 70/176/3 69/175/3 73/185/3 74/186/3 
f 69/178/4 71/177/4 75/187/4 73/188/4 
f 71/180/5 72/179/5 76/189/5 75/190/5 
f 72/191/16 70/192/16 74/193/16 76/194/16 
f 74/186/3 73/185/3 58/195/3 57/196/3 
f 73/188/4 75/187/4 59/197/4 58/198/4 
f 75/190/5 76/189/5 60/199/5 59/200/5 
f 76/201/6 74/202/6 57/203/6 60/204/6 
s 2
f 77/205/1 78/206/1 79/207/1 80/208/1 
s 4
f 81/209/2 82/210/2 83/211/2 84/212/2 
s 8
f 77/213/3 80/214/3 82/215/3 81/216/3 
s 16
f 80/217/4 79/218/4 83/219/4 82/220/4 
s 32
f 79/221/5 78/222/5 84/223/5 83/224/5 
s 64
f 78/225/6 77/226/6 81/227/6 84/228/6 
# 72 polygons

