# 3ds Max Wavefront OBJ Exporter v0.97b - (c)2007 guruware
# File Created: 12.03.2017 12:44:24

mtllib a11.mtl

#
# object a11
#

v  -6.3320 -0.0001 2.4539
v  6.3320 -0.0001 -2.4539
v  -6.3320 -0.0001 -2.4539
v  6.3320 -0.0001 2.4539
# 4 vertices

vn 0.0000 1.0000 -0.0000
# 1 vertex normals

vt 0.8671 0.9872 0.0000
vt 0.9325 0.8185 0.0000
vt 0.9325 0.9872 0.0000
vt 0.8671 0.8185 0.0000
# 4 texture coords

g a11
usemtl blinn1SG
s off
f 1/1/1 2/2/1 3/3/1 
f 1/1/1 4/4/1 2/2/1 
# 0 polygons - 2 triangles

