# 3ds Max Wavefront OBJ Exporter v0.97b - (c)2007 guruware
# File Created: 12.03.2017 12:44:24

mtllib a12.mtl

#
# object a12
#

v  -12.6077 -0.0000 1.7835
v  12.6077 -0.0000 -1.7835
v  -12.6077 -0.0000 -1.7835
v  12.6077 -0.0000 1.7835
# 4 vertices

vn 0.0000 1.0000 -0.0000
# 1 vertex normals

vt 0.5791 0.3379 0.0000
vt 0.6266 0.0020 0.0000
vt 0.6266 0.3379 0.0000
vt 0.5791 0.0020 0.0000
# 4 texture coords

g a12
usemtl blinn1SG
s off
f 1/1/1 2/2/1 3/3/1 
f 1/1/1 4/4/1 2/2/1 
# 0 polygons - 2 triangles

