# 3ds Max Wavefront OBJ Exporter v0.97b - (c)2007 guruware
# File Created: 12.03.2017 12:44:25

mtllib a13.mtl

#
# object a13
#

v  -12.6012 -0.0001 -5.0712
v  12.6013 -0.0001 5.0712
v  12.6013 -0.0001 -5.0712
v  -12.6011 -0.0001 5.0712
# 4 vertices

vn 0.0000 1.0000 -0.0000
# 1 vertex normals

vt 0.7688 0.3377 0.0000
vt 0.6336 0.0020 0.0000
vt 0.7688 0.0020 0.0000
vt 0.6336 0.3377 0.0000
# 4 texture coords

g a13
usemtl blinn1SG
s off
f 1/1/1 2/2/1 3/3/1 
f 1/1/1 4/4/1 2/2/1 
# 0 polygons - 2 triangles

