# 3ds Max Wavefront OBJ Exporter v0.97b - (c)2007 guruware
# File Created: 12.03.2017 12:44:26

mtllib a16.mtl

#
# object a16
#

v  -3.7383 0.7661 16.5084
v  -3.7461 0.7707 -16.5061
v  -3.7461 -0.7661 -16.5061
v  3.7383 0.7707 -16.5084
v  -3.7383 -0.7707 16.5084
v  3.7462 0.7661 16.5061
# 6 vertices

vn -1.0000 0.0000 -0.0000
vn 0.0000 1.0000 -0.0000
vn -1.0000 0.0000 0.0002
vn 0.0000 1.0000 0.0001
# 4 vertex normals

vt 0.3306 0.0020 0.0000
vt 0.3307 0.4418 0.0000
vt 0.3102 0.4418 0.0000
vt 0.1915 0.4418 0.0000
vt 0.0918 0.4418 0.0000
vt 0.0919 0.0020 0.0000
vt 0.3101 0.0020 0.0000
vt 0.1916 0.0020 0.0000
# 8 texture coords

g a16
usemtl blinn1SG
s off
f 1/1/1 2/2/1 3/3/1 
f 4/4/2 2/5/2 1/6/2 
f 1/1/3 3/3/3 5/7/3 
f 4/4/4 1/6/4 6/8/4 
# 0 polygons - 4 triangles

