# 3ds Max Wavefront OBJ Exporter v0.97b - (c)2007 guruware
# File Created: 12.03.2017 12:44:24

mtllib a17.mtl

#
# object a17
#

v  -3.0779 0.0023 -18.9693
v  -3.0701 -0.0023 18.9693
v  3.0780 -0.0023 18.9693
v  3.0702 0.0023 -18.9693
# 4 vertices

vn 0.0000 1.0000 -0.0000
vn 0.0000 1.0000 0.0001
# 2 vertex normals

vt 0.0020 0.5074 0.0000
vt 0.0021 0.0020 0.0000
vt 0.0840 0.0020 0.0000
vt 0.0839 0.5074 0.0000
# 4 texture coords

g a17
usemtl blinn1SG
s off
f 1/1/1 2/2/1 3/3/1 
f 1/1/2 3/3/2 4/4/2 
# 0 polygons - 2 triangles

