# 3ds Max Wavefront OBJ Exporter v0.97b - (c)2007 guruware
# File Created: 10.03.2017 19:45:43

mtllib a13.mtl

#
# object a13
#

v  2.1606 -3.2279 -6.1008
v  2.1606 -3.2279 -26.3457
v  -20.9664 -3.2279 -26.3435
v  -20.9664 -3.2279 -6.0986
v  -20.9664 -4.7646 -6.0986
v  -20.9664 -4.7646 -26.3435
v  2.1606 -4.7646 -26.3457
v  2.1606 -4.7646 -6.1008
# 8 vertices

vn 0.0000 1.0000 -0.0000
vn 0.0000 -1.0000 -0.0000
vn -1.0000 0.0000 -0.0000
vn 1.0000 0.0000 -0.0000
vn 0.0001 0.0000 1.0000
vn -0.0001 0.0000 -1.0000
# 6 vertex normals

vt 0.6667 0.3333 0.0000
vt 0.6667 0.6667 0.0000
vt 0.3333 0.6667 0.0000
vt 0.3333 0.3333 0.0000
vt 0.5556 0.0000 0.0000
vt 0.5556 1.0000 0.0000
vt 0.4444 1.0000 0.0000
vt 0.4444 0.0000 0.0000
# 8 texture coords

g a13
usemtl wire_088144225
s 2
f -8/-8/-6 -7/-7/-6 -6/-6/-6 -5/-5/-6 
s 4
f -4/-8/-5 -3/-7/-5 -2/-6/-5 -1/-5/-5 
s off
f -6/-6/-4 -3/-7/-4 -4/-8/-4 -5/-5/-4 
f -8/-4/-3 -1/-3/-3 -2/-2/-3 -7/-1/-3 
f -5/-5/-2 -4/-8/-2 -1/-5/-2 -8/-4/-2 
f -7/-7/-1 -2/-2/-1 -3/-7/-1 -6/-6/-1 
# 6 polygons

