# 3ds Max Wavefront OBJ Exporter v0.97b - (c)2007 guruware
# File Created: 10.03.2017 19:45:43

mtllib a14.mtl

#
# object a14
#

v  15.7767 -1.7648 -31.5927
v  9.6463 -1.7648 -31.5927
v  9.6463 -1.7648 -41.7286
v  15.7767 -1.7648 -41.7286
v  9.6463 -0.2348 -41.7286
v  9.6463 -0.2348 -31.5927
v  15.7767 -0.2348 -31.5927
v  15.7767 -0.2348 -41.7286
# 8 vertices

vn 0.0000 -1.0000 -0.0000
vn 0.0000 1.0000 -0.0000
vn 0.0000 0.0000 1.0000
vn 1.0000 0.0000 -0.0000
vn 0.0000 0.0000 -1.0000
vn -1.0000 0.0000 -0.0000
# 6 vertex normals

vt 0.0000 0.0000 0.0000
vt 1.0000 0.0000 0.0000
vt 1.0000 1.0000 0.0000
vt 0.0000 1.0000 0.0000
# 4 texture coords

g a14
usemtl wire_027177027
s 2
f -8/-4/-6 -7/-3/-6 -6/-2/-6 -5/-1/-6 
s 4
f -4/-1/-5 -3/-4/-5 -2/-3/-5 -1/-2/-5 
s 8
f -3/-1/-4 -7/-4/-4 -8/-3/-4 -2/-2/-4 
s 16
f -2/-1/-3 -8/-4/-3 -5/-3/-3 -1/-2/-3 
s 32
f -1/-1/-2 -5/-4/-2 -6/-3/-2 -4/-2/-2 
s 64
f -4/-1/-1 -6/-4/-1 -7/-3/-1 -3/-2/-1 
# 6 polygons

