# 3ds Max Wavefront OBJ Exporter v0.97b - (c)2007 guruware
# File Created: 10.03.2017 19:45:46

mtllib a18.mtl

#
# object a18
#

v  -20.9742 -1.7669 -33.8682
v  -20.9742 -0.2302 -33.8682
v  2.1528 -0.2302 -33.8704
v  2.1528 -1.7669 -33.8704
v  -20.9664 -0.2448 -26.3435
v  2.1606 -0.2448 -26.3457
v  2.1606 -1.7815 -26.3457
v  -20.9664 -1.7815 -26.3435
# 8 vertices

vn -0.0001 0.0000 -1.0000
vn 0.0000 1.0000 -0.0000
vn 0.0000 -1.0000 -0.0000
vn -1.0000 0.0000 -0.0000
vn 1.0000 0.0000 -0.0000
vn 0.0001 0.0000 1.0000
# 6 vertex normals

vt 0.6667 1.0000 0.0000
vt 0.6667 0.0000 0.0000
vt 0.3333 0.0000 0.0000
vt 0.3333 1.0000 0.0000
vt 0.3333 0.6667 0.0000
vt 0.6667 0.6667 0.0000
vt 0.4444 0.0000 0.0000
vt 0.4444 1.0000 0.0000
# 8 texture coords

g a18
usemtl wire_088144225
s 32
f -8/-8/-6 -7/-7/-6 -6/-6/-6 -5/-5/-6 
s 2
f -7/-5/-5 -4/-4/-5 -3/-3/-5 -6/-8/-5 
s 4
f -5/-5/-4 -2/-4/-4 -1/-3/-4 -8/-8/-4 
s off
f -8/-8/-3 -1/-3/-3 -4/-4/-3 -7/-5/-3 
f -6/-6/-2 -3/-2/-2 -2/-1/-2 -5/-5/-2 
f -3/-2/-1 -4/-4/-1 -1/-3/-1 -2/-4/-1 
# 6 polygons

