# 3ds Max Wavefront OBJ Exporter v0.97b - (c)2007 guruware
# File Created: 11.03.2017 20:55:24

mtllib a13.mtl

#
# object a13
#

v  -56.9952 3.6802 -5.9746
v  -31.7927 3.6802 4.1679
v  -31.7927 3.6802 -5.9746
v  -56.9951 3.6802 4.1679
# 4 vertices

vn 0.0000 1.0000 -0.0000
# 1 vertex normals

vt 0.7688 0.3377 0.0000
vt 0.6336 0.0020 0.0000
vt 0.7688 0.0020 0.0000
vt 0.6336 0.3377 0.0000
# 4 texture coords

g a13
usemtl blinn1SG
s off
f 1/1/1 2/2/1 3/3/1 
f 1/1/1 4/4/1 2/2/1 
# 0 polygons - 2 triangles

