# 3ds Max Wavefront OBJ Exporter v0.97b - (c)2007 guruware
# File Created: 11.03.2017 20:55:24

mtllib a15.mtl

#
# object a15
#

v  -62.3964 3.6752 31.9414
v  -39.2694 3.6752 31.9392
v  -39.2694 2.1384 31.9392
v  -39.2694 3.6752 37.1841
v  -62.3964 2.1384 31.9414
v  -62.3964 3.6752 37.1863
# 6 vertices

vn -0.0001 0.0000 -1.0000
vn 0.0000 1.0000 -0.0000
# 2 vertex normals

vt 0.8711 0.6395 0.0000
vt 0.8711 0.3314 0.0000
vt 0.8916 0.3314 0.0000
vt 0.7951 0.3314 0.0000
vt 0.8650 0.3314 0.0000
vt 0.8650 0.6395 0.0000
vt 0.8916 0.6395 0.0000
vt 0.7951 0.6395 0.0000
# 8 texture coords

g a15
usemtl blinn1SG
s off
f 1/1/1 2/2/1 3/3/1 
f 4/4/2 2/5/2 1/6/2 
f 1/1/1 3/3/1 5/7/1 
f 4/4/2 1/6/2 6/8/2 
# 0 polygons - 4 triangles

