# 3ds Max Wavefront OBJ Exporter v0.97b - (c)2007 guruware
# File Created: 11.03.2017 20:55:26

mtllib a2.mtl

#
# object a2
#

v  -72.5877 3.6800 18.3440
v  -70.2123 21.4960 18.3440
v  -72.5877 21.4960 18.3440
v  -70.2123 21.4960 4.1760
v  -72.5877 21.4960 4.1760
v  -70.2123 3.6800 18.3440
v  -70.2123 3.6800 4.1760
# 7 vertices

vn 0.0000 0.0000 1.0000
vn 0.0000 1.0000 -0.0000
vn 1.0000 0.0000 -0.0000
# 3 vertex normals

vt 0.4815 0.3490 0.0000
vt 0.5131 0.5864 0.0000
vt 0.4815 0.5864 0.0000
vt 0.0717 0.5114 0.0000
vt 0.1033 0.7001 0.0000
vt 0.0717 0.7001 0.0000
vt 0.2866 0.4458 0.0000
vt 0.4753 0.6831 0.0000
vt 0.2866 0.6831 0.0000
vt 0.5131 0.3490 0.0000
vt 0.1033 0.5114 0.0000
vt 0.4753 0.4458 0.0000
# 12 texture coords

g a2
usemtl blinn1SG
s off
f 1/1/1 2/2/1 3/3/1 
f 3/4/2 4/5/2 5/6/2 
f 6/7/3 4/8/3 2/9/3 
f 1/1/1 6/10/1 2/2/1 
f 3/4/2 2/11/2 4/5/2 
f 6/7/3 7/12/3 4/8/3 
# 0 polygons - 6 triangles

