# 3ds Max Wavefront OBJ Exporter v0.97b - (c)2007 guruware
# File Created: 11.03.2017 20:55:20

mtllib a3.mtl

#
# object a3
#

v  -31.7852 3.6650 4.6679
v  -25.6548 3.6650 -5.4679
v  -31.7852 3.6650 -5.4679
v  -25.6548 3.6650 4.6679
v  -25.6548 2.1350 4.6679
v  -25.6548 2.1350 -5.4679
# 6 vertices

vn 0.0000 1.0000 -0.0000
vn 1.0000 0.0000 -0.0000
# 2 vertex normals

vt 0.7137 0.8361 0.0000
vt 0.7954 0.9711 0.0000
vt 0.7137 0.9711 0.0000
vt 0.7954 0.8361 0.0000
vt 0.6872 0.9711 0.0000
vt 0.7076 0.8361 0.0000
vt 0.7076 0.9711 0.0000
vt 0.6872 0.8361 0.0000
# 8 texture coords

g a3
usemtl blinn1SG
s off
f 1/1/1 2/2/1 3/3/1 
f 1/1/1 4/4/1 2/2/1 
f 5/5/2 2/6/2 4/7/2 
f 5/5/2 6/8/2 2/6/2 
# 0 polygons - 4 triangles

