# 3ds Max Wavefront OBJ Exporter v0.97b - (c)2007 guruware
# File Created: 11.03.2017 20:55:25

mtllib a4.mtl

#
# object a4
#

v  -70.2066 16.7276 42.7500
v  -44.4534 16.7276 40.7500
v  -70.2066 16.7276 40.7500
v  -70.2066 3.6700 40.7500
v  -44.4534 3.6700 40.7500
v  -44.4534 3.6700 42.7500
v  -44.4534 16.7276 42.7500
v  -70.2066 3.6700 42.7500
# 8 vertices

vn 0.0000 1.0000 -0.0000
vn -1.0000 0.0000 -0.0000
vn 0.0000 0.0000 -1.0000
vn 1.0000 0.0000 -0.0000
# 4 vertex normals

vt 0.3647 0.3451 0.0000
vt 0.3913 0.0020 0.0000
vt 0.3913 0.3451 0.0000
vt 0.0061 0.5114 0.0000
vt 0.0328 0.6853 0.0000
vt 0.0061 0.6853 0.0000
vt 0.5718 0.0020 0.0000
vt 0.3978 0.3451 0.0000
vt 0.3978 0.0020 0.0000
vt 0.0389 0.5114 0.0000
vt 0.0655 0.6853 0.0000
vt 0.0389 0.6853 0.0000
vt 0.3647 0.0020 0.0000
vt 0.0328 0.5114 0.0000
vt 0.5718 0.3451 0.0000
vt 0.0655 0.5114 0.0000
# 16 texture coords

g a4
usemtl blinn1SG
s off
f 1/1/1 2/2/1 3/3/1 
f 4/4/2 1/5/2 3/6/2 
f 5/7/3 3/8/3 2/9/3 
f 6/10/4 2/11/4 7/12/4 
f 1/1/1 7/13/1 2/2/1 
f 4/4/2 8/14/2 1/5/2 
f 5/7/3 4/15/3 3/8/3 
f 6/10/4 5/16/4 2/11/4 
# 0 polygons - 8 triangles

