# 3ds Max Wavefront OBJ Exporter v0.97b - (c)2007 guruware
# File Created: 11.03.2017 20:55:25

mtllib a7.mtl

#
# object a7
#

v  -44.4729 14.8888 43.3347
v  -35.8671 14.8888 42.1053
v  -44.4729 14.8888 42.1053
v  -35.8671 1.8312 42.1053
v  -35.8671 1.8312 43.3347
v  -35.8671 14.8888 43.3347
v  -44.4729 1.8312 42.1053
# 7 vertices

vn 0.0000 1.0000 -0.0000
vn 0.0000 0.0000 -1.0000
vn 1.0000 0.0000 -0.0000
# 3 vertex normals

vt 0.4987 0.9768 0.0000
vt 0.5151 0.8621 0.0000
vt 0.5151 0.9768 0.0000
vt 0.1402 0.8781 0.0000
vt 0.0256 0.7041 0.0000
vt 0.1402 0.7041 0.0000
vt 0.0020 0.6893 0.0000
vt 0.0184 0.8633 0.0000
vt 0.0020 0.8633 0.0000
vt 0.4987 0.8621 0.0000
vt 0.0256 0.8781 0.0000
vt 0.0184 0.6893 0.0000
# 12 texture coords

g a7
usemtl blinn1SG
s off
f 1/1/1 2/2/1 3/3/1 
f 4/4/2 3/5/2 2/6/2 
f 5/7/3 2/8/3 6/9/3 
f 1/1/1 6/10/1 2/2/1 
f 4/4/2 7/11/2 3/5/2 
f 5/7/3 4/12/3 2/8/3 
# 0 polygons - 6 triangles

