# 3ds Max Wavefront OBJ Exporter v0.97b - (c)2007 guruware
# File Created: 11.03.2017 20:55:26

mtllib a8.mtl

#
# object a8
#

v  -56.9740 3.6730 4.1703
v  -56.9740 16.5091 -7.9723
v  -56.9740 16.5091 4.1703
v  -58.9740 16.5091 4.1703
v  -58.9740 16.5091 -7.9723
v  -70.2061 16.5093 4.1700
v  -58.9739 16.5093 2.1700
v  -70.2061 16.5093 2.1700
v  -70.2061 3.6800 4.1700
v  -58.9739 16.5093 4.1700
v  -58.9740 3.6730 4.1703
v  -56.9740 3.6730 -7.9723
v  -58.9739 3.6800 4.1700
# 13 vertices

vn 1.0000 0.0000 -0.0000
vn 0.0000 1.0000 -0.0000
vn 0.0000 0.0000 1.0000
# 3 vertex normals

vt 0.6492 0.6611 0.0000
vt 0.8110 0.8321 0.0000
vt 0.6492 0.8321 0.0000
vt 0.8343 0.8185 0.0000
vt 0.8609 0.9802 0.0000
vt 0.8343 0.9802 0.0000
vt 0.8015 0.9857 0.0000
vt 0.8282 0.8361 0.0000
vt 0.8282 0.9857 0.0000
vt 0.8188 0.6436 0.0000
vt 0.9684 0.8145 0.0000
vt 0.8188 0.8145 0.0000
vt 0.6161 0.6611 0.0000
vt 0.6428 0.8321 0.0000
vt 0.6161 0.8321 0.0000
vt 0.8110 0.6611 0.0000
vt 0.8609 0.8185 0.0000
vt 0.8015 0.8361 0.0000
vt 0.9684 0.6436 0.0000
vt 0.6428 0.6611 0.0000
# 20 texture coords

g a8
usemtl blinn1SG
s off
f 1/1/1 2/2/1 3/3/1 
f 4/4/2 2/5/2 5/6/2 
f 6/7/2 7/8/2 8/9/2 
f 9/10/3 10/11/3 6/12/3 
f 11/13/3 3/14/3 4/15/3 
f 1/1/1 12/16/1 2/2/1 
f 4/4/2 3/17/2 2/5/2 
f 6/7/2 10/18/2 7/8/2 
f 9/10/3 13/19/3 10/11/3 
f 11/13/3 1/20/3 3/14/3 
# 0 polygons - 10 triangles

