# 3ds Max Wavefront OBJ Exporter v0.97b - (c)2007 guruware
# File Created: 11.03.2017 20:55:26

mtllib a9.mtl

#
# object a9
#

v  -66.8309 1.5837 11.6571
v  -47.4764 1.5837 11.6571
v  -47.4764 3.6623 11.6571
v  -66.8309 3.6623 11.6571
v  -62.4042 3.6798 4.1718
v  -39.2694 3.6652 11.6943
v  -39.2772 3.6798 4.1696
v  -62.3964 3.6652 11.6965
# 8 vertices

vn 0.0000 0.0000 1.0000
vn 0.0000 1.0000 -0.0000
vn 0.0000 1.0000 0.0019
# 3 vertex normals

vt 0.0490 0.9002 0.0000
vt 0.3925 0.9002 0.0000
vt 0.3925 0.9846 0.0000
vt 0.0490 0.9846 0.0000
vt 0.9980 0.6396 0.0000
vt 0.8978 0.3314 0.0000
vt 0.9980 0.3315 0.0000
vt 0.8977 0.6395 0.0000
# 8 texture coords

g a9
usemtl blinn1SG
s off
f 1/1/1 2/2/1 3/3/1 4/4/1 
f 5/5/2 6/6/2 7/7/2 
f 5/5/3 8/8/3 6/6/3 
# 1 polygons - 2 triangles

