# 3ds Max Wavefront OBJ Exporter v0.97b - (c)2007 guruware
# File Created: 03.03.2017 12:22:16

mtllib door window.mtl

#
# object door_window
#

v  -0.2343 5.2418 -2.6738
v  0.2343 5.2375 2.6701
v  0.2343 5.2375 -2.6408
v  -0.2343 5.2418 2.6409
v  -0.2343 2.7255 -2.6516
v  -0.2343 2.7255 2.6630
v  0.2343 2.7255 -2.6516
v  0.2343 2.7255 2.6631
v  -0.2343 -4.7731 -2.6519
v  0.2343 -4.7731 2.6630
v  0.2343 -4.7731 -2.6527
v  -0.2343 -4.7731 2.6638
v  -0.2343 -5.2418 -2.6427
v  -0.2343 -5.2418 2.6738
v  0.2319 -5.2367 2.6629
v  0.2319 -5.2367 -2.6585
# 16 vertices

vn 0.0091 1.0000 -0.0000
vn -1.0000 0.0000 -0.0000
vn 0.0000 -1.0000 -0.0000
vn 1.0000 0.0000 -0.0000
vn 0.0000 1.0000 -0.0000
vn 1.0000 -0.0052 -0.0000
# 6 vertex normals

vt 0.5130 0.8941 0.0000
vt 0.5190 0.8260 0.0000
vt 0.5190 0.8937 0.0000
vt 0.5130 0.8264 0.0000
vt 0.5069 0.8263 0.0000
vt 0.4748 0.8937 0.0000
vt 0.4748 0.8260 0.0000
vt 0.5069 0.8940 0.0000
vt 0.3883 0.8947 0.0000
vt 0.3943 0.8270 0.0000
vt 0.3943 0.8947 0.0000
vt 0.3883 0.8270 0.0000
vt 0.4245 0.8947 0.0000
vt 0.4566 0.8272 0.0000
vt 0.4566 0.8948 0.0000
vt 0.4245 0.8270 0.0000
vt 0.4004 0.8948 0.0000
vt 0.4064 0.8270 0.0000
vt 0.4064 0.8948 0.0000
vt 0.4004 0.8270 0.0000
vt 0.4627 0.8937 0.0000
vt 0.4687 0.8261 0.0000
vt 0.4687 0.8939 0.0000
vt 0.4627 0.8260 0.0000
vt 0.4184 0.8271 0.0000
vt 0.4125 0.8948 0.0000
vt 0.4125 0.8270 0.0000
vt 0.4184 0.8948 0.0000
# 28 texture coords

g door_window
usemtl _FinalWindowTexturedblinn1SG
s off
f -16/-28/-6 -15/-27/-6 -14/-26/-6 
f -16/-28/-6 -13/-25/-6 -15/-27/-6 
f -13/-24/-5 -12/-23/-5 -11/-22/-5 
f -13/-24/-5 -16/-21/-5 -12/-23/-5 
f -11/-20/-4 -10/-19/-4 -9/-18/-4 
f -11/-20/-4 -12/-17/-4 -10/-19/-4 
f -9/-16/-3 -14/-15/-3 -15/-14/-3 
f -9/-16/-3 -10/-13/-3 -14/-15/-3 
f -8/-12/-2 -7/-11/-2 -6/-10/-2 
f -8/-12/-2 -5/-9/-2 -7/-11/-2 
f -4/-8/-5 -5/-7/-5 -8/-6/-5 
f -4/-8/-5 -3/-5/-5 -5/-7/-5 
f -6/-4/-1 -2/-3/-1 -1/-2/-1 
f -6/-4/-1 -7/-1/-1 -2/-3/-1 
# 0 polygons - 14 triangles

