# 3ds Max Wavefront OBJ Exporter v0.97b - (c)2007 guruware
# File Created: 03.03.2017 12:22:17

mtllib stairsWindow.mtl

#
# object stairsWindow
#

v  4.6050 -2.4979 -4.1611
v  3.7470 2.5878 -4.1420
v  4.5770 2.5924 -4.1342
v  3.7495 2.1251 -4.1444
v  2.9196 2.1206 -4.1521
v  2.9221 1.6579 -4.1546
v  2.0922 1.6533 -4.1623
v  2.0947 1.1905 -4.1647
v  -2.8699 -1.6132 -4.2258
v  -4.5248 -2.5478 -4.2461
v  -0.3876 -0.2114 -4.1953
v  1.2673 0.7232 -4.1749
v  1.2647 1.1859 -4.1725
v  0.4398 0.2560 -4.1851
v  0.4373 0.7187 -4.1826
v  -0.3901 0.2515 -4.1928
v  -1.2150 -0.6786 -4.2054
v  -1.2175 -0.2159 -4.2030
v  -2.0424 -1.1459 -4.2156
v  -2.0450 -0.6832 -4.2132
v  -2.8724 -1.1505 -4.2233
v  -3.6973 -2.0805 -4.2359
v  -3.6998 -1.6178 -4.2335
v  -4.5272 -2.0850 -4.2437
v  3.6717 2.0805 4.2359
v  3.6691 2.5432 4.2384
v  4.4992 2.5478 4.2461
v  -4.6026 -2.5924 4.1342
v  -4.6050 -2.1296 4.1367
v  -2.9477 -1.6579 4.1546
v  -2.9503 -1.1951 4.1570
v  -2.1202 -1.1905 4.1647
v  -2.1228 -0.7278 4.1672
v  -3.7751 -2.1251 4.1444
v  -3.7776 -1.6624 4.1468
v  -1.2928 -0.7232 4.1749
v  -1.2954 -0.2605 4.1774
v  1.1894 0.6786 4.2054
v  1.1869 1.1413 4.2079
v  2.0168 1.1459 4.2156
v  2.0143 1.6087 4.2180
v  -0.4654 -0.2560 4.1851
v  -0.4680 0.2068 4.1875
v  0.3620 0.2114 4.1953
v  0.3595 0.6741 4.1977
v  2.8443 1.6132 4.2258
v  2.8417 2.0760 4.2282
v  4.5272 -2.5425 4.2193
# 48 vertices

vn 0.0093 0.0053 -0.9999
vn -0.9999 -0.0055 -0.0093
vn -0.0055 1.0000 0.0053
vn -0.0093 -0.0053 0.9999
# 4 vertex normals

vt 0.9032 0.6839 0.0000
vt 0.8383 0.6948 0.0000
vt 0.8383 0.6842 0.0000
vt 0.8442 0.6948 0.0000
vt 0.8443 0.7053 0.0000
vt 0.8502 0.7053 0.0000
vt 0.8503 0.7159 0.0000
vt 0.8562 0.7159 0.0000
vt 0.8919 0.7791 0.0000
vt 0.9038 0.8002 0.0000
vt 0.0191 0.8648 0.0000
vt 0.0199 0.8291 0.0000
vt 0.0195 0.8469 0.0000
vt 0.0821 0.8768 0.0000
vt 0.1000 0.9084 0.0000
vt 0.0880 0.8873 0.0000
vt 0.0822 0.8874 0.0000
vt 0.0940 0.8979 0.0000
vt 0.0881 0.8979 0.0000
vt 0.0941 0.9084 0.0000
vt 0.1074 0.8768 0.0000
vt 0.1078 0.9084 0.0000
vt 0.1076 0.8873 0.0000
vt 0.5343 0.9010 0.0000
vt 0.5402 0.9116 0.0000
vt 0.5343 0.9116 0.0000
vt 0.3881 0.8988 0.0000
vt 0.4000 0.9199 0.0000
vt 0.3940 0.9093 0.0000
vt 0.3881 0.9093 0.0000
vt 0.3941 0.9199 0.0000
vt 0.4076 0.8988 0.0000
vt 0.4078 0.9199 0.0000
vt 0.4077 0.9094 0.0000
vt 0.5479 0.9010 0.0000
vt 0.5538 0.9116 0.0000
vt 0.5480 0.9116 0.0000
vt 0.5615 0.9010 0.0000
vt 0.5675 0.9116 0.0000
vt 0.5616 0.9116 0.0000
vt 0.8084 0.9110 0.0000
vt 0.8019 0.8042 0.0000
vt 0.8078 0.8042 0.0000
vt 0.8025 0.9110 0.0000
vt 0.8918 0.9110 0.0000
vt 0.8802 0.8043 0.0000
vt 0.8908 0.8042 0.0000
vt 0.8812 0.9111 0.0000
vt 0.7958 0.9110 0.0000
vt 0.7893 0.8042 0.0000
vt 0.7952 0.8042 0.0000
vt 0.7899 0.9110 0.0000
vt 0.7832 0.9110 0.0000
vt 0.7767 0.8042 0.0000
vt 0.7826 0.8042 0.0000
vt 0.7773 0.9110 0.0000
vt 0.7706 0.9110 0.0000
vt 0.7641 0.8042 0.0000
vt 0.7700 0.8042 0.0000
vt 0.7647 0.9110 0.0000
vt 0.7075 0.9182 0.0000
vt 0.7011 0.8115 0.0000
vt 0.7070 0.8114 0.0000
vt 0.7017 0.9183 0.0000
vt 0.7580 0.9159 0.0000
vt 0.7515 0.8091 0.0000
vt 0.7574 0.8091 0.0000
vt 0.7521 0.9159 0.0000
vt 0.7201 0.9182 0.0000
vt 0.7137 0.8115 0.0000
vt 0.7196 0.8114 0.0000
vt 0.7143 0.9183 0.0000
vt 0.6949 0.9325 0.0000
vt 0.6885 0.8257 0.0000
vt 0.6944 0.8257 0.0000
vt 0.6890 0.9325 0.0000
vt 0.7454 0.9159 0.0000
vt 0.7389 0.8091 0.0000
vt 0.7448 0.8091 0.0000
vt 0.7395 0.9159 0.0000
vt 0.7328 0.9182 0.0000
vt 0.7263 0.8115 0.0000
vt 0.7322 0.8114 0.0000
vt 0.7269 0.9183 0.0000
vt 0.8564 0.9110 0.0000
vt 0.8448 0.8043 0.0000
vt 0.8554 0.8042 0.0000
vt 0.8458 0.9111 0.0000
vt 0.9095 0.9110 0.0000
vt 0.8979 0.8043 0.0000
vt 0.9085 0.8042 0.0000
vt 0.8989 0.9111 0.0000
vt 0.9803 0.9043 0.0000
vt 0.9687 0.7976 0.0000
vt 0.9793 0.7975 0.0000
vt 0.9697 0.9044 0.0000
vt 0.9449 0.9095 0.0000
vt 0.9333 0.8028 0.0000
vt 0.9439 0.8027 0.0000
vt 0.9343 0.9096 0.0000
vt 0.8210 0.9110 0.0000
vt 0.8145 0.8042 0.0000
vt 0.8204 0.8042 0.0000
vt 0.8151 0.9110 0.0000
vt 0.9980 0.9016 0.0000
vt 0.9864 0.7949 0.0000
vt 0.9970 0.7948 0.0000
vt 0.9874 0.9017 0.0000
vt 0.8387 0.9110 0.0000
vt 0.8271 0.8043 0.0000
vt 0.8377 0.8042 0.0000
vt 0.8281 0.9111 0.0000
vt 0.9626 0.9043 0.0000
vt 0.9510 0.7976 0.0000
vt 0.9616 0.7975 0.0000
vt 0.9520 0.9044 0.0000
vt 0.8741 0.9110 0.0000
vt 0.8625 0.8043 0.0000
vt 0.8731 0.8042 0.0000
vt 0.8635 0.9111 0.0000
vt 0.8316 0.6948 0.0000
vt 0.7668 0.6839 0.0000
vt 0.8317 0.6842 0.0000
vt 0.8257 0.6948 0.0000
vt 0.8257 0.7053 0.0000
vt 0.8198 0.7053 0.0000
vt 0.8197 0.7159 0.0000
vt 0.8138 0.7159 0.0000
vt 0.7781 0.7791 0.0000
vt 0.7662 0.8002 0.0000
vt 0.0268 0.8291 0.0000
vt 0.0260 0.8648 0.0000
vt 0.0264 0.8469 0.0000
vt 0.0314 0.9031 0.0000
vt 0.0493 0.8715 0.0000
vt 0.0433 0.8820 0.0000
vt 0.0492 0.8821 0.0000
vt 0.0374 0.8926 0.0000
vt 0.0433 0.8926 0.0000
vt 0.0373 0.9032 0.0000
vt 0.0568 0.9084 0.0000
vt 0.0746 0.8767 0.0000
vt 0.0687 0.8873 0.0000
vt 0.0746 0.8873 0.0000
vt 0.0627 0.8978 0.0000
vt 0.0686 0.8979 0.0000
vt 0.0627 0.9084 0.0000
vt 0.4994 0.8980 0.0000
vt 0.4992 0.9099 0.0000
vt 0.4993 0.9040 0.0000
vt 0.5070 0.9086 0.0000
vt 0.5129 0.8981 0.0000
vt 0.5129 0.9087 0.0000
vt 0.5206 0.9116 0.0000
vt 0.5266 0.9010 0.0000
vt 0.5265 0.9116 0.0000
vt 0.9272 0.9095 0.0000
vt 0.9156 0.8028 0.0000
vt 0.9262 0.8027 0.0000
vt 0.9166 0.9096 0.0000
vt 0.9882 0.7907 0.0000
vt 0.9767 0.6840 0.0000
vt 0.9872 0.6839 0.0000
vt 0.9777 0.7908 0.0000
# 164 texture coords

g stairsWindow
usemtl _FinalWindowTexturedblinn1SG
s off
f -48/-164/-4 -47/-163/-4 -46/-162/-4 
f -47/-163/-4 -48/-164/-4 -45/-161/-4 
f -45/-161/-4 -48/-164/-4 -44/-160/-4 
f -44/-160/-4 -48/-164/-4 -43/-159/-4 
f -43/-159/-4 -48/-164/-4 -42/-158/-4 
f -42/-158/-4 -48/-164/-4 -41/-157/-4 
f -41/-157/-4 -48/-164/-4 -40/-156/-4 
f -40/-156/-4 -48/-164/-4 -39/-155/-4 
f -41/-154/-4 -40/-153/-4 -38/-152/-4 
f -41/-151/-4 -38/-150/-4 -37/-149/-4 
f -41/-151/-4 -37/-149/-4 -36/-148/-4 
f -37/-149/-4 -38/-150/-4 -35/-147/-4 
f -37/-149/-4 -35/-147/-4 -34/-146/-4 
f -35/-147/-4 -38/-150/-4 -33/-145/-4 
f -38/-144/-4 -40/-143/-4 -32/-142/-4 
f -38/-141/-4 -32/-140/-4 -31/-139/-4 
f -32/-138/-4 -40/-137/-4 -30/-136/-4 
f -32/-138/-4 -30/-136/-4 -29/-135/-4 
f -30/-136/-4 -40/-137/-4 -28/-134/-4 
f -40/-133/-4 -39/-132/-4 -27/-131/-4 
f -40/-130/-4 -27/-129/-4 -26/-128/-4 
f -27/-127/-4 -39/-126/-4 -25/-125/-4 
f -47/-124/-3 -24/-123/-3 -23/-122/-3 
f -47/-124/-3 -45/-121/-3 -24/-123/-3 
f -46/-120/-2 -23/-119/-2 -22/-118/-2 
f -46/-120/-2 -47/-117/-2 -23/-119/-2 
f -25/-116/-3 -21/-115/-3 -20/-114/-3 
f -25/-116/-3 -39/-113/-3 -21/-115/-3 
f -28/-112/-3 -19/-111/-3 -18/-110/-3 
f -28/-112/-3 -40/-109/-3 -19/-111/-3 
f -29/-108/-3 -17/-107/-3 -16/-106/-3 
f -29/-108/-3 -30/-105/-3 -17/-107/-3 
f -26/-104/-3 -15/-103/-3 -14/-102/-3 
f -26/-104/-3 -27/-101/-3 -15/-103/-3 
f -31/-100/-3 -13/-99/-3 -12/-98/-3 
f -31/-100/-3 -32/-97/-3 -13/-99/-3 
f -36/-96/-3 -11/-95/-3 -10/-94/-3 
f -36/-96/-3 -37/-93/-3 -11/-95/-3 
f -42/-92/-3 -9/-91/-3 -8/-90/-3 
f -42/-92/-3 -41/-89/-3 -9/-91/-3 
f -33/-88/-3 -7/-87/-3 -6/-86/-3 
f -33/-88/-3 -38/-85/-3 -7/-87/-3 
f -34/-84/-3 -5/-83/-3 -4/-82/-3 
f -34/-84/-3 -35/-81/-3 -5/-83/-3 
f -37/-80/-2 -4/-79/-2 -11/-78/-2 
f -37/-80/-2 -34/-77/-2 -4/-79/-2 
f -43/-76/-2 -8/-75/-2 -3/-74/-2 
f -43/-76/-2 -42/-73/-2 -8/-75/-2 
f -32/-72/-2 -16/-71/-2 -13/-70/-2 
f -32/-72/-2 -29/-69/-2 -16/-71/-2 
f -35/-68/-2 -6/-67/-2 -5/-66/-2 
f -35/-68/-2 -33/-65/-2 -6/-67/-2 
f -44/-64/-3 -3/-63/-3 -2/-62/-3 
f -44/-64/-3 -43/-61/-3 -3/-63/-3 
f -40/-60/-2 -14/-59/-2 -19/-58/-2 
f -40/-60/-2 -26/-57/-2 -14/-59/-2 
f -45/-56/-2 -2/-55/-2 -24/-54/-2 
f -45/-56/-2 -44/-53/-2 -2/-55/-2 
f -38/-52/-2 -12/-51/-2 -7/-50/-2 
f -38/-52/-2 -31/-49/-2 -12/-51/-2 
f -30/-48/-2 -18/-47/-2 -17/-46/-2 
f -30/-48/-2 -28/-45/-2 -18/-47/-2 
f -23/-44/-1 -1/-43/-1 -22/-42/-1 
f -1/-43/-1 -23/-44/-1 -24/-41/-1 
f -1/-43/-1 -24/-41/-1 -2/-40/-1 
f -1/-43/-1 -2/-40/-1 -3/-39/-1 
f -1/-43/-1 -3/-39/-1 -8/-38/-1 
f -1/-43/-1 -8/-38/-1 -9/-37/-1 
f -1/-43/-1 -9/-37/-1 -19/-36/-1 
f -1/-43/-1 -19/-36/-1 -21/-35/-1 
f -19/-34/-1 -9/-33/-1 -7/-32/-1 
f -7/-31/-1 -9/-30/-1 -11/-29/-1 
f -11/-29/-1 -9/-30/-1 -10/-28/-1 
f -7/-31/-1 -11/-29/-1 -5/-27/-1 
f -5/-27/-1 -11/-29/-1 -4/-26/-1 
f -7/-31/-1 -5/-27/-1 -6/-25/-1 
f -19/-24/-1 -7/-23/-1 -13/-22/-1 
f -13/-22/-1 -7/-23/-1 -12/-21/-1 
f -19/-24/-1 -13/-22/-1 -17/-20/-1 
f -17/-20/-1 -13/-22/-1 -16/-19/-1 
f -19/-24/-1 -17/-20/-1 -18/-18/-1 
f -21/-17/-1 -19/-16/-1 -15/-15/-1 
f -15/-14/-1 -19/-13/-1 -14/-12/-1 
f -21/-11/-1 -15/-10/-1 -20/-9/-1 
f -41/-8/-2 -10/-7/-2 -9/-6/-2 
f -41/-8/-2 -36/-5/-2 -10/-7/-2 
f -27/-4/-2 -20/-3/-2 -15/-2/-2 
f -27/-4/-2 -25/-1/-2 -20/-3/-2 
# 0 polygons - 88 triangles

