# 3ds Max Wavefront OBJ Exporter v0.97b - (c)2007 guruware
# File Created: 03.03.2017 12:22:16

mtllib techoWindow2.mtl

#
# object techoWindow2
#

v  1.9765 -0.3969 -5.4636
v  -1.0274 -0.1845 -5.4636
v  1.9765 -0.1845 -5.4636
v  -1.0274 -0.3969 -5.4636
v  1.9765 -0.1845 -9.0625
v  -1.0274 -0.1845 -9.0625
v  -1.0274 -0.3969 -9.0625
v  1.9765 -0.3969 -9.0625
v  -4.9806 -0.4012 12.6615
v  -1.8105 -0.4012 9.7157
v  -1.8105 -0.4012 12.6615
v  -4.9806 -0.4012 9.7157
v  -1.8105 -0.4012 6.7699
v  -4.9806 -0.4012 6.7699
v  -1.8105 -0.4012 3.8241
v  -4.9806 -0.4012 3.8241
v  -1.8105 -0.4012 0.8783
v  -4.9806 -0.4012 0.8783
v  -1.8105 -0.4012 -2.0676
v  -4.9806 -0.4012 -2.0676
v  -4.0315 -0.3969 -1.8647
v  -1.0274 -0.3969 -1.8647
v  -4.0315 -0.3969 -5.4636
v  1.9765 -0.3969 -1.8647
v  4.9806 -0.3969 -5.4636
v  4.9806 -0.3969 -1.8647
v  -4.0315 -0.3969 -9.0625
v  4.9806 -0.3969 -9.0625
v  -1.0274 -0.3969 -12.6615
v  -4.0315 -0.3969 -12.6615
v  1.9765 -0.3969 -12.6615
v  4.9806 -0.3969 -12.6615
v  -1.8105 -0.0133 12.6615
v  1.3595 -0.0133 9.7157
v  1.3595 -0.0133 12.6615
v  -1.8105 -0.0133 9.7157
v  1.3595 -0.0133 6.7699
v  -1.8105 -0.0133 6.7699
v  1.3595 -0.0133 3.8241
v  -1.8105 -0.0133 3.8241
v  1.3595 -0.0133 0.8783
v  -1.8105 -0.0133 0.8783
v  1.3595 -0.0133 -2.0676
v  -1.8105 -0.0133 -2.0676
v  1.3595 -0.4012 -2.0676
v  1.3595 -0.4012 0.8783
v  1.3595 -0.4012 3.8241
v  1.3595 -0.4012 6.7699
v  1.3595 -0.4012 9.7157
v  1.3595 -0.4012 12.6615
v  -1.0274 0.4304 -1.8647
v  -4.0315 0.4304 -1.8647
v  1.9765 0.4304 -1.8647
v  4.9806 0.4304 -1.8647
v  4.5296 -0.4012 9.7157
v  4.5296 -0.4012 12.6615
v  4.5296 -0.4012 6.7699
v  4.5296 -0.4012 3.8241
v  4.5296 -0.4012 0.8783
v  4.5296 -0.4012 -2.0676
v  -1.0274 0.4304 -5.4636
v  -4.0315 0.4304 -5.4636
v  1.9765 0.4304 -5.4636
v  4.9806 0.4304 -5.4636
v  -1.0274 0.4304 -9.0625
v  -4.0315 0.4304 -9.0625
v  1.9765 0.4304 -9.0625
v  4.9806 0.4304 -9.0625
v  -1.0274 0.4304 -12.6615
v  -4.0315 0.4304 -12.6615
v  1.9765 0.4304 -12.6615
v  4.9806 0.4304 -12.6615
v  -4.9806 0.3998 12.6615
v  -1.8105 0.3998 9.7157
v  -4.9806 0.3998 9.7157
v  -1.8105 0.3998 12.6615
v  1.3595 0.3998 9.7157
v  1.3595 0.3998 12.6615
v  4.5296 0.3998 9.7157
v  4.5296 0.3998 12.6615
v  -1.8105 0.3998 6.7699
v  -4.9806 0.3998 6.7699
v  1.3595 0.3998 6.7699
v  4.5296 0.3998 6.7699
v  -1.8105 0.3998 3.8241
v  -4.9806 0.3998 3.8241
v  1.3595 0.3998 3.8241
v  4.5296 0.3998 3.8241
v  -1.8105 0.3998 0.8783
v  -4.9806 0.3998 0.8783
v  1.3595 0.3998 0.8783
v  4.5296 0.3998 0.8783
v  -1.8105 0.3998 -2.0676
v  -4.9806 0.3998 -2.0676
v  1.3595 0.3998 -2.0676
v  4.5296 0.3998 -2.0676
v  -2.0468 0.4240 -12.5948
v  2.5159 -0.4304 -12.5948
v  2.5159 0.4240 -12.5948
v  -2.0468 -0.4304 -12.5948
# 100 vertices

vn 0.0000 0.0000 -1.0000
vn 0.0000 -1.0000 -0.0000
vn 1.0000 0.0000 -0.0000
vn 0.0000 0.0000 1.0000
vn -1.0000 0.0000 -0.0000
vn 0.0000 1.0000 -0.0000
# 6 vertex normals

vt 0.0356 0.8271 0.0000
vt 0.0329 0.8654 0.0000
vt 0.0329 0.8271 0.0000
vt 0.0356 0.8654 0.0000
vt 0.1315 0.8850 0.0000
vt 0.1698 0.8391 0.0000
vt 0.1698 0.8850 0.0000
vt 0.1315 0.8391 0.0000
vt 0.1138 0.8730 0.0000
vt 0.1165 0.8271 0.0000
vt 0.1165 0.8730 0.0000
vt 0.1138 0.8271 0.0000
vt 0.0418 0.8654 0.0000
vt 0.0445 0.8271 0.0000
vt 0.0445 0.8654 0.0000
vt 0.0418 0.8271 0.0000
vt 0.4551 0.3823 0.0000
vt 0.4955 0.3448 0.0000
vt 0.4955 0.3823 0.0000
vt 0.4551 0.3448 0.0000
vt 0.4955 0.3072 0.0000
vt 0.4551 0.3072 0.0000
vt 0.4955 0.2697 0.0000
vt 0.4551 0.2697 0.0000
vt 0.4955 0.2321 0.0000
vt 0.4551 0.2321 0.0000
vt 0.4955 0.1946 0.0000
vt 0.4551 0.1946 0.0000
vt 0.1542 0.8351 0.0000
vt 0.1925 0.7893 0.0000
vt 0.1925 0.8351 0.0000
vt 0.1542 0.7893 0.0000
vt 0.2308 0.7893 0.0000
vt 0.2308 0.8351 0.0000
vt 0.2691 0.7893 0.0000
vt 0.2691 0.8351 0.0000
vt 0.1925 0.7434 0.0000
vt 0.1542 0.7434 0.0000
vt 0.2691 0.7434 0.0000
vt 0.2308 0.7434 0.0000
vt 0.1925 0.6975 0.0000
vt 0.1542 0.6975 0.0000
vt 0.2308 0.6975 0.0000
vt 0.2691 0.6975 0.0000
vt 0.5016 0.3823 0.0000
vt 0.5420 0.3448 0.0000
vt 0.5420 0.3823 0.0000
vt 0.5016 0.3448 0.0000
vt 0.5420 0.3072 0.0000
vt 0.5016 0.3072 0.0000
vt 0.5420 0.2697 0.0000
vt 0.5016 0.2697 0.0000
vt 0.5420 0.2321 0.0000
vt 0.5016 0.2321 0.0000
vt 0.5420 0.1946 0.0000
vt 0.5016 0.1946 0.0000
vt 0.4329 0.3823 0.0000
vt 0.4379 0.3448 0.0000
vt 0.4379 0.3823 0.0000
vt 0.4329 0.3448 0.0000
vt 0.4379 0.3072 0.0000
vt 0.4329 0.3072 0.0000
vt 0.4379 0.2697 0.0000
vt 0.4329 0.2697 0.0000
vt 0.4379 0.2321 0.0000
vt 0.4329 0.2321 0.0000
vt 0.4379 0.1946 0.0000
vt 0.4329 0.1946 0.0000
vt 0.4440 0.3823 0.0000
vt 0.4490 0.3448 0.0000
vt 0.4490 0.3823 0.0000
vt 0.4440 0.3448 0.0000
vt 0.4490 0.3072 0.0000
vt 0.4440 0.3072 0.0000
vt 0.4490 0.2697 0.0000
vt 0.4440 0.2697 0.0000
vt 0.4490 0.2321 0.0000
vt 0.4440 0.2321 0.0000
vt 0.4490 0.1946 0.0000
vt 0.4440 0.1946 0.0000
vt 0.9104 0.7987 0.0000
vt 0.9209 0.7604 0.0000
vt 0.9209 0.7987 0.0000
vt 0.9104 0.7604 0.0000
vt 0.9209 0.7222 0.0000
vt 0.9104 0.7222 0.0000
vt 0.9209 0.6839 0.0000
vt 0.9104 0.6839 0.0000
vt 0.5482 0.3823 0.0000
vt 0.5886 0.3448 0.0000
vt 0.5886 0.3823 0.0000
vt 0.5482 0.3448 0.0000
vt 0.5886 0.3072 0.0000
vt 0.5482 0.3072 0.0000
vt 0.5886 0.2697 0.0000
vt 0.5482 0.2697 0.0000
vt 0.5886 0.2321 0.0000
vt 0.5482 0.2321 0.0000
vt 0.5886 0.1946 0.0000
vt 0.5482 0.1946 0.0000
vt 0.0314 0.6855 0.0000
vt 0.0697 0.7314 0.0000
vt 0.0314 0.7314 0.0000
vt 0.0697 0.6855 0.0000
vt 0.1080 0.7314 0.0000
vt 0.1080 0.6855 0.0000
vt 0.1463 0.7314 0.0000
vt 0.1463 0.6855 0.0000
vt 0.0697 0.7772 0.0000
vt 0.0314 0.7772 0.0000
vt 0.1080 0.7772 0.0000
vt 0.1463 0.7772 0.0000
vt 0.0697 0.8231 0.0000
vt 0.0314 0.8231 0.0000
vt 0.1080 0.8231 0.0000
vt 0.1463 0.8231 0.0000
vt 0.2945 0.8351 0.0000
vt 0.3051 0.7893 0.0000
vt 0.3051 0.8351 0.0000
vt 0.2945 0.7893 0.0000
vt 0.3051 0.7434 0.0000
vt 0.2945 0.7434 0.0000
vt 0.3051 0.6975 0.0000
vt 0.2945 0.6975 0.0000
vt 0.5947 0.1946 0.0000
vt 0.6351 0.2321 0.0000
vt 0.5947 0.2321 0.0000
vt 0.6351 0.1946 0.0000
vt 0.6755 0.2321 0.0000
vt 0.6755 0.1946 0.0000
vt 0.7159 0.2321 0.0000
vt 0.7159 0.1946 0.0000
vt 0.6351 0.2697 0.0000
vt 0.5947 0.2697 0.0000
vt 0.6755 0.2697 0.0000
vt 0.7159 0.2697 0.0000
vt 0.6351 0.3072 0.0000
vt 0.5947 0.3072 0.0000
vt 0.6755 0.3072 0.0000
vt 0.7159 0.3072 0.0000
vt 0.6351 0.3448 0.0000
vt 0.5947 0.3448 0.0000
vt 0.6755 0.3448 0.0000
vt 0.7159 0.3448 0.0000
vt 0.6351 0.3823 0.0000
vt 0.5947 0.3823 0.0000
vt 0.6755 0.3823 0.0000
vt 0.7159 0.3823 0.0000
vt 0.3391 0.8852 0.0000
vt 0.3282 0.8270 0.0000
vt 0.3391 0.8270 0.0000
vt 0.3282 0.8852 0.0000
vt 0.9385 0.6839 0.0000
vt 0.9279 0.7222 0.0000
vt 0.9279 0.6839 0.0000
vt 0.9385 0.7222 0.0000
vt 0.9279 0.7604 0.0000
vt 0.9385 0.7604 0.0000
vt 0.9279 0.7987 0.0000
vt 0.9385 0.7987 0.0000
vt 0.1227 0.8730 0.0000
vt 0.1254 0.8271 0.0000
vt 0.1254 0.8730 0.0000
vt 0.1227 0.8271 0.0000
vt 0.0506 0.8675 0.0000
vt 0.0556 0.8271 0.0000
vt 0.0556 0.8675 0.0000
vt 0.0506 0.8271 0.0000
vt 0.7413 0.6839 0.0000
vt 0.7311 0.7243 0.0000
vt 0.7311 0.6839 0.0000
vt 0.7413 0.7243 0.0000
vt 0.7311 0.7647 0.0000
vt 0.7413 0.7647 0.0000
vt 0.7311 0.8051 0.0000
vt 0.7413 0.8051 0.0000
vt 0.7384 0.3818 0.0000
vt 0.7486 0.3443 0.0000
vt 0.7486 0.3818 0.0000
vt 0.7384 0.3443 0.0000
vt 0.7486 0.3067 0.0000
vt 0.7384 0.3067 0.0000
vt 0.7486 0.2692 0.0000
vt 0.7384 0.2692 0.0000
vt 0.7486 0.2317 0.0000
vt 0.7384 0.2317 0.0000
vt 0.7486 0.1941 0.0000
vt 0.7384 0.1941 0.0000
# 188 texture coords

g techoWindow2
usemtl _FinalWindowTexturedblinn1SG
s off
f -100/-188/-6 -99/-187/-6 -98/-186/-6 
f -100/-188/-6 -97/-185/-6 -99/-187/-6 
f -99/-184/-5 -96/-183/-5 -98/-182/-5 
f -99/-184/-5 -95/-181/-5 -96/-183/-5 
f -97/-180/-4 -95/-179/-4 -99/-178/-4 
f -97/-180/-4 -94/-177/-4 -95/-179/-4 
f -94/-176/-3 -96/-175/-3 -95/-174/-3 
f -94/-176/-3 -93/-173/-3 -96/-175/-3 
f -92/-172/-5 -91/-171/-5 -90/-170/-5 
f -92/-172/-5 -89/-169/-5 -91/-171/-5 
f -89/-169/-5 -88/-168/-5 -91/-171/-5 
f -89/-169/-5 -87/-167/-5 -88/-168/-5 
f -87/-167/-5 -86/-166/-5 -88/-168/-5 
f -87/-167/-5 -85/-165/-5 -86/-166/-5 
f -85/-165/-5 -84/-164/-5 -86/-166/-5 
f -85/-165/-5 -83/-163/-5 -84/-164/-5 
f -83/-163/-5 -82/-162/-5 -84/-164/-5 
f -83/-163/-5 -81/-161/-5 -82/-162/-5 
f -80/-160/-5 -97/-159/-5 -79/-158/-5 
f -80/-160/-5 -78/-157/-5 -97/-159/-5 
f -79/-158/-5 -97/-159/-5 -100/-156/-5 
f -79/-158/-5 -100/-156/-5 -77/-155/-5 
f -77/-155/-5 -100/-156/-5 -76/-154/-5 
f -77/-155/-5 -76/-154/-5 -75/-153/-5 
f -78/-157/-5 -94/-152/-5 -97/-159/-5 
f -78/-157/-5 -74/-151/-5 -94/-152/-5 
f -100/-156/-5 -73/-150/-5 -76/-154/-5 
f -100/-156/-5 -93/-149/-5 -73/-150/-5 
f -74/-151/-5 -72/-148/-5 -94/-152/-5 
f -74/-151/-5 -71/-147/-5 -72/-148/-5 
f -94/-152/-5 -70/-146/-5 -93/-149/-5 
f -94/-152/-5 -72/-148/-5 -70/-146/-5 
f -93/-149/-5 -69/-145/-5 -73/-150/-5 
f -93/-149/-5 -70/-146/-5 -69/-145/-5 
f -68/-144/-5 -67/-143/-5 -66/-142/-5 
f -68/-144/-5 -65/-141/-5 -67/-143/-5 
f -65/-141/-5 -64/-140/-5 -67/-143/-5 
f -65/-141/-5 -63/-139/-5 -64/-140/-5 
f -63/-139/-5 -62/-138/-5 -64/-140/-5 
f -63/-139/-5 -61/-137/-5 -62/-138/-5 
f -61/-137/-5 -60/-136/-5 -62/-138/-5 
f -61/-137/-5 -59/-135/-5 -60/-136/-5 
f -59/-135/-5 -58/-134/-5 -60/-136/-5 
f -59/-135/-5 -57/-133/-5 -58/-134/-5 
f -90/-132/-4 -65/-131/-4 -68/-130/-4 
f -90/-132/-4 -91/-129/-4 -65/-131/-4 
f -91/-129/-4 -63/-128/-4 -65/-131/-4 
f -91/-129/-4 -88/-127/-4 -63/-128/-4 
f -88/-127/-4 -61/-126/-4 -63/-128/-4 
f -88/-127/-4 -86/-125/-4 -61/-126/-4 
f -86/-125/-4 -59/-124/-4 -61/-126/-4 
f -86/-125/-4 -84/-123/-4 -59/-124/-4 
f -84/-123/-4 -57/-122/-4 -59/-124/-4 
f -84/-123/-4 -82/-121/-4 -57/-122/-4 
f -56/-120/-2 -60/-119/-2 -58/-118/-2 
f -56/-120/-2 -55/-117/-2 -60/-119/-2 
f -55/-117/-2 -62/-116/-2 -60/-119/-2 
f -55/-117/-2 -54/-115/-2 -62/-116/-2 
f -54/-115/-2 -64/-114/-2 -62/-116/-2 
f -54/-115/-2 -53/-113/-2 -64/-114/-2 
f -53/-113/-2 -67/-112/-2 -64/-114/-2 
f -53/-113/-2 -52/-111/-2 -67/-112/-2 
f -52/-111/-2 -66/-110/-2 -67/-112/-2 
f -52/-111/-2 -51/-109/-2 -66/-110/-2 
f -80/-108/-3 -50/-107/-3 -49/-106/-3 
f -80/-108/-3 -79/-105/-3 -50/-107/-3 
f -79/-105/-3 -48/-104/-3 -50/-107/-3 
f -79/-105/-3 -77/-103/-3 -48/-104/-3 
f -77/-103/-3 -47/-102/-3 -48/-104/-3 
f -77/-103/-3 -75/-101/-3 -47/-102/-3 
f -51/-100/-5 -46/-99/-5 -45/-98/-5 
f -51/-100/-5 -52/-97/-5 -46/-99/-5 
f -52/-97/-5 -44/-96/-5 -46/-99/-5 
f -52/-97/-5 -53/-95/-5 -44/-96/-5 
f -53/-95/-5 -43/-94/-5 -44/-96/-5 
f -53/-95/-5 -54/-93/-5 -43/-94/-5 
f -54/-93/-5 -42/-92/-5 -43/-94/-5 
f -54/-93/-5 -55/-91/-5 -42/-92/-5 
f -55/-91/-5 -41/-90/-5 -42/-92/-5 
f -55/-91/-5 -56/-89/-5 -41/-90/-5 
f -49/-88/-1 -40/-87/-1 -39/-86/-1 
f -49/-88/-1 -50/-85/-1 -40/-87/-1 
f -50/-85/-1 -38/-84/-1 -40/-87/-1 
f -50/-85/-1 -48/-83/-1 -38/-84/-1 
f -48/-83/-1 -37/-82/-1 -38/-84/-1 
f -48/-83/-1 -47/-81/-1 -37/-82/-1 
f -39/-86/-1 -40/-87/-1 -36/-80/-1 
f -39/-86/-1 -36/-80/-1 -35/-79/-1 
f -40/-87/-1 -34/-78/-1 -36/-80/-1 
f -40/-87/-1 -38/-84/-1 -34/-78/-1 
f -38/-84/-1 -33/-77/-1 -34/-78/-1 
f -38/-84/-1 -37/-82/-1 -33/-77/-1 
f -35/-79/-1 -36/-80/-1 -32/-76/-1 
f -35/-79/-1 -32/-76/-1 -31/-75/-1 
f -36/-80/-1 -30/-74/-1 -32/-76/-1 
f -36/-80/-1 -34/-78/-1 -30/-74/-1 
f -34/-78/-1 -29/-73/-1 -30/-74/-1 
f -34/-78/-1 -33/-77/-1 -29/-73/-1 
f -75/-72/-4 -37/-71/-4 -47/-70/-4 
f -75/-72/-4 -76/-69/-4 -37/-71/-4 
f -76/-69/-4 -33/-68/-4 -37/-71/-4 
f -76/-69/-4 -73/-67/-4 -33/-68/-4 
f -73/-67/-4 -29/-66/-4 -33/-68/-4 
f -73/-67/-4 -69/-65/-4 -29/-66/-4 
f -28/-64/-1 -27/-63/-1 -26/-62/-1 
f -28/-64/-1 -25/-61/-1 -27/-63/-1 
f -25/-61/-1 -24/-60/-1 -27/-63/-1 
f -25/-61/-1 -23/-59/-1 -24/-60/-1 
f -23/-59/-1 -22/-58/-1 -24/-60/-1 
f -23/-59/-1 -21/-57/-1 -22/-58/-1 
f -26/-62/-1 -27/-63/-1 -20/-56/-1 
f -26/-62/-1 -20/-56/-1 -19/-55/-1 
f -27/-63/-1 -18/-54/-1 -20/-56/-1 
f -27/-63/-1 -24/-60/-1 -18/-54/-1 
f -24/-60/-1 -17/-53/-1 -18/-54/-1 
f -24/-60/-1 -22/-58/-1 -17/-53/-1 
f -19/-55/-1 -20/-56/-1 -16/-52/-1 
f -19/-55/-1 -16/-52/-1 -15/-51/-1 
f -20/-56/-1 -14/-50/-1 -16/-52/-1 
f -20/-56/-1 -18/-54/-1 -14/-50/-1 
f -18/-54/-1 -13/-49/-1 -14/-50/-1 
f -18/-54/-1 -17/-53/-1 -13/-49/-1 
f -15/-51/-1 -16/-52/-1 -12/-48/-1 
f -15/-51/-1 -12/-48/-1 -11/-47/-1 
f -16/-52/-1 -10/-46/-1 -12/-48/-1 
f -16/-52/-1 -14/-50/-1 -10/-46/-1 
f -14/-50/-1 -9/-45/-1 -10/-46/-1 
f -14/-50/-1 -13/-49/-1 -9/-45/-1 
f -11/-47/-1 -12/-48/-1 -8/-44/-1 
f -11/-47/-1 -8/-44/-1 -7/-43/-1 
f -12/-48/-1 -6/-42/-1 -8/-44/-1 
f -12/-48/-1 -10/-46/-1 -6/-42/-1 
f -10/-46/-1 -5/-41/-1 -6/-42/-1 
f -10/-46/-1 -9/-45/-1 -5/-41/-1 
f -4/-40/-3 -3/-39/-3 -2/-38/-3 
f -4/-40/-3 -1/-37/-3 -3/-39/-3 
f -69/-36/-6 -30/-35/-6 -29/-34/-6 
f -69/-36/-6 -70/-33/-6 -30/-35/-6 
f -70/-33/-6 -32/-32/-6 -30/-35/-6 
f -70/-33/-6 -72/-31/-6 -32/-32/-6 
f -72/-31/-6 -31/-30/-6 -32/-32/-6 
f -72/-31/-6 -71/-29/-6 -31/-30/-6 
f -93/-28/-2 -98/-27/-2 -96/-26/-2 
f -93/-28/-2 -100/-25/-2 -98/-27/-2 
f -82/-24/-3 -58/-23/-3 -57/-22/-3 
f -82/-24/-3 -56/-21/-3 -58/-23/-3 
f -41/-20/-6 -6/-19/-6 -5/-18/-6 
f -41/-20/-6 -56/-17/-6 -6/-19/-6 
f -56/-17/-6 -8/-16/-6 -6/-19/-6 
f -56/-17/-6 -82/-15/-6 -8/-16/-6 
f -82/-15/-6 -7/-14/-6 -8/-16/-6 
f -82/-15/-6 -81/-13/-6 -7/-14/-6 
f -81/-12/-2 -11/-11/-2 -7/-10/-2 
f -81/-12/-2 -83/-9/-2 -11/-11/-2 
f -83/-9/-2 -15/-8/-2 -11/-11/-2 
f -83/-9/-2 -85/-7/-2 -15/-8/-2 
f -85/-7/-2 -19/-6/-2 -15/-8/-2 
f -85/-7/-2 -87/-5/-2 -19/-6/-2 
f -87/-5/-2 -26/-4/-2 -19/-6/-2 
f -87/-5/-2 -89/-3/-2 -26/-4/-2 
f -89/-3/-2 -28/-2/-2 -26/-4/-2 
f -89/-3/-2 -92/-1/-2 -28/-2/-2 
# 0 polygons - 162 triangles

