# 3ds Max Wavefront OBJ Exporter v0.97b - (c)2007 guruware
# File Created: 23.12.2016 03:03:56

mtllib boton.mtl

#
# object Box001
#

v  -29.7916 0.0000 29.0426
v  -29.7916 0.0000 -20.0341
v  20.5405 0.0000 -20.0341
v  20.5405 0.0000 29.0426
v  -29.7916 5.3611 29.0426
v  20.5405 5.3611 29.0426
v  20.5405 5.3611 -20.0341
v  -29.7916 5.3611 -20.0341
v  17.6997 0.9891 4.4532
v  16.3675 0.9891 -3.1018
v  16.3675 3.4388 -3.1018
v  17.6997 3.4388 4.4532
v  12.5318 0.9891 -9.7455
v  12.5318 3.4388 -9.7455
v  6.6550 0.9891 -14.6767
v  6.6550 3.4388 -14.6767
v  -0.5538 0.9891 -17.3005
v  -0.5538 3.4388 -17.3005
v  -8.2253 0.9891 -17.3005
v  -8.2253 3.4388 -17.3005
v  -15.4342 0.9891 -14.6767
v  -15.4342 3.4388 -14.6767
v  -21.3109 0.9891 -9.7455
v  -21.3109 3.4388 -9.7455
v  -25.1467 0.9891 -3.1018
v  -25.1467 3.4388 -3.1018
v  -26.4788 0.9891 4.4532
v  -26.4788 3.4388 4.4532
v  -25.1467 0.9891 12.0081
v  -25.1467 3.4388 12.0081
v  -21.3109 0.9891 18.6519
v  -21.3109 3.4388 18.6519
v  -15.4342 0.9891 23.5830
v  -15.4342 3.4388 23.5830
v  -8.2254 0.9891 26.2068
v  -8.2254 3.4388 26.2068
v  -0.5538 0.9891 26.2068
v  -0.5538 3.4388 26.2068
v  6.6550 0.9891 23.5830
v  6.6550 3.4388 23.5830
v  12.5318 0.9891 18.6519
v  12.5318 3.4388 18.6519
v  16.3675 0.9891 12.0081
v  16.3675 3.4388 12.0081
v  16.3675 5.8886 -3.1018
v  17.6997 5.8886 4.4532
v  12.5318 5.8886 -9.7455
v  6.6550 5.8886 -14.6767
v  -0.5538 5.8886 -17.3005
v  -8.2253 5.8886 -17.3005
v  -15.4342 5.8886 -14.6767
v  -21.3109 5.8886 -9.7455
v  -25.1467 5.8886 -3.1018
v  -26.4788 5.8886 4.4532
v  -25.1467 5.8886 12.0081
v  -21.3109 5.8886 18.6519
v  -15.4342 5.8886 23.5830
v  -8.2254 5.8886 26.2068
v  -0.5538 5.8886 26.2068
v  6.6550 5.8886 23.5830
v  12.5318 5.8886 18.6519
v  16.3675 5.8886 12.0081
v  16.3675 8.3383 -3.1018
v  17.6997 8.3383 4.4532
v  12.5318 8.3383 -9.7455
v  6.6550 8.3383 -14.6767
v  -0.5538 8.3383 -17.3005
v  -8.2253 8.3383 -17.3005
v  -15.4342 8.3383 -14.6767
v  -21.3109 8.3383 -9.7455
v  -25.1467 8.3383 -3.1018
v  -26.4788 8.3383 4.4532
v  -25.1467 8.3383 12.0081
v  -21.3109 8.3383 18.6519
v  -15.4342 8.3383 23.5830
v  -8.2254 8.3383 26.2068
v  -0.5538 8.3383 26.2068
v  6.6550 8.3383 23.5830
v  12.5318 8.3383 18.6519
v  16.3675 8.3383 12.0081
v  16.3675 10.7881 -3.1018
v  17.6997 10.7881 4.4532
v  12.5318 10.7881 -9.7455
v  6.6550 10.7881 -14.6767
v  -0.5538 10.7881 -17.3005
v  -8.2253 10.7881 -17.3005
v  -15.4342 10.7881 -14.6767
v  -21.3109 10.7881 -9.7455
v  -25.1467 10.7881 -3.1018
v  -26.4788 10.7881 4.4532
v  -25.1467 10.7881 12.0081
v  -21.3109 10.7881 18.6519
v  -15.4342 10.7881 23.5830
v  -8.2254 10.7881 26.2068
v  -0.5538 10.7881 26.2068
v  6.6550 10.7881 23.5830
v  12.5318 10.7881 18.6519
v  16.3675 10.7881 12.0081
v  16.3675 13.2378 -3.1018
v  17.6997 13.2378 4.4532
v  12.5318 13.2378 -9.7455
v  6.6550 13.2378 -14.6767
v  -0.5538 13.2378 -17.3005
v  -8.2253 13.2378 -17.3005
v  -15.4342 13.2378 -14.6767
v  -21.3109 13.2378 -9.7455
v  -25.1467 13.2378 -3.1018
v  -26.4788 13.2378 4.4532
v  -25.1467 13.2378 12.0081
v  -21.3109 13.2378 18.6519
v  -15.4342 13.2378 23.5830
v  -8.2254 13.2378 26.2068
v  -0.5538 13.2378 26.2068
v  6.6550 13.2378 23.5830
v  12.5318 13.2378 18.6519
v  16.3675 13.2378 12.0081
# 116 vertices

vn 0.0000 -1.0000 -0.0000
vn 0.0000 1.0000 -0.0000
vn 0.0000 0.0000 1.0000
vn 1.0000 0.0000 -0.0000
vn 0.0000 0.0000 -1.0000
vn -1.0000 0.0000 -0.0000
vn 1.0000 0.0000 0.0000
vn 0.9397 0.0000 -0.3420
vn 0.7660 0.0000 -0.6428
vn 0.5000 0.0000 -0.8660
vn 0.1736 0.0000 -0.9848
vn -0.1736 0.0000 -0.9848
vn -0.5000 0.0000 -0.8660
vn -0.7660 0.0000 -0.6428
vn -0.9397 0.0000 -0.3420
vn -0.9397 0.0000 0.3420
vn -0.7660 0.0000 0.6428
vn -0.5000 0.0000 0.8660
vn -0.1736 0.0000 0.9848
vn 0.1736 0.0000 0.9848
vn 0.5000 0.0000 0.8660
vn 0.7660 0.0000 0.6428
vn 0.9397 0.0000 0.3420
# 23 vertex normals

vt 1.0000 0.0000 0.0000
vt 1.0000 1.0000 0.0000
vt 0.0000 1.0000 0.0000
vt 0.0000 0.0000 0.0000
vt 0.7500 0.0000 1.0000
vt 0.8056 0.0000 1.0000
vt 0.8056 0.2000 1.0000
vt 0.7500 0.2000 1.0000
vt 0.8611 0.0000 1.0000
vt 0.8611 0.2000 1.0000
vt 0.9167 0.0000 1.0000
vt 0.9167 0.2000 1.0000
vt 0.9722 0.0000 1.0000
vt 0.9722 0.2000 1.0000
vt 1.0278 0.0000 1.0000
vt 1.0278 0.2000 1.0000
vt 0.0278 0.0000 1.0000
vt 0.0833 0.0000 1.0000
vt 0.0833 0.2000 1.0000
vt 0.0278 0.2000 1.0000
vt 0.1389 0.0000 1.0000
vt 0.1389 0.2000 1.0000
vt 0.1944 0.0000 1.0000
vt 0.1944 0.2000 1.0000
vt 0.2500 0.0000 1.0000
vt 0.2500 0.2000 1.0000
vt 0.3056 0.0000 1.0000
vt 0.3056 0.2000 1.0000
vt 0.3611 0.0000 1.0000
vt 0.3611 0.2000 1.0000
vt 0.4167 0.0000 1.0000
vt 0.4167 0.2000 1.0000
vt 0.4722 0.0000 1.0000
vt 0.4722 0.2000 1.0000
vt 0.5278 0.0000 1.0000
vt 0.5278 0.2000 1.0000
vt 0.5833 0.0000 1.0000
vt 0.5833 0.2000 1.0000
vt 0.6389 0.0000 1.0000
vt 0.6389 0.2000 1.0000
vt 0.6944 0.0000 1.0000
vt 0.6944 0.2000 1.0000
vt 0.8056 0.4000 1.0000
vt 0.7500 0.4000 1.0000
vt 0.8611 0.4000 1.0000
vt 0.9167 0.4000 1.0000
vt 0.9722 0.4000 1.0000
vt 1.0278 0.4000 1.0000
vt 0.0833 0.4000 1.0000
vt 0.0278 0.4000 1.0000
vt 0.1389 0.4000 1.0000
vt 0.1944 0.4000 1.0000
vt 0.2500 0.4000 1.0000
vt 0.3056 0.4000 1.0000
vt 0.3611 0.4000 1.0000
vt 0.4167 0.4000 1.0000
vt 0.4722 0.4000 1.0000
vt 0.5278 0.4000 1.0000
vt 0.5833 0.4000 1.0000
vt 0.6389 0.4000 1.0000
vt 0.6944 0.4000 1.0000
vt 0.8056 0.6000 1.0000
vt 0.7500 0.6000 1.0000
vt 0.8611 0.6000 1.0000
vt 0.9167 0.6000 1.0000
vt 0.9722 0.6000 1.0000
vt 1.0278 0.6000 1.0000
vt 0.0833 0.6000 1.0000
vt 0.0278 0.6000 1.0000
vt 0.1389 0.6000 1.0000
vt 0.1944 0.6000 1.0000
vt 0.2500 0.6000 1.0000
vt 0.3056 0.6000 1.0000
vt 0.3611 0.6000 1.0000
vt 0.4167 0.6000 1.0000
vt 0.4722 0.6000 1.0000
vt 0.5278 0.6000 1.0000
vt 0.5833 0.6000 1.0000
vt 0.6389 0.6000 1.0000
vt 0.6944 0.6000 1.0000
vt 0.8056 0.8000 1.0000
vt 0.7500 0.8000 1.0000
vt 0.8611 0.8000 1.0000
vt 0.9167 0.8000 1.0000
vt 0.9722 0.8000 1.0000
vt 1.0278 0.8000 1.0000
vt 0.0833 0.8000 1.0000
vt 0.0278 0.8000 1.0000
vt 0.1389 0.8000 1.0000
vt 0.1944 0.8000 1.0000
vt 0.2500 0.8000 1.0000
vt 0.3056 0.8000 1.0000
vt 0.3611 0.8000 1.0000
vt 0.4167 0.8000 1.0000
vt 0.4722 0.8000 1.0000
vt 0.5278 0.8000 1.0000
vt 0.5833 0.8000 1.0000
vt 0.6389 0.8000 1.0000
vt 0.6944 0.8000 1.0000
vt 0.8056 1.0000 1.0000
vt 0.7500 1.0000 1.0000
vt 0.8611 1.0000 1.0000
vt 0.9167 1.0000 1.0000
vt 0.9722 1.0000 1.0000
vt 1.0278 1.0000 1.0000
vt 0.0833 1.0000 1.0000
vt 0.0278 1.0000 1.0000
vt 0.1389 1.0000 1.0000
vt 0.1944 1.0000 1.0000
vt 0.2500 1.0000 1.0000
vt 0.3056 1.0000 1.0000
vt 0.3611 1.0000 1.0000
vt 0.4167 1.0000 1.0000
vt 0.4722 1.0000 1.0000
vt 0.5278 1.0000 1.0000
vt 0.5833 1.0000 1.0000
vt 0.6389 1.0000 1.0000
vt 0.6944 1.0000 1.0000
vt 0.8214 0.8830 -0.2500
vt 0.9330 0.7500 -0.2500
vt 0.9924 0.5868 -0.2500
vt 0.9924 0.4132 -0.2500
vt 0.9330 0.2500 -0.2500
vt 0.8214 0.1170 -0.2500
vt 0.6710 0.0302 -0.2500
vt 0.5000 0.0000 -0.2500
vt 0.3290 0.0302 -0.2500
vt 0.1786 0.1170 -0.2500
vt 0.0670 0.2500 -0.2500
vt 0.0076 0.4132 -0.2500
vt 0.0076 0.5868 -0.2500
vt 0.0670 0.7500 -0.2500
vt 0.1786 0.8830 -0.2500
vt 0.3290 0.9698 -0.2500
vt 0.5000 1.0000 -0.2500
vt 0.6710 0.9698 -0.2500
vt 0.3290 0.9698 0.2500
vt 0.1786 0.8830 0.2500
vt 0.0670 0.7500 0.2500
vt 0.0076 0.5868 0.2500
vt 0.0076 0.4132 0.2500
vt 0.0670 0.2500 0.2500
vt 0.1786 0.1170 0.2500
vt 0.3290 0.0302 0.2500
vt 0.5000 0.0000 0.2500
vt 0.6710 0.0302 0.2500
vt 0.8214 0.1170 0.2500
vt 0.9330 0.2500 0.2500
vt 0.9924 0.4132 0.2500
vt 0.9924 0.5868 0.2500
vt 0.9330 0.7500 0.2500
vt 0.8214 0.8830 0.2500
vt 0.6710 0.9698 0.2500
vt 0.5000 1.0000 0.2500
# 154 texture coords

g Box001
usemtl wire_196088225
s 2
f 1/1/1 2/2/1 3/3/1 
f 3/3/1 4/4/1 1/1/1 
s 4
f 5/4/2 6/1/2 7/2/2 
f 7/2/2 8/3/2 5/4/2 
s 8
f 1/4/3 4/1/3 6/2/3 
f 6/2/3 5/3/3 1/4/3 
s 16
f 4/4/4 3/1/4 7/2/4 
f 7/2/4 6/3/4 4/4/4 
s 32
f 3/4/5 2/1/5 8/2/5 
f 8/2/5 7/3/5 3/4/5 
s 64
f 2/4/6 1/1/6 5/2/6 
f 5/2/6 8/3/6 2/4/6 
s 8
f 9/5/7 10/6/8 11/7/8 
f 11/7/8 12/8/7 9/5/7 
f 10/6/8 13/9/9 14/10/9 
f 14/10/9 11/7/8 10/6/8 
f 13/9/9 15/11/10 16/12/10 
f 16/12/10 14/10/9 13/9/9 
f 15/11/10 17/13/11 18/14/11 
f 18/14/11 16/12/10 15/11/10 
f 17/13/11 19/15/12 20/16/12 
f 20/16/12 18/14/11 17/13/11 
f 19/17/12 21/18/13 22/19/13 
f 22/19/13 20/20/12 19/17/12 
f 21/18/13 23/21/14 24/22/14 
f 24/22/14 22/19/13 21/18/13 
f 23/21/14 25/23/15 26/24/15 
f 26/24/15 24/22/14 23/21/14 
f 25/23/15 27/25/6 28/26/6 
f 28/26/6 26/24/15 25/23/15 
f 27/25/6 29/27/16 30/28/16 
f 30/28/16 28/26/6 27/25/6 
f 29/27/16 31/29/17 32/30/17 
f 32/30/17 30/28/16 29/27/16 
f 31/29/17 33/31/18 34/32/18 
f 34/32/18 32/30/17 31/29/17 
f 33/31/18 35/33/19 36/34/19 
f 36/34/19 34/32/18 33/31/18 
f 35/33/19 37/35/20 38/36/20 
f 38/36/20 36/34/19 35/33/19 
f 37/35/20 39/37/21 40/38/21 
f 40/38/21 38/36/20 37/35/20 
f 39/37/21 41/39/22 42/40/22 
f 42/40/22 40/38/21 39/37/21 
f 41/39/22 43/41/23 44/42/23 
f 44/42/23 42/40/22 41/39/22 
f 43/41/23 9/5/7 12/8/7 
f 12/8/7 44/42/23 43/41/23 
f 12/8/7 11/7/8 45/43/8 
f 45/43/8 46/44/7 12/8/7 
f 11/7/8 14/10/9 47/45/9 
f 47/45/9 45/43/8 11/7/8 
f 14/10/9 16/12/10 48/46/10 
f 48/46/10 47/45/9 14/10/9 
f 16/12/10 18/14/11 49/47/11 
f 49/47/11 48/46/10 16/12/10 
f 18/14/11 20/16/12 50/48/12 
f 50/48/12 49/47/11 18/14/11 
f 20/20/12 22/19/13 51/49/13 
f 51/49/13 50/50/12 20/20/12 
f 22/19/13 24/22/14 52/51/14 
f 52/51/14 51/49/13 22/19/13 
f 24/22/14 26/24/15 53/52/15 
f 53/52/15 52/51/14 24/22/14 
f 26/24/15 28/26/6 54/53/6 
f 54/53/6 53/52/15 26/24/15 
f 28/26/6 30/28/16 55/54/16 
f 55/54/16 54/53/6 28/26/6 
f 30/28/16 32/30/17 56/55/17 
f 56/55/17 55/54/16 30/28/16 
f 32/30/17 34/32/18 57/56/18 
f 57/56/18 56/55/17 32/30/17 
f 34/32/18 36/34/19 58/57/19 
f 58/57/19 57/56/18 34/32/18 
f 36/34/19 38/36/20 59/58/20 
f 59/58/20 58/57/19 36/34/19 
f 38/36/20 40/38/21 60/59/21 
f 60/59/21 59/58/20 38/36/20 
f 40/38/21 42/40/22 61/60/22 
f 61/60/22 60/59/21 40/38/21 
f 42/40/22 44/42/23 62/61/23 
f 62/61/23 61/60/22 42/40/22 
f 44/42/23 12/8/7 46/44/7 
f 46/44/7 62/61/23 44/42/23 
f 46/44/7 45/43/8 63/62/8 
f 63/62/8 64/63/7 46/44/7 
f 45/43/8 47/45/9 65/64/9 
f 65/64/9 63/62/8 45/43/8 
f 47/45/9 48/46/10 66/65/10 
f 66/65/10 65/64/9 47/45/9 
f 48/46/10 49/47/11 67/66/11 
f 67/66/11 66/65/10 48/46/10 
f 49/47/11 50/48/12 68/67/12 
f 68/67/12 67/66/11 49/47/11 
f 50/50/12 51/49/13 69/68/13 
f 69/68/13 68/69/12 50/50/12 
f 51/49/13 52/51/14 70/70/14 
f 70/70/14 69/68/13 51/49/13 
f 52/51/14 53/52/15 71/71/15 
f 71/71/15 70/70/14 52/51/14 
f 53/52/15 54/53/6 72/72/6 
f 72/72/6 71/71/15 53/52/15 
f 54/53/6 55/54/16 73/73/16 
f 73/73/16 72/72/6 54/53/6 
f 55/54/16 56/55/17 74/74/17 
f 74/74/17 73/73/16 55/54/16 
f 56/55/17 57/56/18 75/75/18 
f 75/75/18 74/74/17 56/55/17 
f 57/56/18 58/57/19 76/76/19 
f 76/76/19 75/75/18 57/56/18 
f 58/57/19 59/58/20 77/77/20 
f 77/77/20 76/76/19 58/57/19 
f 59/58/20 60/59/21 78/78/21 
f 78/78/21 77/77/20 59/58/20 
f 60/59/21 61/60/22 79/79/22 
f 79/79/22 78/78/21 60/59/21 
f 61/60/22 62/61/23 80/80/23 
f 80/80/23 79/79/22 61/60/22 
f 62/61/23 46/44/7 64/63/7 
f 64/63/7 80/80/23 62/61/23 
f 64/63/7 63/62/8 81/81/8 
f 81/81/8 82/82/7 64/63/7 
f 63/62/8 65/64/9 83/83/9 
f 83/83/9 81/81/8 63/62/8 
f 65/64/9 66/65/10 84/84/10 
f 84/84/10 83/83/9 65/64/9 
f 66/65/10 67/66/11 85/85/11 
f 85/85/11 84/84/10 66/65/10 
f 67/66/11 68/67/12 86/86/12 
f 86/86/12 85/85/11 67/66/11 
f 68/69/12 69/68/13 87/87/13 
f 87/87/13 86/88/12 68/69/12 
f 69/68/13 70/70/14 88/89/14 
f 88/89/14 87/87/13 69/68/13 
f 70/70/14 71/71/15 89/90/15 
f 89/90/15 88/89/14 70/70/14 
f 71/71/15 72/72/6 90/91/6 
f 90/91/6 89/90/15 71/71/15 
f 72/72/6 73/73/16 91/92/16 
f 91/92/16 90/91/6 72/72/6 
f 73/73/16 74/74/17 92/93/17 
f 92/93/17 91/92/16 73/73/16 
f 74/74/17 75/75/18 93/94/18 
f 93/94/18 92/93/17 74/74/17 
f 75/75/18 76/76/19 94/95/19 
f 94/95/19 93/94/18 75/75/18 
f 76/76/19 77/77/20 95/96/20 
f 95/96/20 94/95/19 76/76/19 
f 77/77/20 78/78/21 96/97/21 
f 96/97/21 95/96/20 77/77/20 
f 78/78/21 79/79/22 97/98/22 
f 97/98/22 96/97/21 78/78/21 
f 79/79/22 80/80/23 98/99/23 
f 98/99/23 97/98/22 79/79/22 
f 80/80/23 64/63/7 82/82/7 
f 82/82/7 98/99/23 80/80/23 
f 82/82/7 81/81/8 99/100/8 
f 99/100/8 100/101/7 82/82/7 
f 81/81/8 83/83/9 101/102/9 
f 101/102/9 99/100/8 81/81/8 
f 83/83/9 84/84/10 102/103/10 
f 102/103/10 101/102/9 83/83/9 
f 84/84/10 85/85/11 103/104/11 
f 103/104/11 102/103/10 84/84/10 
f 85/85/11 86/86/12 104/105/12 
f 104/105/12 103/104/11 85/85/11 
f 86/88/12 87/87/13 105/106/13 
f 105/106/13 104/107/12 86/88/12 
f 87/87/13 88/89/14 106/108/14 
f 106/108/14 105/106/13 87/87/13 
f 88/89/14 89/90/15 107/109/15 
f 107/109/15 106/108/14 88/89/14 
f 89/90/15 90/91/6 108/110/6 
f 108/110/6 107/109/15 89/90/15 
f 90/91/6 91/92/16 109/111/16 
f 109/111/16 108/110/6 90/91/6 
f 91/92/16 92/93/17 110/112/17 
f 110/112/17 109/111/16 91/92/16 
f 92/93/17 93/94/18 111/113/18 
f 111/113/18 110/112/17 92/93/17 
f 93/94/18 94/95/19 112/114/19 
f 112/114/19 111/113/18 93/94/18 
f 94/95/19 95/96/20 113/115/20 
f 113/115/20 112/114/19 94/95/19 
f 95/96/20 96/97/21 114/116/21 
f 114/116/21 113/115/20 95/96/20 
f 96/97/21 97/98/22 115/117/22 
f 115/117/22 114/116/21 96/97/21 
f 97/98/22 98/99/23 116/118/23 
f 116/118/23 115/117/22 97/98/22 
f 98/99/23 82/82/7 100/101/7 
f 100/101/7 116/118/23 98/99/23 
s 1
f 41/119/1 39/120/1 37/121/1 
f 37/121/1 35/122/1 33/123/1 
f 33/123/1 31/124/1 29/125/1 
f 37/121/1 33/123/1 29/125/1 
f 29/125/1 27/126/1 25/127/1 
f 25/127/1 23/128/1 21/129/1 
f 29/125/1 25/127/1 21/129/1 
f 21/129/1 19/130/1 17/131/1 
f 17/131/1 15/132/1 13/133/1 
f 21/129/1 17/131/1 13/133/1 
f 29/125/1 21/129/1 13/133/1 
f 37/121/1 29/125/1 13/133/1 
f 13/133/1 10/134/1 9/135/1 
f 37/121/1 13/133/1 9/135/1 
f 41/119/1 37/121/1 9/135/1 
f 43/136/1 41/119/1 9/135/1 
f 99/137/2 101/138/2 102/139/2 
f 102/139/2 103/140/2 104/141/2 
f 104/141/2 105/142/2 106/143/2 
f 102/139/2 104/141/2 106/143/2 
f 106/143/2 107/144/2 108/145/2 
f 108/145/2 109/146/2 110/147/2 
f 106/143/2 108/145/2 110/147/2 
f 110/147/2 111/148/2 112/149/2 
f 112/149/2 113/150/2 114/151/2 
f 110/147/2 112/149/2 114/151/2 
f 106/143/2 110/147/2 114/151/2 
f 102/139/2 106/143/2 114/151/2 
f 114/151/2 115/152/2 116/153/2 
f 102/139/2 114/151/2 116/153/2 
f 99/137/2 102/139/2 116/153/2 
f 100/154/2 99/137/2 116/153/2 
# 224 faces

