# 3ds Max Wavefront OBJ Exporter v0.97b - (c)2007 guruware
# File Created: 23.03.2017 18:24:23

mtllib cosasDeMid.mtl

#
# object mid_1
#

v  -66.2598 -1.2936 110.9889
v  -66.2598 21.0936 97.6111
v  -66.2598 21.0936 110.9258
v  -66.2598 -1.2936 97.6742
v  -71.3402 -1.2936 97.6742
v  -71.3402 21.0936 97.6111
v  -71.3402 -1.2936 110.9889
v  -51.5433 2.5725 109.4014
v  -51.5433 20.8075 97.6300
v  -51.5433 20.8075 109.4014
v  -51.5433 2.5725 97.6300
v  -52.5507 2.5725 109.4014
v  -52.5507 2.5725 97.6300
v  -52.5507 20.8075 97.6300
v  -52.5507 20.8075 109.4014
v  -45.2490 -1.7091 109.3692
v  -52.5448 20.6813 109.3692
v  -45.2490 20.6813 109.3692
v  -52.5448 -1.7091 109.3692
v  -45.2490 -1.7091 110.9836
v  -52.5448 -1.7091 110.9836
v  -52.5448 20.6813 110.9836
v  -45.2490 20.6813 110.9836
v  -61.8508 1.8680 96.2853
v  -70.4191 14.8520 96.2853
v  -61.8508 14.8520 96.2853
v  -70.4191 1.8680 96.2853
v  -61.8508 1.8680 97.5147
v  -70.4191 1.8680 97.5147
v  -70.4191 14.8520 97.5147
v  -61.8508 14.8520 97.5147
v  -50.1265 1.8680 96.2853
v  -56.2735 14.8520 96.2853
v  -50.1265 14.8520 96.2853
v  -56.2735 1.8680 96.2853
v  -50.1265 1.8680 97.5147
v  -56.2735 1.8680 97.5147
v  -56.2735 14.8520 97.5147
v  -50.1265 14.8520 97.5147
v  -71.3402 21.0936 110.9258
# 40 vertices

vn 1.0000 -0.0000 -0.0000
vn 1.0000 0.0000 -0.0000
vn 0.0000 -0.0028 -1.0000
vn 0.0000 -1.0000 -0.0000
vn 0.0000 0.0000 -1.0000
vn 0.0000 -1.0000 0.0000
vn -0.0000 0.0000 -1.0000
vn 0.0000 -0.0000 1.0000
vn 0.0000 1.0000 0.0000
vn -1.0000 0.0000 -0.0000
vn -0.0000 -0.0000 1.0000
vn 0.0000 0.0028 1.0000
# 12 vertex normals

vt 0.0005 0.4249 0.0000
vt 0.2535 0.8483 0.0000
vt 0.0017 0.8483 0.0000
vt 0.2523 0.4249 0.0000
vt 0.7135 0.0005 0.0000
vt 0.7135 0.4239 0.0000
vt 0.6174 0.4239 0.0000
vt 0.6174 0.0005 0.0000
vt 0.8110 0.7463 0.0000
vt 0.7149 0.7463 0.0000
vt 0.7149 0.4944 0.0000
vt 0.8110 0.4944 0.0000
vt 0.2545 0.0005 0.0000
vt 0.4771 0.3454 0.0000
vt 0.2545 0.3454 0.0000
vt 0.4771 0.0005 0.0000
vt 0.8758 0.2475 0.0000
vt 0.8758 0.4701 0.0000
vt 0.8567 0.4701 0.0000
vt 0.8567 0.2475 0.0000
vt 0.8753 0.8393 0.0000
vt 0.8753 0.4944 0.0000
vt 0.8943 0.4944 0.0000
vt 0.8943 0.8393 0.0000
vt 0.8957 0.8393 0.0000
vt 0.8957 0.4944 0.0000
vt 0.9147 0.4944 0.0000
vt 0.9147 0.8393 0.0000
vt 0.9352 0.7409 0.0000
vt 0.9352 0.9636 0.0000
vt 0.9161 0.9636 0.0000
vt 0.9161 0.7409 0.0000
vt 0.2545 0.3463 0.0000
vt 0.4771 0.3463 0.0000
vt 0.4771 0.6912 0.0000
vt 0.2545 0.6912 0.0000
vt 0.4780 0.0005 0.0000
vt 0.6160 0.4240 0.0000
vt 0.4780 0.4240 0.0000
vt 0.6160 0.0005 0.0000
vt 0.0005 0.9872 0.0000
vt 0.0005 0.8492 0.0000
vt 0.0310 0.8492 0.0000
vt 0.0310 0.9872 0.0000
vt 0.8743 0.4944 0.0000
vt 0.8743 0.9179 0.0000
vt 0.8438 0.9179 0.0000
vt 0.8438 0.4944 0.0000
vt 0.8429 0.4944 0.0000
vt 0.8429 0.9179 0.0000
vt 0.8123 0.9179 0.0000
vt 0.8123 0.4944 0.0000
vt 0.5086 0.8503 0.0000
vt 0.5086 0.9883 0.0000
vt 0.4780 0.9883 0.0000
vt 0.4780 0.8503 0.0000
vt 0.4780 0.4254 0.0000
vt 0.6160 0.4254 0.0000
vt 0.6160 0.8489 0.0000
vt 0.4780 0.8489 0.0000
vt 0.2545 0.6922 0.0000
vt 0.4165 0.9377 0.0000
vt 0.2545 0.9377 0.0000
vt 0.4165 0.6922 0.0000
vt 0.8771 0.4095 0.0000
vt 0.8771 0.2475 0.0000
vt 0.9004 0.2475 0.0000
vt 0.9004 0.4095 0.0000
vt 0.4412 0.6922 0.0000
vt 0.4412 0.9377 0.0000
vt 0.4179 0.9377 0.0000
vt 0.4179 0.6922 0.0000
vt 0.9394 0.4944 0.0000
vt 0.9394 0.7400 0.0000
vt 0.9161 0.7400 0.0000
vt 0.9161 0.4944 0.0000
vt 0.9635 0.4944 0.0000
vt 0.9635 0.6565 0.0000
vt 0.9403 0.6565 0.0000
vt 0.9403 0.4944 0.0000
vt 0.7149 0.0005 0.0000
vt 0.8769 0.0005 0.0000
vt 0.8769 0.2461 0.0000
vt 0.7149 0.2461 0.0000
vt 0.7149 0.2475 0.0000
vt 0.8311 0.4931 0.0000
vt 0.7149 0.4931 0.0000
vt 0.8311 0.2475 0.0000
vt 0.6174 0.9664 0.0000
vt 0.6174 0.8502 0.0000
vt 0.6407 0.8502 0.0000
vt 0.6407 0.9664 0.0000
vt 0.8558 0.2475 0.0000
vt 0.8558 0.4931 0.0000
vt 0.8325 0.4931 0.0000
vt 0.8325 0.2475 0.0000
vt 0.4653 0.6922 0.0000
vt 0.4653 0.9377 0.0000
vt 0.4421 0.9377 0.0000
vt 0.4421 0.6922 0.0000
vt 0.0552 0.8492 0.0000
vt 0.0552 0.9655 0.0000
vt 0.0320 0.9655 0.0000
vt 0.0320 0.8492 0.0000
vt 0.8783 0.0005 0.0000
vt 0.9946 0.0005 0.0000
vt 0.9946 0.2461 0.0000
vt 0.8783 0.2461 0.0000
vt 0.6174 0.8488 0.0000
vt 0.6174 0.4253 0.0000
vt 0.7135 0.4253 0.0000
vt 0.7135 0.8488 0.0000
vt 0.0005 0.4239 0.0000
vt 0.0017 0.0005 0.0000
vt 0.2535 0.0005 0.0000
vt 0.2523 0.4239 0.0000
vt 0.7149 0.9995 0.0000
vt 0.7149 0.7477 0.0000
vt 0.8110 0.7477 0.0000
vt 0.8110 0.9995 0.0000
# 120 texture coords

g mid_1
usemtl lambert1
s off
f 1/1/1 2/2/1 3/3/1 
f 1/1/2 4/4/2 2/2/2 
f 5/5/3 6/6/3 2/7/3 4/8/3 
f 5/9/4 4/10/4 1/11/4 7/12/4 
f 8/13/5 9/14/5 10/15/5 
f 8/13/5 11/16/5 9/14/5 
f 12/17/6 13/18/6 11/19/6 8/20/6 
f 9/21/7 11/22/7 13/23/7 14/24/7 
f 8/25/8 10/26/8 15/27/8 12/28/8 
f 10/29/9 9/30/9 14/31/9 15/32/9 
f 15/33/10 14/34/10 13/35/10 12/36/10 
f 16/37/5 17/38/5 18/39/5 
f 16/37/5 19/40/5 17/38/5 
f 20/41/4 21/42/4 19/43/4 16/44/4 
f 17/45/10 19/46/10 21/47/10 22/48/10 
f 16/49/2 18/50/2 23/51/2 20/52/2 
f 18/53/9 17/54/9 22/55/9 23/56/9 
f 23/57/11 22/58/11 21/59/11 20/60/11 
f 24/61/5 25/62/5 26/63/5 
f 24/61/5 27/64/5 25/62/5 
f 28/65/4 29/66/4 27/67/4 24/68/4 
f 25/69/10 27/70/10 29/71/10 30/72/10 
f 24/73/2 26/74/2 31/75/2 28/76/2 
f 26/77/9 25/78/9 30/79/9 31/80/9 
f 31/81/8 30/82/8 29/83/8 28/84/8 
f 32/85/5 33/86/5 34/87/5 
f 32/85/5 35/88/5 33/86/5 
f 36/89/4 37/90/4 35/91/4 32/92/4 
f 33/93/10 35/94/10 37/95/10 38/96/10 
f 32/97/2 34/98/2 39/99/2 36/100/2 
f 34/101/9 33/102/9 38/103/9 39/104/9 
f 39/105/8 38/106/8 37/107/8 36/108/8 
f 1/109/12 3/110/12 40/111/12 7/112/12 
f 7/113/10 40/114/10 6/115/10 5/116/10 
f 6/117/9 40/118/9 3/119/9 2/120/9 
# 25 polygons - 10 triangles

